<svg width="82" height="57" fill="none" xmlns="http://www.w3.org/2000/svg"><g clip-path="url(#a)"><path d="M82 0H0v57h82V0Z" fill="#C60B1E"/><path d="M82 14.25H0v28.5h82v-28.5Z" fill="#FFC400"/><path d="M15.516 25.335s-.064 0-.1-.018a1.547 1.547 0 0 1-.141-.11l-.085-.055-.078-.097s-.092-.135-.05-.238c.042-.104.114-.14.178-.171.064-.03.198-.068.198-.068s.107-.042.142-.047l.163-.037s.035-.018.07-.03c.036-.013.085-.013.114-.019.028-.007.1-.027.142-.03.065-.002.17.012.206.012.035 0 .155.006.206.006.048 0 .225-.013.275-.013.05 0 .086-.006.142 0a.954.954 0 0 1 .185.049c.029.012.198.067.262.085.064.019.22.043.291.074.07.03.114.081.15.125.034.042.042.089.056.12a.198.198 0 0 1 0 .126.727.727 0 0 1-.064.092l-.078.117-.1.073s-.07.061-.127.054c-.056-.004-.631-.098-1-.098s-.959.098-.959.098h.002Z" fill="#AD1519" stroke="#000" stroke-width=".26" stroke-linejoin="round"/><path d="M16.479 24.872c.096 0 .173-.127.173-.285 0-.157-.078-.285-.173-.285-.096 0-.173.128-.173.285 0 .158.077.285.173.285Z" fill="#C8B100" stroke="#000" stroke-width=".26"/><path d="M16.483 24.85c.044 0 .08-.118.08-.263 0-.144-.036-.262-.08-.262-.045 0-.08.118-.08.262 0 .145.035.263.08.263Z" fill="#C8B100" stroke="#000" stroke-width=".26"/><path d="M16.483 24.386c.064 0 .116-.045.116-.1 0-.054-.052-.099-.116-.099-.065 0-.117.045-.117.1 0 .054.052.099.117.099Z" fill="#C8B100"/><path d="M16.644 24.252v.067h-.318v-.067h.118v-.15h-.078v-.065h.078v-.065h.075v.065h.078v.065h-.078v.15h.125Z" fill="#C8B100" stroke="#000" stroke-width=".3"/><path d="M16.514 24.19c.027.007.05.022.066.042.016.02.022.044.018.068a.097.097 0 0 1-.038.061.13.13 0 0 1-.077.024.13.13 0 0 1-.077-.024.096.096 0 0 1-.039-.061.087.087 0 0 1 .018-.068.116.116 0 0 1 .066-.041" stroke="#000" stroke-width=".26"/><path d="M16.482 25.317h-.604l-.013-.134-.03-.14-.028-.175c-.167-.2-.32-.33-.372-.302.013-.037.028-.064.06-.081.148-.08.452.112.682.426.02.029.04.057.058.086h.498c.017-.029.037-.057.058-.086.228-.314.534-.506.68-.426.033.017.047.044.06.08-.052-.027-.203.103-.372.303l-.028.174-.03.14-.012.135h-.607Z" fill="#C8B100" stroke="#000" stroke-width=".26"/><path d="M15.463 24.56c.114-.06.379.13.593.427m1.45-.427c-.115-.06-.378.13-.594.427" stroke="#000" stroke-width=".26"/><path d="M15.59 25.564a.536.536 0 0 0-.073-.123c.245-.065.585-.106.962-.107.378.001.722.042.965.107l-.065.104a.766.766 0 0 0-.048.092 3.284 3.284 0 0 0-.853-.093c-.35.001-.685.04-.86.098a.646.646 0 0 0-.03-.078h.002Z" fill="#C8B100" stroke="#000" stroke-width=".26"/><path d="M16.481 25.847c.305 0 .641-.043.765-.072.083-.022.132-.055.123-.095-.005-.019-.022-.035-.046-.044-.183-.053-.51-.09-.842-.09-.33 0-.661.037-.843.09-.024.01-.041.025-.046.044-.01.04.04.073.123.095.124.029.461.071.766.072Zm.979-.53-.073-.06s-.072.038-.161.027c-.088-.012-.117-.11-.117-.11s-.099.076-.18.07c-.082-.007-.135-.07-.135-.07s-.089.058-.167.052c-.077-.007-.151-.095-.151-.095s-.08.091-.157.098c-.078.006-.142-.061-.142-.061s-.035.067-.134.082c-.1.015-.185-.07-.185-.07s-.056.082-.124.104c-.068.02-.155-.03-.155-.03l-.026.048c-.01.019-.038.022-.038.022l.022.054a3.85 3.85 0 0 1 .945-.104c.373 0 .711.04.955.105l.025-.062h-.002Z" fill="#C8B100" stroke="#000" stroke-width=".26"/><path d="m16.482 25.022.035.006a.1.1 0 0 0-.008.043c0 .066.063.12.141.12a.141.141 0 0 0 .133-.084c.001.002.014-.043.019-.043.004 0 .004.047.006.047.009.06.07.101.138.101.078 0 .14-.053.14-.12 0-.005 0-.01-.002-.014l.044-.04.024.05a.105.105 0 0 0-.013.052c0 .064.06.116.133.116a.136.136 0 0 0 .11-.052l.03-.033v.041c0 .039.017.076.061.081 0 0 .048.004.114-.043s.1-.086.1-.086l.004.048s-.064.096-.121.126a.204.204 0 0 1-.12.028.112.112 0 0 1-.084-.07.21.21 0 0 1-.1.026c-.079 0-.15-.04-.178-.098a.205.205 0 0 1-.146.057.215.215 0 0 1-.158-.066.208.208 0 0 1-.136.049.21.21 0 0 1-.167-.08.213.213 0 0 1-.169.08.208.208 0 0 1-.136-.05.214.214 0 0 1-.157.067.206.206 0 0 1-.147-.057c-.027.058-.099.098-.178.098a.205.205 0 0 1-.1-.025.111.111 0 0 1-.084.07.202.202 0 0 1-.118-.03.473.473 0 0 1-.128-.125l.009-.048s.036.04.101.086c.065.047.114.043.114.043.043-.005.062-.042.062-.08v-.042l.027.033a.139.139 0 0 0 .11.052c.075 0 .134-.052.134-.116a.094.094 0 0 0-.013-.052l.024-.05.044.04-.001.013c0 .068.061.121.139.121.069 0 .13-.04.14-.101 0 0 0-.047.004-.047.006 0 .018.044.02.043a.14.14 0 0 0 .133.084c.077 0 .14-.054.14-.12 0-.016 0-.03-.007-.044l.037-.005Z" fill="#C8B100" stroke="#000" stroke-width=".26"/><path d="M16.48 25.334a3.978 3.978 0 0 0-.963.107c-.016.005-.036-.006-.041-.019-.005-.015.006-.032.022-.037.245-.068.594-.111.982-.111.387 0 .737.043.982.111.016.005.027.022.023.037-.006.012-.026.024-.042.02a3.989 3.989 0 0 0-.963-.108Z" fill="#C8B100" stroke="#000" stroke-width=".26" stroke-linejoin="round"/><path d="M15.196 25.194c-.001.001-.047-.055-.081-.083a.356.356 0 0 0-.086-.038c0-.009.035-.032.073-.032.023 0 .044.008.056.023l.006-.023s.03.006.043.037c.015.033.007.082.007.082s-.007.023-.018.034Zm.237-.089-.014.075-.176.017-.026-.013.005-.027.133-.099.078.047Z" fill="#C8B100" stroke="#000" stroke-width=".26"/><path d="M15.198 25.166c.015-.014.045-.01.067.006.022.017.03.044.015.057-.015.015-.045.012-.067-.006-.022-.018-.03-.044-.015-.057Zm.322.014c-.008-.02 0-.042.016-.047.018-.004.038.01.046.03.008.022 0 .044-.017.048-.016.005-.036-.009-.045-.03Zm.084-.095.065.054.152-.075.012-.024-.021-.02-.176-.013-.031.078Z" fill="#C8B100" stroke="#000" stroke-width=".26"/><path d="m15.78 24.825-.085.073.108.13.03.01.02-.02.038-.157-.112-.036Z" fill="#C8B100" stroke="#000" stroke-width=".26"/><path d="m16.065 25-.033.072-.175-.015-.023-.018.013-.025.153-.073.065.06Z" fill="#C8B100" stroke="#000" stroke-width=".26"/><path d="M15.833 25.094c.034 0 .061-.024.061-.054s-.027-.053-.061-.053-.062.024-.062.053c0 .03.028.054.062.054Zm.297-.02c-.003-.023.01-.042.027-.044.017-.002.035.015.038.037.003.022-.01.043-.027.044-.017.002-.035-.015-.037-.037Zm.114-.081.05.065.168-.047.018-.021-.019-.023-.167-.044-.05.07Z" fill="#C8B100" stroke="#000" stroke-width=".26"/><path d="m16.48 24.755-.109.06.08.157.028.016.028-.016.08-.158-.108-.059Z" fill="#C8B100" stroke="#000" stroke-width=".26"/><path d="m16.715 24.993-.049.065-.168-.047-.017-.021.017-.023.168-.044.05.07Z" fill="#C8B100" stroke="#000" stroke-width=".26"/><path d="M16.48 25.044c.034 0 .061-.024.061-.054s-.027-.054-.061-.054-.062.024-.062.054.028.054.062.054Zm.357.03c.003-.023-.01-.042-.028-.044-.017-.002-.035.015-.037.037-.003.022.009.043.026.044.018.002.035-.015.039-.037Zm.061-.074.033.072.176-.015.022-.018-.012-.025-.153-.073-.066.06Z" fill="#C8B100" stroke="#000" stroke-width=".26"/><path d="m17.183 24.825.084.073-.108.13-.029.01-.021-.02-.038-.157.112-.036Z" fill="#C8B100" stroke="#000" stroke-width=".26"/><path d="m17.361 25.085-.064.054-.153-.075-.012-.024.024-.02.175-.013.03.078Z" fill="#C8B100" stroke="#000" stroke-width=".26"/><path d="M17.13 25.094c.035 0 .062-.024.062-.054s-.027-.053-.061-.053-.062.024-.062.053c0 .03.028.054.062.054Zm.314.086c.007-.02 0-.042-.017-.047-.017-.004-.037.01-.046.03-.008.022 0 .044.017.048.017.005.037-.009.046-.03Zm.3.014c.002.001.048-.055.083-.083.024-.02.084-.038.084-.038 0-.009-.035-.032-.073-.032a.073.073 0 0 0-.056.023l-.005-.023s-.03.006-.045.037c-.014.033-.004.082-.004.082s.005.023.016.034Zm-.239-.089.014.075.176.017.026-.013-.006-.027-.132-.099-.078.047Z" fill="#C8B100" stroke="#000" stroke-width=".26"/><path d="M17.745 25.166c-.014-.014-.044-.01-.067.006-.022.017-.03.044-.015.057.015.015.045.012.068-.006.022-.018.029-.044.014-.057Z" fill="#C8B100" stroke="#000" stroke-width=".26"/><path d="m15.525 25.57.04-.057.08.015-.047.064-.073-.022Z" fill="#AD1519" stroke="#000" stroke-width=".26"/><path d="m15.877 25.514-.087.013c-.023.002-.044-.01-.048-.03-.002-.02.013-.036.034-.04l.088-.011.09-.013c.022-.002.042.01.045.029a.036.036 0 0 1-.033.04l-.09.012Z" fill="#058E6E" stroke="#000" stroke-width=".26"/><path d="M16.17 25.503c.03 0 .056-.021.056-.047s-.025-.047-.056-.047c-.03 0-.055.021-.055.047s.025.047.055.047Z" fill="#fff" stroke="#000" stroke-width=".26"/><path d="M16.485 25.477h-.12c-.023 0-.042-.016-.042-.036 0-.019.018-.035.04-.035h.246c.024 0 .042.016.042.035 0 .02-.02.036-.042.036h-.124Z" fill="#AD1519" stroke="#000" stroke-width=".26"/><path d="M16.792 25.503c.03 0 .056-.021.056-.047s-.025-.047-.056-.047c-.03 0-.055.021-.055.047s.025.047.055.047Z" fill="#fff" stroke="#000" stroke-width=".26"/><path d="m17.086 25.514.087.013c.023.002.044-.01.048-.03.002-.02-.012-.036-.034-.04l-.088-.011-.09-.013c-.022-.002-.043.01-.046.029-.003.02.012.038.034.04l.09.012Z" fill="#058E6E" stroke="#000" stroke-width=".26"/><path d="m17.432 25.574-.031-.06-.084.006.04.067.075-.013Z" fill="#AD1519" stroke="#000" stroke-width=".26"/><path d="M16.479 25.782c-.305 0-.581-.025-.79-.074a3.66 3.66 0 0 1 .79-.08c.306 0 .583.031.794.08-.21.05-.488.074-.794.074Z" fill="#AD1519" stroke="#000" stroke-width=".26" stroke-linejoin="round"/><path d="M16.623 25.773v-.132m-.072.137v-.14m-.053.142v-.144" stroke="#000" stroke-width=".01"/><path d="M16.453 25.781v-.145" stroke="#000" stroke-width=".02"/><path d="M16.408 25.781v-.145" stroke="#000" stroke-width=".03"/><path d="M16.368 25.781v-.145m-.04.145v-.145" stroke="#000" stroke-width=".04"/><path d="M16.292 25.781v-.145" stroke="#000" stroke-width=".05"/><path d="m16.224 25.773-.001-.131m.034.133v-.137" stroke="#000" stroke-width=".06"/><path d="M16.16 25.767v-.12m.033.124-.001-.129" stroke="#000" stroke-width=".07"/><path d="M16.075 25.76v-.105m.03.107v-.112m.028.116v-.116" stroke="#000" stroke-width=".08"/><path d="M16.046 25.76v-.103" stroke="#000" stroke-width=".09"/><path d="M16.015 25.755v-.097" stroke="#000" stroke-width=".1"/><path d="M15.986 25.751v-.088" stroke="#000" stroke-width=".11"/><path d="m15.924 25.744-.001-.071m.032.075v-.08m-.06.07v-.063" stroke="#000" stroke-width=".12"/><path d="M15.865 25.733v-.052" stroke="#000" stroke-width=".13"/><path d="M15.834 25.726v-.04" stroke="#000" stroke-width=".14"/><path d="M15.803 25.723v-.03" stroke="#000" stroke-width=".15"/><path d="M15.768 25.716v-.015" stroke="#000" stroke-width=".18"/><path d="M18.438 37.697a1.16 1.16 0 0 1-.493-.099 1.18 1.18 0 0 0-.485-.093c-.19 0-.364.036-.49.094-.127.06-.301.099-.492.099-.193 0-.366-.041-.493-.103a1.197 1.197 0 0 0-.476-.09c-.19 0-.358.033-.484.092-.128.062-.303.1-.495.1v.275c.192 0 .367-.04.495-.1.126-.06.294-.093.484-.093.182 0 .35.035.476.09.127.061.3.103.493.103.19 0 .365-.037.492-.098.127-.059.3-.096.49-.096.188 0 .36.037.485.095.128.062.297.1.49.1l.003-.276Z" fill="#005BBF" stroke="#000" stroke-width=".39"/><path d="M18.438 37.972a1.16 1.16 0 0 1-.493-.099 1.18 1.18 0 0 0-.485-.095c-.19 0-.364.037-.49.096-.127.06-.301.098-.492.098-.193 0-.366-.042-.493-.102a1.196 1.196 0 0 0-.476-.092c-.19 0-.358.035-.484.094-.128.06-.303.1-.495.1v.275c.192 0 .367-.04.495-.1.126-.06.294-.094.484-.094.182 0 .35.036.476.091.127.062.3.103.493.103.19 0 .365-.039.492-.098.127-.06.3-.096.49-.096.188 0 .36.037.485.096.128.06.297.098.49.098l.003-.275Z" fill="#CCC" stroke="#000" stroke-width=".39"/><path d="M18.438 38.247a1.18 1.18 0 0 1-.493-.098 1.161 1.161 0 0 0-.485-.096c-.19 0-.364.037-.49.096-.127.06-.301.098-.492.098-.193 0-.366-.041-.493-.103a1.196 1.196 0 0 0-.476-.09c-.19 0-.358.033-.484.093-.128.06-.303.1-.495.1v.274c.192 0 .367-.04.495-.1.126-.059.294-.092.484-.092.182 0 .35.034.476.09.127.062.3.102.493.102.19 0 .365-.037.492-.097.127-.06.3-.095.49-.095.188 0 .36.035.485.094.128.062.297.098.49.098l.003-.274Z" fill="#005BBF" stroke="#000" stroke-width=".39"/><path d="M18.435 38.797c-.193 0-.362-.038-.49-.1a1.182 1.182 0 0 0-.485-.093c-.19 0-.364.035-.49.095a1.199 1.199 0 0 1-.492.098 1.17 1.17 0 0 1-.493-.103 1.176 1.176 0 0 0-.476-.09c-.19 0-.358.033-.484.092-.128.06-.303.1-.495.1v-.273c.192 0 .367-.041.495-.103.126-.058.294-.09.484-.09.182 0 .35.033.476.09.127.06.3.1.493.1.19 0 .365-.036.492-.096.127-.06.3-.095.49-.095.188 0 .36.035.485.094.128.062.3.098.493.098l-.003.276Z" fill="#CCC" stroke="#000" stroke-width=".39"/><path d="M18.435 39.071c-.193 0-.362-.037-.49-.098a1.163 1.163 0 0 0-.485-.096c-.19 0-.364.037-.49.096-.127.06-.301.098-.492.098a1.17 1.17 0 0 1-.493-.102 1.176 1.176 0 0 0-.476-.092c-.19 0-.358.035-.484.094-.128.06-.303.1-.495.1V38.8c.192 0 .367-.042.495-.103.126-.06.294-.092.484-.092.182 0 .35.034.476.09.127.06.3.102.493.102.19 0 .365-.038.492-.097.127-.06.3-.095.49-.095.188 0 .36.035.485.093.128.062.298.1.493.1l-.003.274Z" fill="#005BBF" stroke="#000" stroke-width=".39"/><path d="M15.382 36.569c.007.024.017.046.017.07 0 .167-.16.3-.353.3h2.878c-.194 0-.352-.133-.352-.3a.29.29 0 0 1 .011-.07.174.174 0 0 1-.055.007h-2.094a.194.194 0 0 1-.052-.007Z" fill="#C8B100" stroke="#000" stroke-width=".39" stroke-linejoin="round"/><path d="M15.434 36.397h2.094c.071 0 .128.04.128.089 0 .049-.057.09-.128.09h-2.094c-.07 0-.128-.041-.128-.09 0-.05.058-.09.128-.09Zm-.383 1.207h2.87v-.664h-2.87v.664Z" fill="#C8B100" stroke="#000" stroke-width=".39"/><path d="M15.46 36.288h2.04v-9.077h-2.04v9.078Z" fill="#CCC" stroke="#000" stroke-width=".39"/><path d="M16.916 27.223v9.059m.23-9.059v9.059" stroke="#000" stroke-width=".39"/><path d="M15.09 26.49h2.796v-.665h-2.797v.665Z" fill="#C8B100" stroke="#000" stroke-width=".39"/><path d="M15.383 26.934a.123.123 0 0 1 .051-.008h2.094c.022 0 .04.003.058.009-.073-.022-.124-.081-.124-.15 0-.07.056-.13.129-.152a.262.262 0 0 1-.061.009h-2.096a.193.193 0 0 1-.059-.007l.012.002c.075.02.118.081.118.147a.162.162 0 0 1-.122.15Z" fill="#C8B100" stroke="#000" stroke-width=".39" stroke-linejoin="round"/><path d="M15.434 26.926h2.094c.072 0 .128.04.128.089 0 .05-.056.09-.128.09h-2.094c-.07 0-.128-.04-.128-.09 0-.05.058-.09.128-.09Zm0-.436h2.095c.072 0 .13.034.13.076 0 .042-.058.076-.13.076h-2.095c-.07 0-.128-.034-.128-.076 0-.042.058-.076.128-.076Z" fill="#C8B100" stroke="#000" stroke-width=".39"/><path d="M14.825 34.043c-.284.148-.477.3-.446.377.015.07.106.122.235.2.203.128.326.358.23.464a.637.637 0 0 0 .274-.512.643.643 0 0 0-.293-.53Z" fill="#AD1519" stroke="#000" stroke-width=".39"/><path d="M19.584 30.606c-.444-.167-1.2-.291-2.069-.317a7.08 7.08 0 0 0-.977.08c-1.22.185-2.15.628-2.075.988 0 .007.005.023.006.03 0 0-.457-.936-.464-.972-.082-.4.948-.891 2.302-1.096.425-.066.84-.09 1.2-.087.865 0 1.618.101 2.072.254l.005 1.12Z" fill="#AD1519" stroke="#000" stroke-width=".39" stroke-linejoin="round"/><path d="M15.458 31.746c-.566-.037-.95-.175-.996-.39-.035-.17.157-.36.498-.533.152.016.324.035.502.035l-.004.888Zm2.046-.695c.354.05.618.13.75.227l.012.02c.063.117-.247.367-.766.646l.004-.893Z" fill="#AD1519" stroke="#000" stroke-width=".39"/><path d="M14.191 33.497c-.054-.146.498-.44 1.277-.7.357-.115.65-.236 1.015-.382 1.083-.436 1.882-.935 1.784-1.116l-.01-.02c.057.044.147.94.147.94.098.166-.633.659-1.63 1.092-.32.139-.993.365-1.31.466-.57.179-1.135.518-1.083.643l-.19-.922v-.001Z" fill="#AD1519" stroke="#000" stroke-width=".39" stroke-linejoin="round"/><path d="M35.197 25.128s-.092.089-.16.101c-.067.012-.152-.055-.152-.055s-.06.058-.136.072c-.074.016-.176-.075-.176-.075s-.072.091-.135.113c-.064.02-.141-.027-.141-.027s-.03.044-.082.07c-.023.01-.06-.007-.06-.007l-.075-.043-.086-.082-.078-.027s-.035-.104-.038-.122l-.01-.065c-.017-.074.109-.16.288-.196a.565.565 0 0 1 .258-.003c.072-.054.224-.093.402-.093.162 0 .304.03.381.08.077-.05.219-.08.38-.08.179 0 .33.039.4.093a.57.57 0 0 1 .26.003c.179.036.305.122.29.196l-.011.065c-.004.018-.04.122-.04.122l-.078.027-.085.082-.073.043s-.038.017-.06.006c-.054-.024-.083-.07-.083-.07s-.078.049-.142.028c-.064-.022-.134-.113-.134-.113s-.103.091-.178.075c-.074-.014-.134-.072-.134-.072s-.086.067-.152.055c-.068-.012-.16-.101-.16-.101Z" fill="#AD1519" stroke="#000" stroke-width=".27"/><path d="M35.195 24.87c.095 0 .173-.1.173-.223 0-.124-.078-.224-.173-.224-.096 0-.174.1-.174.224 0 .123.078.223.174.223Z" fill="#C8B100" stroke="#000" stroke-width=".26"/><path d="M35.199 24.853c.044 0 .079-.092.079-.206 0-.114-.035-.207-.08-.207-.043 0-.078.093-.078.207 0 .114.035.206.079.206Z" fill="#C8B100" stroke="#000" stroke-width=".26"/><path d="M35.197 24.49c.064 0 .116-.044.116-.1 0-.055-.052-.1-.116-.1-.065 0-.117.045-.117.1 0 .056.052.1.117.1Z" fill="#C8B100"/><path d="M35.36 24.355v.066h-.318v-.066h.118v-.148h-.078v-.066h.078v-.066h.076v.066h.077v.066h-.077v.148h.123Z" fill="#C8B100" stroke="#000" stroke-width=".3"/><path d="M35.231 24.296c.027.007.05.022.065.043.015.02.02.045.016.068a.098.098 0 0 1-.04.061.129.129 0 0 1-.078.024.128.128 0 0 1-.076-.026.097.097 0 0 1-.037-.063.09.09 0 0 1 .02-.068.118.118 0 0 1 .066-.04" stroke="#000" stroke-width=".26"/><path d="M33.887 25.079a.313.313 0 0 1-.028-.123c0-.182.158-.329.355-.329.063 0 .12.015.172.043" stroke="#000" stroke-width=".26" stroke-linecap="round"/><path d="M34.525 24.844a.186.186 0 0 1-.037-.096c0-.131.15-.237.331-.237.078 0 .15.02.207.051m.84.285a.19.19 0 0 0 .031-.099c0-.131-.148-.237-.33-.237a.42.42 0 0 0-.207.051" stroke="#000" stroke-width=".26"/><path d="M36.496 25.079a.31.31 0 0 0 .026-.123c0-.182-.158-.329-.354-.329a.367.367 0 0 0-.173.043" stroke="#000" stroke-width=".26" stroke-linecap="round"/><path d="M33.782 24.978c.031 0 .056-.022.056-.049 0-.027-.025-.049-.056-.049s-.056.022-.056.05c0 .026.025.048.056.048Zm.022-.18c.032 0 .057-.022.057-.049 0-.027-.025-.049-.057-.049-.03 0-.056.022-.056.05 0 .026.025.048.056.048Zm.127-.136c.032 0 .057-.022.057-.05 0-.027-.025-.048-.057-.048-.03 0-.056.021-.056.049 0 .027.025.049.056.049Zm.169-.075c.03 0 .056-.021.056-.049 0-.027-.025-.049-.056-.049-.032 0-.057.022-.057.05 0 .026.025.048.056.048Zm.181.007c.031 0 .056-.022.056-.049 0-.027-.025-.049-.056-.049s-.056.022-.056.05c0 .026.025.048.056.048Z" stroke="#000" stroke-width=".21"/><path d="M34.392 24.796c.032 0 .057-.022.057-.049 0-.027-.025-.049-.056-.049-.032 0-.057.022-.057.049 0 .027.025.049.056.049Z" fill="#fff" stroke="#000" stroke-width=".21"/><path d="M34.424 24.625c.031 0 .056-.022.056-.049 0-.027-.025-.049-.056-.049s-.057.022-.057.049c0 .027.026.049.057.049Zm.141-.107c.031 0 .057-.022.057-.05 0-.026-.026-.048-.057-.048-.031 0-.056.022-.056.049 0 .027.025.049.056.049Zm.179-.051c.031 0 .056-.022.056-.05 0-.027-.025-.049-.056-.049s-.057.023-.057.05c0 .027.026.049.057.049Zm.178.005c.032 0 .057-.022.057-.049 0-.027-.025-.049-.056-.049-.032 0-.057.022-.057.05 0 .026.025.048.056.048Zm.538 0c.03 0 .056-.022.056-.049 0-.027-.025-.049-.056-.049-.032 0-.057.022-.057.05 0 .026.026.048.057.048Zm.182-.005c.031 0 .057-.022.057-.05 0-.027-.026-.049-.057-.049-.03 0-.056.023-.056.05 0 .027.025.049.056.049Zm.178.051c.03 0 .056-.022.056-.05 0-.026-.026-.048-.057-.048-.03 0-.056.022-.056.049 0 .027.025.049.056.049Zm.14.107c.032 0 .057-.022.057-.049 0-.027-.025-.049-.056-.049-.032 0-.057.022-.057.049 0 .027.025.049.057.049Z" stroke="#000" stroke-width=".21"/><path d="M35.992 24.796c.031 0 .056-.022.056-.049 0-.027-.025-.049-.056-.049s-.056.022-.056.049c0 .027.025.049.056.049Z" fill="#fff" stroke="#000" stroke-width=".21"/><path d="M36.101 24.594c.031 0 .057-.022.057-.049 0-.027-.026-.049-.057-.049-.031 0-.056.022-.056.05 0 .026.025.048.056.048Zm.181-.007c.031 0 .056-.021.056-.049 0-.027-.025-.049-.056-.049s-.056.022-.056.05c0 .026.025.048.056.048Zm.173.075c.031 0 .056-.022.056-.05 0-.027-.025-.048-.056-.048s-.057.021-.057.049c0 .027.026.049.057.049Zm.127.136c.031 0 .056-.022.056-.049 0-.027-.025-.049-.056-.049s-.056.022-.056.05c0 .026.025.048.056.048Zm.02.18c.031 0 .056-.022.056-.049 0-.027-.025-.049-.056-.049s-.056.022-.056.05c0 .026.025.048.056.048Z" stroke="#000" stroke-width=".21"/><path d="M34.303 25.564a.52.52 0 0 0-.072-.123 3.96 3.96 0 0 1 .962-.107c.378.001.721.042.965.107l-.066.104a.768.768 0 0 0-.047.092 3.29 3.29 0 0 0-.853-.093c-.35.001-.685.04-.861.098.002 0-.013-.037-.029-.078h.001Z" fill="#C8B100" stroke="#000" stroke-width=".26"/><path d="M35.195 25.847c.305-.001.641-.043.765-.072.083-.022.132-.055.123-.095-.005-.019-.022-.035-.046-.044a3.438 3.438 0 0 0-.842-.091c-.33 0-.661.038-.843.091-.024.01-.041.025-.046.044-.01.04.04.073.122.095.125.029.462.071.767.072Zm.979-.53-.074-.06s-.071.038-.16.027c-.088-.013-.117-.11-.117-.11s-.1.076-.18.07c-.082-.007-.135-.07-.135-.07s-.089.058-.167.052c-.078-.007-.152-.095-.152-.095s-.079.091-.156.098c-.078.006-.142-.061-.142-.061s-.035.067-.134.082c-.1.015-.185-.07-.185-.07s-.056.082-.124.104c-.068.02-.156-.03-.156-.03l-.025.048c-.01.018-.039.022-.039.022l.023.053a3.85 3.85 0 0 1 .945-.103c.372 0 .711.04.955.105l.025-.062h-.002Z" fill="#C8B100" stroke="#000" stroke-width=".26"/><path d="m35.196 25.022.035.005a.1.1 0 0 0-.008.044c0 .066.063.12.14.12a.141.141 0 0 0 .134-.084c.001.001.014-.043.019-.043.003 0 .003.047.006.047.009.06.069.101.138.101.078 0 .14-.053.14-.12 0-.005 0-.01-.002-.014l.044-.04.024.05a.106.106 0 0 0-.013.052c0 .064.06.115.133.115.047 0 .087-.02.11-.05l.03-.034v.041c0 .039.017.075.06.081 0 0 .048.004.115-.043a.68.68 0 0 0 .1-.086l.004.048s-.064.096-.122.125a.205.205 0 0 1-.119.029.112.112 0 0 1-.084-.07.21.21 0 0 1-.1.026c-.08 0-.15-.04-.178-.098a.206.206 0 0 1-.146.056.215.215 0 0 1-.158-.066.208.208 0 0 1-.137.05.21.21 0 0 1-.166-.08.213.213 0 0 1-.169.08.208.208 0 0 1-.136-.05.214.214 0 0 1-.157.067.206.206 0 0 1-.147-.057c-.028.058-.1.098-.178.098a.205.205 0 0 1-.1-.025.111.111 0 0 1-.085.069c-.037.007-.086-.011-.117-.029-.06-.03-.129-.125-.129-.125l.01-.048s.036.039.1.086c.066.047.115.043.115.043.043-.006.062-.042.062-.08v-.042l.027.033c.024.03.064.051.11.051.075 0 .133-.05.133-.115a.094.094 0 0 0-.012-.052l.024-.05.044.04c-.002.004-.002.009-.002.013 0 .067.062.121.14.121.069 0 .129-.04.139-.101.001 0 .001-.047.005-.047.006 0 .018.044.02.043.018.048.07.083.133.083.077 0 .14-.053.14-.12 0-.015 0-.029-.007-.043l.036-.005h.002Z" fill="#C8B100" stroke="#000" stroke-width=".26"/><path d="M35.193 25.334a3.973 3.973 0 0 0-.962.107c-.016.005-.036-.007-.041-.02-.005-.014.006-.031.022-.036.245-.068.594-.111.981-.111.388 0 .738.043.983.111.016.005.027.022.022.037-.005.012-.025.024-.041.02a3.984 3.984 0 0 0-.964-.108Z" fill="#C8B100" stroke="#000" stroke-width=".26" stroke-linejoin="round"/><path d="M33.91 25.194c-.001.001-.048-.055-.082-.083-.025-.02-.085-.038-.085-.038 0-.01.035-.032.073-.032.023 0 .044.008.056.023l.005-.023s.03.006.044.037c.015.033.007.082.007.082s-.007.023-.018.034Zm.236-.089-.013.075-.176.017-.026-.013.005-.027.133-.099.077.047Z" fill="#C8B100" stroke="#000" stroke-width=".26"/><path d="M33.912 25.165c.015-.013.045-.01.066.007.023.017.03.044.015.057-.015.015-.045.012-.066-.007-.023-.017-.03-.043-.015-.057Zm.322.015c-.008-.02 0-.042.016-.048.017-.003.038.01.046.031.008.022 0 .043-.017.048-.017.005-.037-.01-.045-.03Zm.084-.096.064.055.153-.075.012-.024-.022-.02-.175-.013-.032.077Z" fill="#C8B100" stroke="#000" stroke-width=".26"/><path d="m34.493 24.825-.084.073.108.13.029.01.021-.02.038-.157-.112-.036Z" fill="#C8B100" stroke="#000" stroke-width=".26"/><path d="m34.779 25-.033.072-.176-.015-.022-.018.012-.025.153-.073.066.06Z" fill="#C8B100" stroke="#000" stroke-width=".26"/><path d="M34.547 25.094c.034 0 .061-.024.061-.054s-.027-.053-.061-.053-.062.023-.062.053.028.054.062.054Zm.297-.02c-.003-.023.01-.042.027-.044.017-.003.035.015.037.037.004.022-.008.043-.026.044-.018.002-.035-.015-.038-.037Zm.114-.081.05.065.168-.048.018-.02-.019-.023-.167-.044-.05.07Z" fill="#C8B100" stroke="#000" stroke-width=".26"/><path d="m35.193 24.755-.108.06.08.157.028.016.028-.016.08-.158-.108-.059Z" fill="#C8B100" stroke="#000" stroke-width=".26"/><path d="m35.43 24.993-.05.065-.168-.048-.018-.02.018-.023.168-.044.05.07Z" fill="#C8B100" stroke="#000" stroke-width=".26"/><path d="M35.193 25.043c.034 0 .062-.023.062-.053s-.028-.054-.062-.054-.061.024-.061.054.027.053.061.053Zm.357.031c.003-.023-.01-.042-.027-.044-.017-.003-.035.015-.037.037-.003.022.008.043.026.044.017.002.035-.015.039-.037Zm.062-.074.033.072.175-.015.023-.018-.013-.025-.152-.073-.066.06Z" fill="#C8B100" stroke="#000" stroke-width=".26"/><path d="m35.897 24.825.084.073-.108.13-.03.01-.02-.02-.038-.157.112-.036Z" fill="#C8B100" stroke="#000" stroke-width=".26"/><path d="m36.075 25.084-.064.055-.153-.075-.012-.024.024-.02.175-.013.03.077Z" fill="#C8B100" stroke="#000" stroke-width=".26"/><path d="M35.845 25.094c.034 0 .061-.024.061-.054s-.027-.053-.061-.053-.062.023-.062.053.028.054.062.054Zm.312.086c.008-.02 0-.042-.016-.048-.017-.003-.038.01-.046.031-.008.022 0 .043.017.048.017.005.037-.01.045-.03Zm.301.014c.002.001.048-.055.083-.083.024-.02.084-.038.084-.038 0-.01-.035-.032-.073-.032a.074.074 0 0 0-.056.023l-.005-.023s-.03.006-.045.037c-.014.033-.004.082-.004.082s.005.023.016.034Zm-.239-.089.014.075.175.017.026-.013-.006-.027-.131-.099-.078.047Z" fill="#C8B100" stroke="#000" stroke-width=".26"/><path d="M36.459 25.165c-.014-.013-.044-.01-.067.007-.023.017-.03.044-.015.057.015.015.045.012.068-.007.022-.017.029-.043.014-.057Z" fill="#C8B100" stroke="#000" stroke-width=".26"/><path d="m34.24 25.57.038-.057.082.015-.048.064-.073-.022Z" fill="#AD1519" stroke="#000" stroke-width=".26"/><path d="m34.59 25.514-.086.013c-.023.002-.044-.01-.048-.03-.002-.02.013-.036.034-.04l.088-.011.09-.013c.022-.002.042.01.046.029a.037.037 0 0 1-.034.04l-.09.012Z" fill="#058E6E" stroke="#000" stroke-width=".26"/><path d="M34.885 25.503c.03 0 .055-.021.055-.047s-.024-.047-.055-.047c-.03 0-.055.021-.055.047s.025.047.055.047Z" fill="#fff" stroke="#000" stroke-width=".26"/><path d="M35.2 25.477h-.12c-.023 0-.042-.016-.042-.036 0-.019.018-.035.04-.035h.246c.024 0 .041.016.041.035 0 .02-.018.036-.04.036H35.2Z" fill="#AD1519" stroke="#000" stroke-width=".26"/><path d="M35.507 25.503c.03 0 .055-.021.055-.047s-.025-.047-.055-.047-.056.021-.056.047.025.047.056.047Z" fill="#fff" stroke="#000" stroke-width=".26"/><path d="m35.801 25.514.087.013c.022.002.044-.01.047-.03.003-.02-.01-.036-.033-.04l-.088-.011-.09-.013c-.022-.002-.043.01-.046.029-.003.02.012.038.034.04l.09.012Z" fill="#058E6E" stroke="#000" stroke-width=".26"/><path d="m36.146 25.574-.032-.06-.084.006.04.067.076-.013Z" fill="#AD1519" stroke="#000" stroke-width=".26"/><path d="M35.193 25.782c-.305 0-.581-.025-.79-.074a3.66 3.66 0 0 1 .79-.08c.306 0 .583.031.794.08-.21.05-.488.074-.794.074Z" fill="#AD1519" stroke="#000" stroke-width=".26" stroke-linejoin="round"/><path d="M35.337 25.773v-.132m-.072.137.001-.14m-.054.142v-.144" stroke="#000" stroke-width=".01"/><path d="M35.167 25.781v-.145" stroke="#000" stroke-width=".02"/><path d="M35.123 25.781v-.145" stroke="#000" stroke-width=".03"/><path d="M35.082 25.781v-.145m-.04.145v-.145" stroke="#000" stroke-width=".04"/><path d="M35.007 25.781v-.145" stroke="#000" stroke-width=".05"/><path d="m34.939 25.773-.002-.131m.034.133v-.137" stroke="#000" stroke-width=".06"/><path d="M34.874 25.767v-.12m.033.124-.002-.129" stroke="#000" stroke-width=".07"/><path d="M34.789 25.76v-.105m.029.107v-.112m.029.116v-.116" stroke="#000" stroke-width=".08"/><path d="M34.76 25.76v-.103" stroke="#000" stroke-width=".09"/><path d="M34.73 25.755v-.097" stroke="#000" stroke-width=".1"/><path d="M34.7 25.751v-.088" stroke="#000" stroke-width=".11"/><path d="m34.639 25.744-.001-.071m.032.075v-.08m-.062.07v-.063" stroke="#000" stroke-width=".12"/><path d="M34.58 25.733v-.052" stroke="#000" stroke-width=".13"/><path d="M34.548 25.726v-.04" stroke="#000" stroke-width=".14"/><path d="M34.517 25.723v-.03" stroke="#000" stroke-width=".15"/><path d="M34.483 25.716v-.015" stroke="#000" stroke-width=".18"/><path d="M37.152 37.697a1.16 1.16 0 0 1-.493-.099 1.181 1.181 0 0 0-.484-.093c-.19 0-.364.036-.49.094-.127.06-.302.099-.492.099-.194 0-.367-.041-.494-.103a1.197 1.197 0 0 0-.475-.09c-.19 0-.359.033-.484.092a1.17 1.17 0 0 1-.496.1v.275a1.2 1.2 0 0 0 .496-.1 1.14 1.14 0 0 1 .484-.093c.182 0 .35.035.475.09.127.061.3.103.494.103.19 0 .365-.037.491-.098.127-.059.301-.096.49-.096.19 0 .36.037.485.095.128.062.297.1.49.1l.003-.276Z" fill="#005BBF" stroke="#000" stroke-width=".39"/><path d="M37.152 37.972a1.16 1.16 0 0 1-.493-.099 1.18 1.18 0 0 0-.484-.095c-.19 0-.364.037-.49.096-.127.06-.302.098-.492.098a1.18 1.18 0 0 1-.494-.102 1.196 1.196 0 0 0-.475-.092c-.19 0-.359.035-.484.094a1.2 1.2 0 0 1-.496.1v.275a1.2 1.2 0 0 0 .496-.1 1.14 1.14 0 0 1 .484-.094c.182 0 .35.036.475.091.127.062.3.103.494.103.19 0 .365-.039.491-.098a1.18 1.18 0 0 1 .49-.096c.19 0 .36.037.485.096.128.06.297.098.49.098l.003-.275Z" fill="#CCC" stroke="#000" stroke-width=".39"/><path d="M37.152 38.247c-.193 0-.365-.038-.493-.098a1.162 1.162 0 0 0-.484-.096c-.19 0-.364.037-.49.096-.127.06-.302.098-.492.098-.194 0-.367-.041-.494-.103a1.196 1.196 0 0 0-.475-.09c-.19 0-.359.033-.484.093a1.2 1.2 0 0 1-.496.1v.274a1.2 1.2 0 0 0 .496-.1c.125-.059.293-.092.484-.092.182 0 .35.034.475.09.127.062.3.102.494.102.19 0 .365-.037.491-.097.127-.06.301-.095.49-.095.19 0 .36.035.485.094.128.062.297.098.49.098l.003-.274Z" fill="#005BBF" stroke="#000" stroke-width=".39"/><path d="M37.15 38.797c-.194 0-.363-.038-.49-.1a1.183 1.183 0 0 0-.485-.093c-.19 0-.364.035-.49.095a1.202 1.202 0 0 1-.492.098 1.17 1.17 0 0 1-.494-.103 1.176 1.176 0 0 0-.475-.09c-.19 0-.359.033-.484.092a1.2 1.2 0 0 1-.496.1v-.273c.192 0 .368-.041.496-.103.125-.058.293-.09.484-.09.182 0 .35.033.475.09.127.06.3.1.494.1.19 0 .365-.036.491-.096.127-.06.301-.095.49-.095.19 0 .36.035.485.094.128.062.3.098.493.098l-.002.276Z" fill="#CCC" stroke="#000" stroke-width=".39"/><path d="M37.15 39.071c-.194 0-.363-.037-.49-.098a1.163 1.163 0 0 0-.485-.096c-.19 0-.364.037-.49.096-.127.06-.302.098-.492.098a1.17 1.17 0 0 1-.494-.102 1.175 1.175 0 0 0-.475-.092c-.19 0-.359.035-.484.094a1.2 1.2 0 0 1-.496.1V38.8c.192 0 .368-.042.496-.103.125-.06.293-.092.484-.092.182 0 .35.034.475.09.127.06.3.102.494.102.19 0 .365-.038.491-.097.127-.06.301-.095.49-.095.19 0 .36.035.485.093.128.062.299.1.493.1l-.002.274Z" fill="#005BBF" stroke="#000" stroke-width=".39"/><path d="M34.097 36.569c.006.024.016.046.016.07 0 .167-.16.3-.352.3h2.878c-.195 0-.353-.133-.353-.3a.29.29 0 0 1 .011-.07.174.174 0 0 1-.055.007h-2.094a.194.194 0 0 1-.051-.007Z" fill="#C8B100" stroke="#000" stroke-width=".39" stroke-linejoin="round"/><path d="M34.148 36.397h2.094c.072 0 .128.04.128.089 0 .049-.056.09-.128.09h-2.094c-.07 0-.128-.041-.128-.09 0-.05.058-.09.128-.09Zm-.384 1.207h2.87v-.664h-2.87v.664Z" fill="#C8B100" stroke="#000" stroke-width=".39"/><path d="M34.175 36.288h2.039v-9.077h-2.04v9.078Z" fill="#CCC" stroke="#000" stroke-width=".39"/><path d="M35.63 27.223v9.059m.23-9.059v9.059" stroke="#000" stroke-width=".39"/><path d="M33.804 26.49H36.6v-.665h-2.796v.665Z" fill="#C8B100" stroke="#000" stroke-width=".39"/><path d="M34.097 26.934a.123.123 0 0 1 .052-.008h2.094a.17.17 0 0 1 .057.009c-.072-.022-.124-.081-.124-.15 0-.07.057-.13.13-.152a.263.263 0 0 1-.062.009h-2.095a.194.194 0 0 1-.06-.007l.012.002c.075.02.118.081.118.147a.162.162 0 0 1-.122.15Z" fill="#C8B100" stroke="#000" stroke-width=".39" stroke-linejoin="round"/><path d="M34.148 26.926h2.094c.072 0 .128.04.128.089 0 .05-.056.09-.128.09H34.15c-.07 0-.129-.04-.129-.09 0-.05.058-.09.128-.09Zm0-.436h2.096c.071 0 .129.034.129.076 0 .042-.058.076-.13.076h-2.095c-.07 0-.128-.034-.128-.076 0-.042.058-.076.128-.076Z" fill="#C8B100" stroke="#000" stroke-width=".39"/><path d="M36.86 34.043c.284.148.478.3.446.377-.015.07-.105.122-.234.2-.204.128-.327.358-.23.464a.637.637 0 0 1-.275-.512c0-.214.113-.406.294-.53Z" fill="#AD1519" stroke="#000" stroke-width=".39"/><path d="M32.102 30.606c.444-.167 1.2-.291 2.069-.317.3.002.632.028.977.08 1.22.185 2.15.628 2.075.988l-.006.03s.456-.936.464-.972c.082-.4-.948-.891-2.302-1.096a7.586 7.586 0 0 0-1.2-.087c-.865 0-1.618.101-2.072.254l-.005 1.12Z" fill="#AD1519" stroke="#000" stroke-width=".39" stroke-linejoin="round"/><path d="M36.227 31.746c.566-.037.951-.175.996-.39.036-.17-.156-.36-.498-.533-.151.016-.323.035-.502.035l.004.888Zm-2.045-.695c-.354.05-.619.13-.75.227l-.013.02c-.063.117.247.367.767.646l-.004-.893Z" fill="#AD1519" stroke="#000" stroke-width=".39"/><path d="M37.494 33.497c.054-.146-.498-.44-1.277-.7-.356-.115-.65-.236-1.015-.382-1.082-.436-1.882-.935-1.784-1.116l.011-.02c-.057.044-.148.94-.148.94-.097.166.634.659 1.631 1.092.32.139.993.365 1.31.466.57.179 1.134.518 1.083.643l.19-.922v-.001Z" fill="#AD1519" stroke="#000" stroke-width=".39" stroke-linejoin="round"/><path d="M15.32 30.17c.25-.082.413-.18.334-.358-.051-.114-.18-.136-.373-.072l-.34.113.307.688c.034-.014.067-.028.101-.04l.107-.029-.136-.3v-.002Zm-.148-.332.087-.028c.072-.024.152.011.188.091.027.06.02.129-.063.177-.026.015-.057.026-.087.037l-.125-.277Zm.948-.287a1.52 1.52 0 0 1-.108.025c-.037.006-.074.01-.11.014l.176.716.55-.1c-.006-.014-.015-.03-.018-.044-.003-.016-.003-.032-.005-.047a3.947 3.947 0 0 1-.327.076l-.158-.64Zm1.1.617c.104-.26.23-.509.354-.76a.711.711 0 0 1-.136.008 6.142 6.142 0 0 1-.235.547c-.102-.172-.217-.341-.305-.515l-.129.014c-.042.003-.087.001-.13.003.158.234.31.468.457.71l.062-.01.063.003Zm1.15-.551c.018-.035.038-.068.06-.101a.478.478 0 0 0-.228-.072c-.224-.02-.352.07-.367.193-.033.257.415.236.394.407-.01.073-.094.102-.186.094-.102-.009-.177-.06-.19-.135L17.827 30a.822.822 0 0 1-.06.131c.066.04.152.06.232.068.23.021.404-.062.42-.199.029-.245-.423-.259-.405-.403.007-.06.059-.1.176-.09.084.008.135.049.158.108l.022.002Zm15.002.591c.078-.266.177-.522.275-.783a.643.643 0 0 1-.134.018c-.047.187-.11.375-.179.563-.12-.164-.25-.324-.355-.49-.042.008-.085.017-.128.023-.042.005-.086.008-.13.012.182.221.358.444.527.674.02-.005.04-.012.063-.014.02-.002.041-.002.061-.003Zm.773-.778c-.036.001-.074.005-.11.004-.037 0-.075-.005-.112-.007l-.015.73.564.01a.2.2 0 0 1-.008-.047c0-.015.005-.03.009-.046-.102.006-.21.012-.34.01l.012-.654Zm.885.12c.09.007.177.022.264.035-.001-.015-.004-.03-.003-.046.002-.015.008-.03.013-.045l-.762-.057c.002.016.004.03.003.046s-.008.03-.013.045a2.73 2.73 0 0 1 .278.006l-.067.658a1.347 1.347 0 0 1 .22.016l.067-.658Zm.314.72c.036.006.074.01.11.018.035.006.072.017.107.026l.09-.335h.01c.02.047.048.103.062.136l.113.253c.045.007.089.013.131.021.046.01.088.02.13.032l-.038-.076c-.06-.114-.124-.23-.177-.345.14.005.248-.04.276-.143.019-.071-.012-.127-.085-.175-.055-.035-.16-.053-.23-.068l-.306-.06-.193.716Zm.394-.617c.089.018.2.03.2.122a.27.27 0 0 1-.008.054c-.03.107-.118.144-.267.104l.075-.28Zm1.057.837c-.007.08-.023.157-.04.24.038.016.077.03.114.05.037.018.071.039.108.06l.075-.825a.379.379 0 0 1-.098-.049l-.8.462c.02.009.043.018.063.028.022.01.04.022.06.032.067-.051.137-.093.218-.148l.3.15Zm-.227-.189.267-.156-.032.274-.235-.118Z" fill="#C8B100"/><path d="M25.763 20.83c.833 0 1.576.113 2.06.286.275.114.646.197 1.053.248.31.037.603.044.86.027.342-.007.836.084 1.332.283.409.165.751.366.978.56l-.197.159-.056.451-.54.561-.27.209-.638.464-.326.024-.1.256-4.128-.44-4.143.44-.099-.256-.328-.024-.637-.464-.27-.209-.54-.56-.054-.452-.198-.16c.228-.193.57-.394.978-.56.496-.198.99-.289 1.332-.282.256.017.55.01.86-.027.406-.05.778-.134 1.054-.248.484-.173 1.184-.286 2.017-.286Z" fill="#AD1519" stroke="#000" stroke-width=".26"/><path d="m22.713 21.822.174.126.26-.387c-.282-.157-.476-.431-.476-.742 0-.036.002-.07.007-.104.027-.495.69-.903 1.53-.903.438 0 .833.108 1.11.283.008-.077.015-.143.026-.212a2.454 2.454 0 0 0-1.135-.26c-.967 0-1.724.5-1.76 1.09a.97.97 0 0 0-.007.106c0 .314.159.6.41.797l-.139.206Z" fill="#C8B100" stroke="#000" stroke-width=".39"/><path d="M22.725 21.826c-.33-.224-.536-.529-.536-.864 0-.385.279-.73.7-.959-.26.19-.417.437-.44.71a.995.995 0 0 0-.006.106c0 .314.158.6.409.797l-.127.21Z" fill="#C8B100" stroke="#000" stroke-width=".39"/><path d="M19.811 22.218a.992.992 0 0 1-.298-.698c0-.16.041-.314.114-.45.267-.5 1.106-.864 2.103-.864.27 0 .53.027.77.077-.053.052-.094.11-.136.169a3.653 3.653 0 0 0-.634-.055c-.913 0-1.677.323-1.897.758a.774.774 0 0 0-.092.365c0 .264.137.501.35.663l-.33.49-.177-.127.227-.328Z" fill="#C8B100" stroke="#000" stroke-width=".39"/><path d="M20.148 20.575c-.24.138-.421.306-.521.495a.955.955 0 0 0-.115.45c0 .265.113.51.299.697l-.2.296a1.17 1.17 0 0 1-.304-.764c0-.479.335-.897.841-1.174Zm5.666-1.05c.22 0 .412.132.457.311.029.157.047.336.051.527.001.02-.001.04-.001.059 0 .023.005.047.006.07.008.4.07.754.16.97l-.673.587-.681-.586c.09-.217.153-.57.162-.972 0-.022.005-.046.005-.069l-.002-.06a3.31 3.31 0 0 1 .052-.526c.045-.179.243-.311.464-.311Z" fill="#C8B100" stroke="#000" stroke-width=".39"/><path d="M25.813 19.715c.114 0 .21.066.235.159.028.149.046.319.05.499l-.002.055c0 .023.004.044.006.067.006.378.066.712.151.918l-.444.382-.444-.382c.084-.206.144-.54.152-.918 0-.023.005-.044.005-.067l-.001-.055c.003-.18.02-.35.05-.5.022-.092.128-.158.242-.158Zm3.093 2.107-.175.126-.26-.387c.283-.157.477-.431.477-.742a.713.713 0 0 0-.007-.104c-.027-.495-.69-.903-1.53-.903-.439 0-.833.108-1.11.283a2.57 2.57 0 0 0-.028-.212 2.46 2.46 0 0 1 1.137-.26c.967 0 1.724.5 1.76 1.09.004.036.007.07.007.106 0 .314-.16.6-.41.797l.139.206Z" fill="#C8B100" stroke="#000" stroke-width=".39"/><path d="M28.895 21.826c.33-.224.536-.529.536-.864 0-.385-.279-.73-.7-.959.26.19.417.437.44.71a.97.97 0 0 1 .006.106c0 .314-.16.6-.41.797l.128.21Z" fill="#C8B100" stroke="#000" stroke-width=".39"/><path d="M31.81 22.218a.997.997 0 0 0 .298-.698.955.955 0 0 0-.114-.45c-.268-.5-1.106-.864-2.102-.864-.271 0-.531.027-.772.077.054.052.095.11.137.169.198-.036.412-.055.634-.055.913 0 1.675.323 1.896.758a.76.76 0 0 1 .092.365.837.837 0 0 1-.35.663l.33.49.178-.127-.227-.328Z" fill="#C8B100" stroke="#000" stroke-width=".39"/><path d="M31.47 20.575c.24.138.422.306.523.495a.96.96 0 0 1 .114.45c0 .265-.114.51-.299.697l.2.296a1.17 1.17 0 0 0 .303-.764c0-.479-.335-.897-.84-1.174Z" fill="#C8B100" stroke="#000" stroke-width=".39"/><path d="M25.813 19.551c.307 0 .556-.214.556-.479 0-.264-.249-.479-.556-.479-.306 0-.555.215-.555.48 0 .264.248.478.555.478Z" fill="#005BBF" stroke="#000" stroke-width=".26"/><path d="M25.668 17.732v.257h-.304v.262h.304v.754h-.383c-.003.024-.027.042-.027.067 0 .066.015.13.044.187 0 .002.002.002.003.004h1.02c0-.002.002-.002.003-.004a.43.43 0 0 0 .044-.187c0-.025-.024-.043-.028-.067h-.371v-.754h.303v-.262h-.303v-.257h-.305Z" fill="#C8B100" stroke="#000" stroke-width=".26"/><path d="M25.808 21.744c.132 0 .24-.091.24-.205 0-.113-.108-.205-.24-.205-.133 0-.24.092-.24.205 0 .113.107.205.24.205Z" fill="#fff" stroke="#000" stroke-width=".39"/><path d="M25.808 21.34c.132 0 .24-.091.24-.204 0-.114-.108-.206-.24-.206-.133 0-.24.092-.24.206 0 .113.107.205.24.205Zm0-.473c.105 0 .19-.074.19-.165 0-.09-.085-.164-.19-.164s-.19.074-.19.165c0 .09.085.164.19.164Zm.004-.436c.076 0 .138-.053.138-.119 0-.065-.062-.118-.138-.118-.076 0-.138.053-.138.119 0 .065.062.118.138.118Zm-.002-.366c.062 0 .111-.042.111-.094 0-.053-.05-.095-.11-.095-.061 0-.11.042-.11.095 0 .052.049.094.11.094Zm-6.412 2.702c.076 0 .138-.053.138-.119 0-.065-.062-.118-.138-.118-.076 0-.138.053-.138.118 0 .066.062.119.138.119Zm-.188-.302c.075 0 .137-.053.137-.119 0-.065-.062-.118-.138-.118-.076 0-.138.053-.138.118 0 .066.062.119.138.119Zm-.126-.351c.076 0 .138-.053.138-.119 0-.065-.062-.118-.138-.118-.076 0-.138.053-.138.118 0 .066.062.119.138.119Zm-.015-.376c.076 0 .138-.053.138-.119 0-.065-.062-.119-.138-.119-.076 0-.138.054-.138.119 0 .066.061.119.138.119Zm.101-.37c.075 0 .137-.053.137-.118 0-.066-.061-.119-.138-.119-.076 0-.138.053-.138.119 0 .065.062.118.138.118Zm.212-.336c.076 0 .138-.053.138-.119 0-.065-.062-.118-.138-.118-.076 0-.138.053-.138.118 0 .066.062.119.138.119Zm.283-.277c.077 0 .138-.053.138-.119 0-.065-.061-.118-.138-.118-.076 0-.138.053-.138.118 0 .066.062.119.138.119Zm.329-.229c.077 0 .139-.053.139-.119 0-.065-.062-.118-.139-.118-.076 0-.137.053-.137.118 0 .066.061.119.137.119Zm.39-.188c.076 0 .138-.053.138-.119 0-.065-.062-.118-.138-.118-.076 0-.138.053-.138.118 0 .066.062.119.138.119Zm.409-.134c.076 0 .138-.053.138-.118 0-.066-.062-.119-.138-.119-.076 0-.138.053-.138.119 0 .065.062.118.138.118Zm.452-.074c.076 0 .138-.053.138-.118 0-.066-.062-.119-.138-.119-.076 0-.138.053-.138.119 0 .065.062.118.138.118Zm.433-.02c.076 0 .138-.053.138-.119 0-.065-.062-.118-.138-.118-.076 0-.138.053-.138.118 0 .066.062.119.138.119Zm.421.013c.076 0 .138-.053.138-.118 0-.066-.062-.119-.138-.119-.076 0-.138.053-.138.119 0 .065.062.118.138.118Zm.47 1.692c.076 0 .138-.053.138-.118 0-.066-.062-.119-.138-.119-.077 0-.138.053-.138.119 0 .065.061.118.138.118Zm-.236-.305c.077 0 .138-.052.138-.118 0-.065-.061-.118-.138-.118-.076 0-.138.053-.138.118 0 .066.062.119.138.119Zm-.122-.33c.077 0 .138-.053.138-.118 0-.066-.061-.119-.138-.119-.076 0-.138.053-.138.119 0 .065.062.118.138.118Zm.013-.362c.076 0 .138-.053.138-.119s-.062-.119-.138-.119c-.076 0-.138.054-.138.119 0 .066.062.119.138.119Zm.088-.365c.076 0 .138-.053.138-.119 0-.065-.062-.118-.138-.118-.076 0-.138.053-.138.118 0 .066.062.119.138.119Zm.21-.33c.076 0 .138-.053.138-.118 0-.066-.062-.119-.138-.119-.076 0-.138.053-.138.119 0 .065.061.118.138.118Zm.322-.229c.076 0 .138-.053.138-.118 0-.066-.062-.119-.138-.119-.076 0-.138.053-.138.119 0 .065.062.118.138.118Zm.376-.189c.075 0 .137-.053.137-.118 0-.066-.062-.12-.138-.12-.076 0-.138.054-.138.12 0 .065.062.118.138.118Zm.413-.113c.076 0 .138-.053.138-.118 0-.066-.062-.119-.138-.119-.076 0-.138.053-.138.119 0 .065.062.118.138.118Zm.432-.067c.076 0 .138-.053.138-.119 0-.065-.062-.118-.138-.118-.077 0-.138.053-.138.118 0 .066.061.119.138.119Zm.422.005c.077 0 .138-.053.138-.118 0-.066-.061-.118-.138-.118-.076 0-.138.052-.138.118s.062.119.138.119Zm.439.068c.076 0 .138-.053.138-.119 0-.065-.062-.118-.138-.118-.076 0-.138.053-.138.118 0 .066.062.119.138.119Zm.404.128c.077 0 .139-.054.139-.119 0-.066-.062-.119-.138-.119-.077 0-.138.053-.138.119 0 .065.061.119.138.119Zm.95 0c.077 0 .139-.054.139-.119 0-.066-.062-.119-.138-.119-.077 0-.138.053-.138.119 0 .065.061.119.138.119Zm.408-.128c.076 0 .138-.053.138-.119 0-.065-.062-.118-.138-.118-.076 0-.138.053-.138.118 0 .066.062.119.138.119Zm.44-.068c.076 0 .138-.053.138-.118 0-.066-.061-.118-.138-.118-.076 0-.138.052-.138.118s.062.119.138.119Zm.421-.005c.076 0 .138-.053.138-.119 0-.065-.062-.118-.138-.118-.076 0-.138.053-.138.118 0 .066.062.119.138.119Zm.431.067c.077 0 .139-.053.139-.118 0-.066-.062-.119-.138-.119-.077 0-.138.053-.138.119 0 .065.061.118.138.118Zm.415.113c.076 0 .138-.053.138-.118 0-.066-.062-.12-.138-.12-.076 0-.138.054-.138.12 0 .065.062.118.138.118Zm.375.189c.076 0 .138-.053.138-.118 0-.066-.062-.119-.138-.119-.076 0-.138.053-.138.119 0 .065.062.118.138.118Zm.322.229c.076 0 .138-.053.138-.118 0-.066-.062-.119-.138-.119-.076 0-.138.053-.138.119 0 .065.062.118.138.118Zm.21.33c.076 0 .138-.053.138-.119 0-.065-.062-.118-.138-.118-.076 0-.138.053-.138.118 0 .066.062.119.138.119Zm.088.365c.076 0 .138-.053.138-.119s-.062-.119-.138-.119c-.076 0-.138.054-.138.119 0 .066.062.119.138.119Zm.016.362c.076 0 .138-.053.138-.118 0-.066-.062-.119-.138-.119-.077 0-.138.053-.138.119 0 .065.061.118.138.118Zm-.126.33c.076 0 .138-.052.138-.118 0-.065-.062-.118-.138-.118-.077 0-.138.053-.138.118 0 .066.061.119.138.119Zm-.235.305c.076 0 .138-.053.138-.118 0-.066-.062-.119-.138-.119-.076 0-.138.053-.138.119 0 .065.062.118.138.118Zm.47-1.692c.076 0 .138-.053.138-.118 0-.066-.062-.119-.138-.119-.076 0-.138.053-.138.119 0 .065.062.118.138.118Zm.423-.013c.076 0 .138-.053.138-.119 0-.065-.062-.118-.138-.118-.076 0-.138.053-.138.118 0 .066.062.119.138.119Zm.432.02c.076 0 .137-.053.137-.118 0-.066-.061-.119-.138-.119-.076 0-.138.053-.138.119 0 .065.062.118.138.118Zm.454.074c.076 0 .138-.053.138-.118 0-.066-.062-.119-.138-.119-.077 0-.139.053-.139.119 0 .065.062.118.139.118Zm.406.134c.076 0 .138-.053.138-.119 0-.065-.062-.118-.138-.118-.076 0-.138.053-.138.118 0 .066.062.119.138.119Zm.392.188c.076 0 .137-.053.137-.119 0-.065-.061-.118-.137-.118-.077 0-.139.053-.139.118 0 .066.062.119.139.119Zm.328.229c.077 0 .139-.053.139-.119 0-.065-.062-.118-.138-.118-.077 0-.139.053-.139.118 0 .066.062.119.139.119Zm.282.277c.076 0 .138-.053.138-.119 0-.065-.062-.118-.138-.118-.076 0-.138.053-.138.118 0 .066.062.119.138.119Zm.211.336c.076 0 .138-.053.138-.118 0-.066-.062-.119-.138-.119-.076 0-.138.053-.138.119 0 .065.062.118.138.118Zm.102.37c.076 0 .138-.053.138-.119 0-.065-.062-.119-.138-.119-.076 0-.138.054-.138.119 0 .066.062.119.138.119Zm-.015.376c.076 0 .137-.053.137-.119 0-.065-.061-.118-.138-.118-.076 0-.138.053-.138.118 0 .066.062.119.139.119Zm-.125.351c.076 0 .138-.053.138-.119 0-.065-.062-.118-.138-.118-.077 0-.138.053-.138.118 0 .066.061.119.138.119Zm-.189.302c.077 0 .138-.053.138-.119 0-.065-.061-.118-.138-.118-.076 0-.138.053-.138.118 0 .066.062.119.138.119Z" fill="#fff" stroke="#000" stroke-width=".39"/><path d="M25.822 25.785c-1.538-.003-2.917-.168-3.9-.437a.138.138 0 0 1-.106-.143c0-.059.037-.114.106-.133.983-.269 2.362-.434 3.9-.437 1.54.003 2.917.168 3.901.437.07.02.105.074.104.133a.138.138 0 0 1-.104.143c-.984.269-2.361.434-3.9.437Z" fill="#C8B100" stroke="#000" stroke-width=".39"/><path d="M25.814 24.634c-1.557.004-2.955.18-3.938.456.081-.035.074-.128-.028-.365-.123-.288-.314-.276-.314-.276 1.087-.291 2.601-.474 4.286-.476 1.686.002 3.212.185 4.3.477 0 0-.192-.013-.315.275-.102.237-.11.33-.026.365-.984-.276-2.408-.452-3.965-.456Z" fill="#C8B100" stroke="#000" stroke-width=".39"/><path d="M25.821 23.974c-1.685.003-3.199.185-4.285.477-.073.02-.15-.006-.174-.069-.023-.062.016-.134.088-.154 1.093-.304 2.645-.495 4.371-.499 1.728.004 3.286.195 4.379.5.073.019.112.09.088.153-.024.063-.1.088-.173.069-1.088-.292-2.607-.474-4.294-.477Z" fill="#C8B100" stroke="#000" stroke-width=".39"/><path d="m25.832 22.775.154.025a.476.476 0 0 0-.03.186c0 .293.277.53.617.53.274 0 .507-.154.586-.366.01.006.06-.192.086-.19.02.003.018.206.027.203.039.266.309.447.611.447.34 0 .616-.237.616-.53a.385.385 0 0 0-.005-.065l.193-.173.104.221a.444.444 0 0 0-.057.232c0 .28.263.506.588.506a.616.616 0 0 0 .49-.225l.124-.142-.002.174c0 .177.083.334.271.363 0 0 .218.011.506-.194.287-.205.446-.375.446-.375l.025.205s-.239.336-.498.473c-.144.075-.36.154-.531.129a.504.504 0 0 1-.378-.312.942.942 0 0 1-.445.11c-.353 0-.669-.175-.793-.44a.913.913 0 0 1-.653.257.95.95 0 0 1-.698-.292.956.956 0 0 1-.613.213.932.932 0 0 1-.745-.348.932.932 0 0 1-.745.348.952.952 0 0 1-.611-.213.953.953 0 0 1-.7.292.91.91 0 0 1-.651-.257c-.126.265-.442.44-.793.44a.938.938 0 0 1-.446-.11.506.506 0 0 1-.379.312c-.17.025-.386-.054-.53-.129-.26-.137-.498-.473-.498-.473l.025-.205s.159.17.446.375c.288.206.505.194.505.194.19-.029.27-.186.27-.363v-.174l.124.142a.618.618 0 0 0 .489.225c.325 0 .588-.226.588-.506a.444.444 0 0 0-.057-.232l.104-.22.193.172c-.002.022-.005.044-.005.065 0 .293.276.53.616.53.304 0 .572-.18.612-.447.008.003.006-.2.028-.202.025-.003.075.195.084.189.08.212.312.366.587.366.34 0 .616-.237.616-.53a.434.434 0 0 0-.03-.186l.162-.025Z" fill="#C8B100" stroke="#000" stroke-width=".39"/><path d="M20.582 23.52a.256.256 0 0 0-.09-.12c-.099-.078-.23-.09-.296-.029a.115.115 0 0 0-.021.029s-.14-.237-.303-.317c-.161-.08-.437-.06-.437-.06 0-.182.163-.329.375-.329.124 0 .24.047.31.127l.03-.123s.17.031.248.208c.078.177-.007.433-.007.433s.042-.11.106-.183.227-.153.313-.19c.084-.035.172-.09.172-.09s.003.02.006.07c.004.058-.002.095-.002.095.156-.02.338.004.481.054a.606.606 0 0 1-.329.262s.056.041.104.086a.517.517 0 0 1 .056.056l-.16.021c-.054.006-.23.032-.337.026a2.156 2.156 0 0 1-.218-.026Z" fill="#C8B100" stroke="#000" stroke-width=".39"/><path d="M20.197 23.371c.065-.061.197-.049.296.029.1.076.128.189.064.25-.064.06-.197.047-.296-.03-.099-.077-.128-.189-.064-.249Z" fill="#AD1519" stroke="#000" stroke-width=".39"/><path d="M21.589 23.474c-.035-.095-.004-.188.071-.209.075-.022.166.038.2.132.036.095.005.188-.07.21-.076.02-.165-.039-.201-.133Z" fill="#fff" stroke="#000" stroke-width=".39"/><path d="M22.81 23.012a.208.208 0 0 1-.085-.123c-.01-.05.002-.1.03-.14 0 0-.111-.05-.23-.079a1.605 1.605 0 0 0-.298-.023c-.047-.002-.144-.003-.144-.003a.69.69 0 0 0 .098.148.658.658 0 0 0-.38.238.746.746 0 0 0 .451.11s-.015.04-.025.099c-.007.049-.007.07-.007.07l.134-.045c.044-.015.193-.063.27-.11.1-.061.186-.142.186-.142Z" fill="#C8B100" stroke="#000" stroke-width=".39"/><path d="M22.755 21.848a.62.62 0 0 1 .289.345s.016-.028.089-.067c.074-.037.136-.036.136-.036s-.02.11-.031.15c-.011.039-.011.158-.04.265a.853.853 0 0 1-.08.191.267.267 0 0 0-.197-.047.236.236 0 0 0-.166.103s-.083-.066-.152-.157c-.069-.093-.117-.203-.142-.237-.026-.035-.09-.131-.09-.131s.06-.021.143-.006c.084.014.11.036.11.036a.543.543 0 0 1 .131-.409Z" fill="#C8B100" stroke="#000" stroke-width=".39"/><path d="M23.168 22.957c.027-.04.04-.09.03-.14a.195.195 0 0 0-.083-.122s.084-.08.185-.143c.075-.047.226-.094.27-.109l.134-.045s0 .02-.008.07c-.01.058-.025.098-.025.098a.736.736 0 0 1 .453.112.663.663 0 0 1-.381.237s.028.032.062.085a.553.553 0 0 1 .035.063l-.144-.003c-.048 0-.207-.001-.297-.023a1.436 1.436 0 0 1-.231-.078" fill="#C8B100"/><path d="M23.168 22.957c.027-.04.04-.09.03-.14a.195.195 0 0 0-.083-.122s.084-.08.185-.143c.075-.047.226-.094.27-.109l.134-.045s0 .02-.008.07c-.01.058-.025.098-.025.098a.736.736 0 0 1 .453.112.663.663 0 0 1-.381.237s.028.032.062.085a.553.553 0 0 1 .035.063l-.144-.003c-.048 0-.207-.001-.297-.023a1.436 1.436 0 0 1-.231-.078" stroke="#000" stroke-width=".39"/><path d="M22.965 23.086c.15 0 .272-.105.272-.235s-.122-.235-.272-.235c-.15 0-.273.106-.273.235 0 .13.122.235.273.235Z" fill="#AD1519" stroke="#000" stroke-width=".39"/><path d="M24.27 23.002c-.014-.1.039-.186.117-.194.078-.008.154.065.168.164.013.098-.038.186-.117.194-.078.008-.153-.065-.168-.164Z" fill="#fff" stroke="#000" stroke-width=".39"/><path d="M25.617 22.78a.218.218 0 0 1-.066-.151c0-.057.024-.11.064-.15 0 0-.112-.077-.237-.128-.097-.04-.274-.067-.326-.077l-.161-.027s.005.023.025.076c.025.064.05.107.05.107a.792.792 0 0 0-.478.2c.12.107.294.19.478.2 0 0-.025.04-.05.106-.02.052-.025.076-.025.076l.16-.027c.053-.01.23-.037.327-.077a1.75 1.75 0 0 0 .24-.126" fill="#C8B100"/><path d="M25.617 22.78a.218.218 0 0 1-.066-.151c0-.057.024-.11.064-.15 0 0-.112-.077-.237-.128-.097-.04-.274-.067-.326-.077l-.161-.027s.005.023.025.076c.025.064.05.107.05.107a.792.792 0 0 0-.478.2c.12.107.294.19.478.2 0 0-.025.04-.05.106-.02.052-.025.076-.025.076l.16-.027c.053-.01.23-.037.327-.077a1.75 1.75 0 0 0 .24-.126" stroke="#000" stroke-width=".39"/><path d="M25.82 21.473c.133.108.233.27.245.436 0 0 .024-.031.115-.06.091-.03.16-.02.16-.02s-.049.12-.069.163c-.021.042-.049.174-.105.288a.963.963 0 0 1-.132.2.294.294 0 0 0-.21-.085.292.292 0 0 0-.209.086s-.076-.087-.132-.2c-.056-.115-.084-.247-.105-.29-.021-.041-.07-.161-.07-.161s.07-.012.16.018.116.06.116.06a.654.654 0 0 1 .237-.435Z" fill="#C8B100" stroke="#000" stroke-width=".39"/><path d="M26.025 22.78a.212.212 0 0 0 .067-.151.213.213 0 0 0-.064-.15s.112-.077.238-.128c.096-.04.273-.067.327-.077l.158-.027s-.003.023-.024.076a.849.849 0 0 1-.05.107.792.792 0 0 1 .478.2.798.798 0 0 1-.479.2s.026.04.05.106c.02.052.025.076.025.076l-.159-.027c-.053-.01-.23-.037-.326-.077a1.703 1.703 0 0 1-.24-.126" fill="#C8B100"/><path d="M26.025 22.78a.212.212 0 0 0 .067-.151.213.213 0 0 0-.064-.15s.112-.077.238-.128c.096-.04.273-.067.327-.077l.158-.027s-.003.023-.024.076a.849.849 0 0 1-.05.107.792.792 0 0 1 .478.2.798.798 0 0 1-.479.2s.026.04.05.106c.02.052.025.076.025.076l-.159-.027c-.053-.01-.23-.037-.326-.077a1.703 1.703 0 0 1-.24-.126" stroke="#000" stroke-width=".39"/><path d="M25.823 22.864c.15 0 .272-.105.272-.235s-.121-.235-.272-.235c-.15 0-.272.105-.272.235s.122.235.272.235Z" fill="#AD1519" stroke="#000" stroke-width=".39"/><path d="M27.384 23.002c.014-.1-.038-.186-.117-.194-.079-.008-.154.065-.168.164-.014.098.039.186.117.194.079.008.154-.065.168-.164Z" fill="#fff" stroke="#000" stroke-width=".39"/><path d="M28.488 22.957a.19.19 0 0 1-.031-.14.202.202 0 0 1 .084-.122s-.084-.08-.184-.143c-.077-.047-.226-.094-.271-.109l-.133-.045s-.002.02.007.07c.01.058.024.098.024.098a.734.734 0 0 0-.452.112.66.66 0 0 0 .38.237s-.028.032-.061.085a.395.395 0 0 0-.035.063l.143-.003c.048 0 .208-.001.297-.023.12-.028.231-.078.231-.078" fill="#C8B100"/><path d="M28.488 22.957a.19.19 0 0 1-.031-.14.202.202 0 0 1 .084-.122s-.084-.08-.184-.143c-.077-.047-.226-.094-.271-.109l-.133-.045s-.002.02.007.07c.01.058.024.098.024.098a.734.734 0 0 0-.452.112.66.66 0 0 0 .38.237s-.028.032-.061.085a.395.395 0 0 0-.035.063l.143-.003c.048 0 .208-.001.297-.023.12-.028.231-.078.231-.078" stroke="#000" stroke-width=".39"/><path d="M28.902 21.848a.626.626 0 0 0-.29.345s-.015-.028-.089-.067c-.072-.037-.136-.036-.136-.036s.021.11.032.15c.012.039.012.158.04.265.028.106.08.191.08.191a.265.265 0 0 1 .196-.047c.075.012.133.05.167.103 0 0 .083-.066.152-.157.068-.093.116-.203.14-.237.027-.035.091-.131.091-.131s-.059-.021-.143-.006c-.084.014-.11.036-.11.036a.54.54 0 0 0-.13-.409Z" fill="#C8B100" stroke="#000" stroke-width=".39"/><path d="M28.843 23.012a.198.198 0 0 0 .084-.123c.011-.05 0-.1-.028-.14 0 0 .11-.05.23-.079.09-.022.25-.023.296-.023l.144-.003s-.007.02-.035.063c-.032.052-.061.085-.061.085a.666.666 0 0 1 .38.238.748.748 0 0 1-.452.11s.014.04.024.099c.008.049.008.07.008.07l-.133-.045c-.046-.015-.195-.063-.271-.11a1.291 1.291 0 0 1-.186-.142Z" fill="#C8B100" stroke="#000" stroke-width=".39"/><path d="M28.69 23.086c.15 0 .272-.105.272-.235s-.121-.235-.272-.235c-.15 0-.272.106-.272.235 0 .13.122.235.272.235Z" fill="#AD1519" stroke="#000" stroke-width=".39"/><path d="M30.065 23.474c.035-.095.004-.188-.071-.209-.076-.022-.166.038-.202.132-.035.095-.004.188.071.21.076.02.166-.039.202-.133Z" fill="#fff" stroke="#000" stroke-width=".39"/><path d="M31.07 23.52a.264.264 0 0 1 .09-.12c.1-.078.232-.09.296-.029.009.008.018.02.023.029 0 0 .138-.237.3-.317.164-.08.44-.06.44-.06 0-.182-.164-.329-.376-.329a.411.411 0 0 0-.31.127l-.03-.123s-.17.031-.247.208c-.078.177.006.433.006.433s-.042-.11-.106-.183-.227-.153-.312-.19a1.32 1.32 0 0 1-.172-.09s-.004.02-.008.07a.585.585 0 0 0 .003.095 1.115 1.115 0 0 0-.48.054c.06.108.175.21.327.262 0 0-.054.041-.104.086a.491.491 0 0 0-.054.056s.106.015.16.021c.053.006.23.032.336.026.078-.005.165-.016.218-.026Z" fill="#C8B100" stroke="#000" stroke-width=".39"/><path d="M31.458 23.371c-.064-.061-.197-.049-.296.029-.1.076-.128.189-.064.25.064.06.197.047.296-.03.099-.077.128-.189.064-.249Z" fill="#AD1519" stroke="#000" stroke-width=".39"/><path d="M25.821 25.6c-1.388 0-2.644-.146-3.598-.37.954-.225 2.21-.362 3.598-.364 1.389.002 2.651.139 3.606.363-.955.225-2.217.37-3.606.372Z" fill="#AD1519" stroke="#000" stroke-width=".39" stroke-linejoin="round"/><path d="M26.813 25.568v-.685m-.379.708.005-.727m-.28.736v-.74" stroke="#000" stroke-width=".05"/><path d="M25.924 25.609v-.749" stroke="#000" stroke-width=".09"/><path d="M25.7 25.609v-.749" stroke="#000" stroke-width=".14"/><path d="M25.49 25.609v-.749" stroke="#000" stroke-width=".18"/><path d="M25.28 25.609v-.749" stroke="#000" stroke-width=".23"/><path d="M25.092 25.609v-.749" stroke="#000" stroke-width=".28"/><path d="m24.737 25.568-.005-.68m.174.689v-.713" stroke="#000" stroke-width=".33"/><path d="M24.407 25.537v-.627m.167.645-.005-.668" stroke="#000" stroke-width=".37"/><path d="M23.967 25.502v-.552m.144.56v-.578m.15.597v-.602" stroke="#000" stroke-width=".42"/><path d="M23.813 25.497v-.533" stroke="#000" stroke-width=".46"/><path d="M23.67 25.47v-.497" stroke="#000" stroke-width=".51"/><path d="M23.516 25.457v-.463" stroke="#000" stroke-width=".56"/><path d="m23.198 25.416-.005-.367m.167.386v-.413" stroke="#000" stroke-width=".6"/><path d="M23.036 25.386v-.324" stroke="#000" stroke-width=".63"/><path d="M22.887 25.36v-.27" stroke="#000" stroke-width=".68"/><path d="M22.726 25.323v-.211" stroke="#000" stroke-width=".73"/><path d="M22.558 25.306v-.158" stroke="#000" stroke-width=".77"/><path d="M22.384 25.27v-.077" stroke="#000" stroke-width=".91"/><path d="M22.055 25.27c.972-.25 2.295-.402 3.764-.404 1.47.002 2.799.155 3.771.403" stroke="#000" stroke-width=".39"/><path d="m21.63 24.756.153-.181.423.049-.338.223-.238-.09Z" fill="#AD1519" stroke="#000" stroke-width=".39"/><path d="M22.547 24.542c0-.066.061-.119.138-.119.077 0 .138.053.138.119 0 .065-.061.118-.138.118-.076 0-.138-.053-.138-.118Z" fill="#fff" stroke="#000" stroke-width=".39"/><path d="m23.754 24.518-.296.03c-.077.009-.147-.037-.156-.102-.01-.065.044-.124.12-.131l.298-.032.304-.032c.075-.008.144.038.153.103.008.065-.046.124-.12.132l-.303.032Z" fill="#058E6E" stroke="#000" stroke-width=".39"/><path d="M24.618 24.322c0-.066.062-.119.138-.119.076 0 .138.053.138.119 0 .065-.062.118-.138.118-.076 0-.138-.053-.138-.118Z" fill="#fff" stroke="#000" stroke-width=".39"/><path d="M25.826 24.414h-.413c-.075 0-.14-.052-.14-.117 0-.066.062-.119.139-.119h.833c.076 0 .138.053.138.119 0 .065-.064.117-.14.117h-.417Z" fill="#AD1519" stroke="#000" stroke-width=".39"/><path d="M26.754 24.322c0-.066.063-.119.138-.119.077 0 .138.053.138.119 0 .065-.061.118-.138.118-.075 0-.138-.053-.138-.118Z" fill="#fff" stroke="#000" stroke-width=".39"/><path d="m27.896 24.518.296.03c.075.009.147-.037.155-.102.01-.065-.045-.124-.12-.131l-.297-.032-.304-.032c-.076-.008-.144.038-.153.103-.01.065.045.124.12.132l.303.032Z" fill="#058E6E" stroke="#000" stroke-width=".39"/><path d="M28.825 24.542c0-.066.061-.119.137-.119.077 0 .139.053.139.119 0 .065-.062.118-.139.118-.076 0-.137-.053-.137-.118Z" fill="#fff" stroke="#000" stroke-width=".39"/><path d="m30.018 24.756-.152-.181-.422.049.337.223.237-.09Z" fill="#AD1519" stroke="#000" stroke-width=".39"/><path d="M25.87 39.254a11.58 11.58 0 0 1-4.636-.974c-1.008-.454-1.677-1.368-1.677-2.416v-3.796h12.6v3.796c0 1.048-.668 1.962-1.677 2.416a11.462 11.462 0 0 1-4.61.974Z" fill="#CCC" stroke="#000" stroke-width=".52"/><path d="M26.174 37.569c.262.072.395.25.395.457 0 .271-.288.476-.665.476-.375 0-.68-.205-.68-.476 0-.204.126-.433.387-.45 0 0-.008-.02-.03-.056l-.08-.076s.098-.017.156.003a.34.34 0 0 1 .097.053s.026-.049.065-.086c.038-.038.088-.06.088-.06s.058.043.076.072c.02.031.032.067.032.067s.052-.04.099-.055a.91.91 0 0 1 .105-.03s-.016.052-.027.079c-.012.026-.018.082-.018.082Z" fill="#FFD691" stroke="#000" stroke-width=".52"/><path d="M25.848 38.797s-.5-.306-.715-.347c-.277-.054-.588-.01-.723-.017.004.003.162.106.231.169.07.062.3.188.43.217.404.093.777-.023.777-.023Zm.143.027s.319-.303.654-.344c.395-.05.655.03.808.066.003 0-.127.056-.196.099-.069.042-.247.179-.52.181-.273.004-.574-.026-.623-.02l-.123.018Z" fill="#058E6E" stroke="#000" stroke-width=".52"/><path d="M25.895 38.45a.554.554 0 0 1-.204-.424.55.55 0 0 1 .205-.423.556.556 0 0 1 .202.423.554.554 0 0 1-.203.424Z" fill="#AD1519" stroke="#000" stroke-width=".52"/><path d="M25.767 39.069s.077-.173.085-.323c.007-.124-.02-.247-.02-.247h.101s.049.132.049.247c0 .117-.023.27-.023.27s-.069.01-.091.02c-.024.01-.1.033-.1.033Z" fill="#058E6E" stroke="#000" stroke-width=".52"/><path d="M25.849 35.861c0 1.5-1.4 2.716-3.143 2.716-1.742 0-3.155-1.216-3.155-2.716v-3.802h6.298v3.802Z" fill="#AD1519" stroke="#000" stroke-width=".52"/><path d="M19.54 35.81c.019.8.37 1.396.719 1.786v-5.64h-.71l-.009 3.854Zm1.387 2.292c.197.095.466.253.756.316l-.019-6.493h-.737v6.177Zm1.406.458c.289.027.503.022.737 0v-6.635h-.737v6.635Zm1.385-.142c.288-.052.614-.215.756-.3v-6.193h-.738l-.018 6.493Zm1.439-.885c.308-.248.596-.811.701-1.454l.018-4.154h-.736l.017 5.608Z" fill="#C8B100" stroke="#000" stroke-width=".52"/><path d="M32.161 32.06v3.801c0 1.5-1.415 2.716-3.158 2.716-1.744 0-3.156-1.216-3.156-2.716v-3.802h6.314Z" fill="#AD1519" stroke="#000" stroke-width=".52"/><path d="M28.658 34.9c.006-.016.015-.03.024-.046l-.535-.54-.21.082-.383-.386.125-.167-.67-.683c-.009.003-.025.003-.034.005l.004.458.22.057v.509l-.22.054-.004.465c.106.03.186.1.219.19l.402.002.064-.19h.593l.062.19h.343Zm-.876-2.11v.184h.346v-.183h-.346Zm-.916 2.323c.08 0 .146-.056.146-.125 0-.07-.066-.127-.146-.127-.081 0-.147.057-.147.127s.066.125.147.125Zm2.006-1.11-.22-.054v-.508l.22-.057v-.22a.324.324 0 0 1-.226-.19h-.336l-.064.19h-.59l-.065-.19h-.387a.345.345 0 0 1-.037.07l.675.68.21-.081.384.387-.126.165.525.53a.283.283 0 0 1 .035-.014l.002-.707Zm-.91-.158-.161.119.222.226.162-.12-.222-.225Zm1.005 4.126c-.156-.008-.283-.103-.316-.23a2.445 2.445 0 0 1-.593-.148l.105-.163c.162.062.334.103.512.126a.323.323 0 0 1 .199-.16v-.64l-.22-.056v-.508l.22-.055v-.871a.116.116 0 0 1-.024-.01l-.5.504.126.164-.384.387-.21-.08-.414.418a.257.257 0 0 1-.013.325c.118.12.254.225.406.313l-.105.164a2.158 2.158 0 0 1-.476-.367.383.383 0 0 1-.326-.057c-.144-.106-.162-.292-.038-.415l.018-.018a1.686 1.686 0 0 1-.166-.57l.215.001c.017.171.064.334.137.487a.434.434 0 0 1 .183.018l.416-.42-.125-.165.384-.387.21.082.5-.505a.239.239 0 0 1-.026-.053l-.347.002-.063.19h-.592l-.064-.19-.406-.002a.323.323 0 0 1-.212.185l-.001.46h-.215v-.458c-.138-.037-.24-.149-.24-.281 0-.131.103-.245.241-.283l.002-.462-.221-.054v-.509l.22-.057v-.462c-.135-.04-.23-.15-.23-.279 0-.163.153-.294.342-.294.153 0 .282.084.328.203h.387l.064-.19h.591l.064.19h.337c.044-.118.17-.201.32-.203l.01.954h-.107v.298h.106l-.003 2.461h-.098v.297h.098l-.006 1.373Zm-.742-2.087-.162-.119-.223.226.162.118.223-.225Zm-1.25-2.102h-.212v.297h.212v-.297Zm1.15 1.3V34.9h-.358v.182h.358Zm-1.33 1.105-.221-.044-.032-.508.22-.066v.292c0 .113.011.219.033.326Zm.183-.63.22.047s.01.328.006.254c-.005-.085.023.255.023.255l-.22.066a1.481 1.481 0 0 1-.03-.318v-.303Zm1.356 1.93.049-.193a1.871 1.871 0 0 1-.523-.238l-.158.126c.185.131.4.237.632.306Zm-.107.165-.163.139a2.517 2.517 0 0 1-.517-.24l.048-.202c.188.129.403.231.633.303Z" fill="#C8B100" stroke="#C8B100" stroke-width=".26"/><path d="M29.284 34.9a.33.33 0 0 0-.023-.046l.534-.54.21.082.383-.386-.125-.167.67-.683c.009.003.025.003.034.005l-.004.458-.22.057v.509l.22.054.004.465a.317.317 0 0 0-.218.19l-.403.002-.064-.19h-.592l-.063.19h-.343Zm.876-2.11v.184h-.346v-.183h.346Zm.916 2.323c-.08 0-.146-.056-.146-.125 0-.07.066-.127.146-.127.081 0 .147.057.147.127s-.066.125-.147.125Zm-2.006-1.11.22-.054v-.508l-.22-.057.001-.22a.32.32 0 0 0 .225-.19h.336l.064.19h.59l.065-.19h.387a.34.34 0 0 0 .037.07l-.675.68-.21-.081-.384.387.126.165-.525.53a1.084 1.084 0 0 0-.035-.014l-.002-.707Zm.91-.158.161.119-.222.226-.162-.12.222-.225Zm-1.005 4.126c.156-.008.283-.103.316-.23.21-.026.407-.075.593-.148l-.105-.163a2.18 2.18 0 0 1-.512.126.323.323 0 0 0-.198-.16l-.002-.64.221-.056v-.508l-.22-.055v-.871a.118.118 0 0 0 .024-.01l.5.504-.126.164.384.387.21-.08.414.418a.257.257 0 0 0 .014.325 1.92 1.92 0 0 1-.407.313l.105.164a2.14 2.14 0 0 0 .476-.367.38.38 0 0 0 .326-.057c.144-.106.162-.292.038-.415l-.018-.018a1.68 1.68 0 0 0 .166-.57l-.215.001a1.479 1.479 0 0 1-.136.487.434.434 0 0 0-.184.018l-.416-.42.125-.165-.384-.387-.21.082-.5-.505a.234.234 0 0 0 .026-.053l.347.002.063.19h.592l.064-.19.406-.002a.323.323 0 0 0 .212.185l.002.46h.214v-.458c.138-.037.24-.149.24-.281 0-.131-.103-.245-.241-.283l-.002-.462.221-.054v-.509l-.22-.057v-.462c.135-.04.23-.15.23-.279 0-.163-.153-.294-.342-.294-.153 0-.282.084-.328.203h-.387l-.064-.19h-.591l-.064.19h-.336c-.045-.118-.171-.201-.322-.203l-.008.954h.106v.298h-.106l.003 2.461h.098v.297h-.098l.006 1.373Zm.742-2.087.162-.119.223.226-.162.118-.223-.225Zm1.25-2.102h.212l.001.297h-.213v-.297Zm-1.15 1.3V34.9h.358v.182h-.358Zm1.33 1.105.221-.044.032-.508-.22-.066v.292c0 .113-.011.219-.033.326Zm-.183-.63-.22.047s-.01.328-.006.254a7.717 7.717 0 0 0-.023.255l.22.066c.023-.103.03-.21.03-.318v-.303Zm-1.356 1.93-.049-.193c.19-.055.368-.135.523-.238l.158.126c-.185.131-.4.237-.632.306Zm.107.165.163.139c.184-.062.358-.144.517-.24l-.048-.202a2.375 2.375 0 0 1-.632.303Z" fill="#C8B100" stroke="#C8B100" stroke-width=".26"/><path d="M28.642 34.991c0-.164.155-.296.344-.296.19 0 .343.132.343.296 0 .163-.153.294-.343.294-.19 0-.344-.13-.344-.294Z" fill="#058E6E"/><path d="M19.55 32.063h6.296V25.71h-6.295v6.352Z" fill="#AD1519" stroke="#000" stroke-width=".52"/><path d="M21.712 27.179h-.116v-.105h-.203v.42h.203v.291h-.435v.843h.232v1.686h-.464v.87h3.565v-.87h-.463v-1.686h.233v-.843h-.436v-.29h.203v-.421h-.203v.105h-.116v-.105h-.203v.105h-.145v-.105h-.203v.42h.203v.291h-.434v-.922h.23v-.422h-.23v.106h-.117v-.106h-.203v.106h-.116v-.106h-.232v.422h.232v.922h-.435v-.29h.203v-.421h-.203v.105h-.115v-.105h-.232v.105Zm-.783 4.005h3.565-3.565Zm0-.211h3.565-3.565Zm0-.211h3.565-3.565Zm0-.211h3.565-3.565Zm0-.237h3.565-3.565Zm.464-.185h2.638-2.638Zm0-.21h2.638-2.638Zm0-.238h2.638-2.638Zm0-.21h2.638-2.638Zm0-.21h2.638-2.638Zm0-.212h2.638-2.638Zm0-.21h2.638-2.638Zm-.232-.211h3.102-3.102Zm0-.211h3.102-3.102Zm0-.211h3.102-3.102Zm0-.21h3.102-3.102Zm.435-.21h2.232-2.232Zm.898-.212h.436-.436Zm0-.21h.436-.436Zm0-.212h.436-.436Zm0-.21h.436-.436Zm-.232-.264h.899-.899Zm-.666.896h.463-.463Zm-.203-.263h.87-.87Zm0 3.873v-.211.21Zm0-.422v-.211.21Zm-.232 0v.21-.21Zm.435.21v-.21.21Zm.231.212v-.211.21Zm0-.422v-.211.21Zm0-.448v-.185.185Zm0-.396v-.237.237Zm-.23.633v-.237.237Zm-.436 0v-.237.237Zm.898-.237v.237-.237Zm.203 0v-.185.185Zm-.666-.396v.211-.21Zm.463 0v.211-.21Zm.435 0v.211-.21Zm-.232 0v-.237.237Zm.232-.447v.21-.21Zm0-.422v.211-.21Zm-.232-.21v.21-.21Zm.232-.211v.21-.21Zm-.435 0v.21-.21Zm-.463 0v.21-.21Zm-.203-.211v.21-.21Zm.434 0v.21-.21Zm.435 0v.21-.21Zm.232-.211v.21-.21Zm-.435 0v.21-.21Zm-.463 0v.21-.21Zm-.203-.21v.21-.21Zm.87 0v.21-.21Zm-.436-.422v.211-.21Zm2.001 0h-.464.464Zm.203-.263h-.87.87Zm0 3.873v-.211.21Zm0-.422v-.211.21Zm.233 0v.21-.21Zm-.436.21v-.21.21Zm-.232.212v-.211.21Zm0-.422v-.211.21Zm0-.448v-.185.185Zm0-.396v-.237.237Zm.232.633v-.237.237Zm.436 0v-.237.237Zm-.9-.237v.237-.237Zm-.203 0v-.185.185Zm.667-.396v.211-.21Zm-.464 0v.211-.21Zm-.434 0v.211-.21Zm.23 0v-.237.237Zm-.23-.447v.21-.21Zm0-.422v.211-.21Zm.23-.21v.21-.21Zm-.23-.211v.21-.21Zm.434 0v.21-.21Zm.464 0v.21-.21Zm.203-.211v.21-.21Zm-.435 0v.21-.21Zm-.435 0v.21-.21Zm-.231-.211v.21-.21Zm.434 0v.21-.21Zm.464 0v.21-.21Zm.203-.21v.21-.21Zm-.87 0v.21-.21Zm.435-.422v.211-.21Zm-.898 2.344v-.237.237Zm0-.869v-.21.21Zm0 .422v-.21.21Zm0-.843v-.211.21Zm0-.422v-.21.21Zm0-.632v-.21.21Zm0-.422v-.21.21Zm-1.102.342h.463-.463Zm.898-.631h.436-.436Zm.87.631h.464-.464Z" fill="#C8B100"/><path d="M21.596 27.494h-.203v-.42h.203v.105h.116v-.105h.232v.105h.115v-.105h.203v.42h-.203m-.463 0v.291m0-.29h.463m-.463.29h-.435v.843m.435-.843h2.232m-2.667.843h.232m-.232 0h3.102m-2.87 0v1.686h-.464m.464-1.686v-.211m-.464 1.897v.87h3.565v-.87m-3.565 0h3.565m0 0h-.463v-1.686m0 0h.233m-.233 0v-.211m.233.21v-.842h-.436m0 0v-.29m0 0h.203v-.421h-.203v.105h-.116v-.105h-.203v.105h-.145v-.105h-.203v.42h.203m.464 0h-.464m0 0v.291h-.434v-.922m0 0h.23v-.422h-.23v.106h-.117v-.106h-.203v.106h-.116v-.106h-.232v.422h.232m.436 0h-.436m0 0v.922h-.435v-.29m-1.13 3.478h3.565m-3.565-.211h3.565m-3.565-.211h3.565m-3.101-.422h2.638m-2.638-.21h2.638m-2.638-.238h2.638m-2.638-.21h2.638m-2.638-.21h2.638m-2.638-.212h2.638m-2.638-.21h2.638m-2.87-.422h3.102m-3.102-.211h3.102m-3.102-.21h3.102m-1.769-.422h.436m-.436-.21h.436m-.436-.212h.436m-.436-.21h.436m-.668-.264h.899m-1.565.896h.463m-.666-.263h.87m-.87 3.873v-.211m0-.211v-.211m-.232.21v.212m.435 0v-.211m.231.422v-.211m0-.211v-.211m0-.237v-.185m0-.21v-.238m-.23.87v-.237m-.436.237v-.237m.898 0v.237m.203-.237v-.185m-.666-.21v.21m.463-.21v.21m.435-.21v.21m-.232-.21v-.238m.232-.21v.21m0-.632v.211m-.232-.421v.21m.232-.421v.21m-.435-.21v.21m-.463-.21v.21m.231-.421v.21m.435-.21v.21m.232-.421v.21m-.435-.21v.21m-.463-.21v.21m-.203-.42v.21m.87-.21v.21m-.436-.632v.211m2.001-.21h-.464m.667-.264h-.87m.87 3.873v-.211m0-.211v-.211m.233.21v.212m-.436 0v-.211m-.232.422v-.211m0-.211v-.211m0-.237v-.185m0-.21v-.238m.232.87v-.237m.436.237v-.237m-.9 0v.237m-.203-.237v-.185m.667-.21v.21m-.464-.21v.21m-.434-.21v.21m.23-.21v-.238m-.23-.21v.21m0-.632v.211m.23-.421v.21m-.23-.421v.21m.434-.21v.21m.464-.21v.21m-.232-.421v.21m-.435-.21v.21m-.231-.421v.21m.434-.21v.21m.464-.21v.21m.203-.42v.21m-.87-.21v.21m.435-.632v.211m-.898 2.133v-.237m0-.632v-.21m0 .632v-.21m0-.633v-.211m0-.211v-.21m0-.422v-.21m0-.212v-.21" stroke="#000" stroke-width=".46"/><path d="M23.304 31.184v-.554c0-.105-.057-.422-.608-.422-.522 0-.58.317-.58.422v.554h1.188Z" fill="#C8B100" stroke="#000" stroke-width=".46"/><path d="m22.318 30.656-.29-.026c0-.105.03-.264.117-.316l.261.184c-.029.027-.088.105-.088.158Zm.494-.264.146-.237a.756.756 0 0 0-.261-.052.743.743 0 0 0-.232.052l.144.237h.203Zm.29.264.29-.026c0-.105-.03-.264-.116-.316l-.261.184c.029.027.087.105.087.158Zm-.841-.921v-.58c0-.158-.115-.29-.319-.29-.203 0-.318.132-.318.29v.58h.637Zm.901 0v-.58c0-.158.117-.29.32-.29.202 0 .319.132.319.29v.58h-.639Zm-1.104-1.423.029-.527h-.55l.058.527h.463Zm.872 0 .058-.527h-.55l.028.527h.465Zm.433 0-.057-.527h.58l-.058.527h-.465Z" fill="#C8B100" stroke="#000" stroke-width=".46"/><path d="M23.104 31.184v-.475c0-.08-.057-.317-.405-.317-.319 0-.378.238-.378.317v.475h.783Zm-.898-1.503v-.5c0-.132-.087-.264-.261-.264-.175 0-.261.132-.261.264v.5h.521Zm1.014 0v-.5c0-.132.086-.264.26-.264.174 0 .262.132.262.264v.5h-.522Z" fill="#0039F0"/><path d="M25.842 32.063h6.313V25.71h-6.313v6.352Z" fill="#CCC" stroke="#000" stroke-width=".52"/><path d="m29.06 27.276.006-.071.012-.039s-.202.015-.309-.012a.802.802 0 0 1-.301-.143c-.1-.077-.138-.125-.21-.134-.17-.025-.3.045-.3.045s.127.043.223.15c.095.107.199.16.244.174.074.02.334.006.404.008.072.003.231.022.231.022Z" fill="#DB4446" stroke="#000" stroke-width=".39"/><path d="M30.005 27.018s0 .082.01.16c.007.076-.028.141-.014.183.014.042.02.075.037.106.018.03.027.107.027.107l-.093-.061a1.718 1.718 0 0 0-.075-.05l.012.117a.303.303 0 0 0 .064.141c.037.038.11.102.132.152.023.051.017.164.017.164s-.057-.085-.109-.101c-.049-.016-.158-.071-.158-.071s.1.09.1.177c0 .085-.04.182-.04.182s-.046-.077-.105-.128c-.059-.05-.142-.102-.142-.102s.066.133.066.222c0 .09-.02.282-.02.282s-.048-.073-.098-.11c-.05-.035-.11-.066-.128-.089-.018-.024.06.073.067.133.01.058.04.268.241.534.118.156.3.43.69.34.39-.089.246-.567.163-.789a1.832 1.832 0 0 1-.117-.555c.005-.086.072-.339.064-.386a.875.875 0 0 1 .017-.374c.05-.152.092-.211.12-.274.026-.063.048-.098.057-.153.009-.054.009-.156.009-.156s.073.12.091.164a.733.733 0 0 1 .018.171s.014-.128.123-.19c.109-.063.236-.129.267-.164.031-.036.041-.059.041-.059s-.01.22-.077.305a6.888 6.888 0 0 1-.222.238s.091-.032.154-.034c.064-.005.11 0 .11 0s-.079.055-.178.187c-.1.132-.059.144-.132.253-.072.11-.131.114-.223.18-.135.1-.063.495-.045.554.019.058.255.543.26.66.003.118.026.38-.201.547-.146.109-.385.11-.44.14-.054.032-.162.13-.162.332 0 .204.08.235.144.287.064.05.145.022.163.062.019.039.028.062.055.086.027.022.045.05.037.093-.01.043-.114.14-.15.211a1.6 1.6 0 0 0-.11.282c0 .027-.009.113.023.156 0 0 .114.12.036.144-.05.015-.098-.029-.122-.023-.067.016-.104.053-.123.051-.045-.008-.045-.028-.05-.087-.004-.058-.001-.082-.021-.082-.028 0-.042.02-.047.052-.005.03-.005.101-.036.101-.031 0-.077-.051-.104-.063-.028-.011-.104-.022-.11-.054-.003-.031.046-.097.096-.11.05-.011.095-.034.064-.058-.033-.023-.064-.023-.095 0-.032.024-.1.005-.096-.03.005-.036.014-.08.01-.099-.005-.02-.06-.058.012-.093.074-.036.105.03.178.02.072-.012.108-.036.135-.075.028-.039.023-.12-.027-.171-.05-.051-.1-.06-.118-.091a1.052 1.052 0 0 1-.045-.105s.013.137.005.156c-.01.02-.005.102-.005.102s-.05-.052-.09-.09c-.04-.04-.082-.157-.082-.157s-.004.11-.004.153c0 .042.054.082.036.098-.018.015-.104-.082-.128-.098-.022-.016-.095-.066-.126-.12a.779.779 0 0 1-.064-.162.455.455 0 0 1-.01-.18 4.14 4.14 0 0 0 .06-.128h-.177c-.095 0-.163-.027-.2.032-.036.058-.018.175.027.328.046.151.073.226.06.253a.376.376 0 0 1-.095.101c-.024.013-.087.008-.114-.003a.36.36 0 0 0-.159-.03c-.086 0-.14.003-.171-.004-.033-.008-.11-.044-.147-.036-.037.008-.1.037-.082.083.028.069-.026.085-.064.081-.036-.004-.066-.015-.113-.027-.045-.012-.113 0-.104-.048.009-.046.028-.05.05-.084.023-.037.032-.06.005-.062-.031-.002-.064-.005-.088.013-.025.018-.064.058-.095.043-.033-.016-.058-.049-.058-.123 0-.073-.085-.137-.006-.133.078.003.177.055.195.015.017-.04.007-.059-.036-.09-.042-.03-.095-.048-.038-.087.056-.04.07-.04.093-.062.02-.02.05-.09.091-.073.078.035.003.084.082.162.077.079.126.107.258.095.13-.013.167-.027.167-.062 0-.033-.011-.093-.015-.118-.003-.024.019-.113.019-.113s-.06.034-.08.067a1.408 1.408 0 0 1-.052.091s-.014-.068-.01-.124c.002-.033.015-.09.014-.101-.004-.031-.03-.108-.03-.108s-.02.084-.034.108c-.014.024-.02.122-.02.122s-.084-.066-.06-.177c.016-.086-.016-.198.013-.235.028-.038.094-.187.259-.193.163-.005.29.006.347.004.057-.004.259-.038.259-.038s-.373-.173-.457-.226a1.19 1.19 0 0 1-.26-.246.907.907 0 0 1-.081-.18s-.067.002-.128.033a.633.633 0 0 0-.156.113 1.23 1.23 0 0 0-.091.12s.01-.107.01-.14c0-.034-.008-.098-.008-.098s-.041.145-.127.2c-.085.056-.184.131-.184.131s.01-.08.01-.1c0-.018.021-.113.021-.113s-.06.082-.152.098c-.092.015-.227.013-.238.064-.01.051.025.122.004.158-.021.037-.068.062-.068.062s-.053-.04-.099-.043c-.045-.004-.089.018-.089.018s-.039-.046-.024-.077c.014-.03.084-.075.068-.094-.019-.018-.075.007-.11.021-.036.017-.11.031-.103-.021.006-.051.025-.082.006-.119-.018-.036-.006-.06.022-.07.028-.008.141.003.152-.02.01-.025-.027-.056-.103-.07-.074-.016-.11-.056-.071-.09a.245.245 0 0 0 .068-.072c.017-.031.025-.087.092-.058.067.027.053.094.125.115.07.021.237-.01.272-.028.035-.018.15-.094.188-.113.039-.017.202-.127.202-.127s-.095-.06-.132-.091c-.035-.031-.098-.104-.13-.12a1.23 1.23 0 0 0-.241-.073c-.053-.002-.216-.055-.216-.055s.074-.021.1-.04c.023-.018.08-.064.108-.06l.036.002s-.152-.006-.185-.015c-.031-.009-.124-.061-.16-.061-.034 0-.105.012-.105.012s.096-.054.174-.067c.077-.011.138-.01.138-.01s-.12-.03-.15-.065c-.027-.038-.056-.091-.078-.117-.02-.023-.035-.063-.073-.067-.04-.003-.107.044-.146.04-.039-.003-.068-.025-.072-.076-.002-.053 0-.034-.012-.062-.015-.027-.072-.091-.019-.106.054-.016.167.01.178-.009.01-.018-.06-.074-.106-.095-.047-.021-.12-.058-.082-.088.039-.03.078-.043.1-.07.02-.027.046-.104.092-.08.045.024.11.144.146.135.035-.01.037-.095.03-.131-.007-.037 0-.1.036-.095.035.006.064.049.12.052.057.003.142-.012.135.024a.271.271 0 0 1-.078.121c-.038.041-.056.12-.031.171a.46.46 0 0 0 .145.169c.056.033.163.058.23.097.067.04.224.153.277.165.053.013.107.037.107.037s.06-.024.141-.024c.082 0 .269.011.34-.016.072-.028.164-.073.136-.131-.029-.059-.185-.11-.17-.155.013-.046.07-.05.166-.053.096-.002.226.016.251-.107.025-.12.033-.192-.102-.219-.135-.027-.234-.03-.26-.119-.024-.088-.048-.11-.02-.134.028-.024.077-.037.176-.042.1-.007.214-.007.246-.029.032-.02.038-.078.077-.103a.89.89 0 0 1 .192-.046s.183.08.351.195c.152.102.288.254.288.254" fill="#ED72AA"/><path d="M30.005 27.018s0 .082.01.16c.007.076-.028.141-.014.183.014.042.02.075.037.106.018.03.027.107.027.107l-.093-.061a1.718 1.718 0 0 0-.075-.05l.012.117a.303.303 0 0 0 .064.141c.037.038.11.102.132.152.023.051.017.164.017.164s-.057-.085-.109-.101c-.049-.016-.158-.071-.158-.071s.1.09.1.177c0 .085-.04.182-.04.182s-.046-.077-.105-.128c-.059-.05-.142-.102-.142-.102s.066.133.066.222c0 .09-.02.282-.02.282s-.048-.073-.098-.11c-.05-.035-.11-.066-.128-.089-.018-.024.06.073.067.133.01.058.04.268.241.534.118.156.3.43.69.34.39-.089.246-.567.163-.789a1.832 1.832 0 0 1-.117-.555c.005-.086.072-.339.064-.386a.875.875 0 0 1 .017-.374c.05-.152.092-.211.12-.274.026-.063.048-.098.057-.153.009-.054.009-.156.009-.156s.073.12.091.164a.733.733 0 0 1 .018.171s.014-.128.123-.19c.109-.063.236-.129.267-.164.031-.036.041-.059.041-.059s-.01.22-.077.305a6.888 6.888 0 0 1-.222.238s.091-.032.154-.034c.064-.005.11 0 .11 0s-.079.055-.178.187c-.1.132-.059.144-.132.253-.072.11-.131.114-.223.18-.135.1-.063.495-.045.554.019.058.255.543.26.66.003.118.026.38-.201.547-.146.109-.385.11-.44.14-.054.032-.162.13-.162.332 0 .204.08.235.144.287.064.05.145.022.163.062.019.039.028.062.055.086.027.022.045.05.037.093-.01.043-.114.14-.15.211a1.6 1.6 0 0 0-.11.282c0 .027-.009.113.023.156 0 0 .114.12.036.144-.05.015-.098-.029-.122-.023-.067.016-.104.053-.123.051-.045-.008-.045-.028-.05-.087-.004-.058-.001-.082-.021-.082-.028 0-.042.02-.047.052-.005.03-.005.101-.036.101-.031 0-.077-.051-.104-.063-.028-.011-.104-.022-.11-.054-.003-.031.046-.097.096-.11.05-.011.095-.034.064-.058-.033-.023-.064-.023-.095 0-.032.024-.1.005-.096-.03.005-.036.014-.08.01-.099-.005-.02-.06-.058.012-.093.074-.036.105.03.178.02.072-.012.108-.036.135-.075.028-.039.023-.12-.027-.171-.05-.051-.1-.06-.118-.091a1.052 1.052 0 0 1-.045-.105s.013.137.005.156c-.01.02-.005.102-.005.102s-.05-.052-.09-.09c-.04-.04-.082-.157-.082-.157s-.004.11-.004.153c0 .042.054.082.036.098-.018.015-.104-.082-.128-.098-.022-.016-.095-.066-.126-.12a.779.779 0 0 1-.064-.162.455.455 0 0 1-.01-.18 4.14 4.14 0 0 0 .06-.128h-.177c-.095 0-.163-.027-.2.032-.036.058-.018.175.027.328.046.151.073.226.06.253a.376.376 0 0 1-.095.101c-.024.013-.087.008-.114-.003a.36.36 0 0 0-.159-.03c-.086 0-.14.003-.171-.004-.033-.008-.11-.044-.147-.036-.037.008-.1.037-.082.083.028.069-.026.085-.064.081-.036-.004-.066-.015-.113-.027-.045-.012-.113 0-.104-.048.009-.046.028-.05.05-.084.023-.037.032-.06.005-.062-.031-.002-.064-.005-.088.013-.025.018-.064.058-.095.043-.033-.016-.058-.049-.058-.123 0-.073-.085-.137-.006-.133.078.003.177.055.195.015.017-.04.007-.059-.036-.09-.042-.03-.095-.048-.038-.087.056-.04.07-.04.093-.062.02-.02.05-.09.091-.073.078.035.003.084.082.162.077.079.126.107.258.095.13-.013.167-.027.167-.062 0-.033-.011-.093-.015-.118-.003-.024.019-.113.019-.113s-.06.034-.08.067a1.408 1.408 0 0 1-.052.091s-.014-.068-.01-.124c.002-.033.015-.09.014-.101-.004-.031-.03-.108-.03-.108s-.02.084-.034.108c-.014.024-.02.122-.02.122s-.084-.066-.06-.177c.016-.086-.016-.198.013-.235.028-.038.094-.187.259-.193.163-.005.29.006.347.004.057-.004.259-.038.259-.038s-.373-.173-.457-.226a1.19 1.19 0 0 1-.26-.246.907.907 0 0 1-.081-.18s-.067.002-.128.033a.633.633 0 0 0-.156.113 1.23 1.23 0 0 0-.091.12s.01-.107.01-.14c0-.034-.008-.098-.008-.098s-.041.145-.127.2c-.085.056-.184.131-.184.131s.01-.08.01-.1c0-.018.021-.113.021-.113s-.06.082-.152.098c-.092.015-.227.013-.238.064-.01.051.025.122.004.158-.021.037-.068.062-.068.062s-.053-.04-.099-.043c-.045-.004-.089.018-.089.018s-.039-.046-.024-.077c.014-.03.084-.075.068-.094-.019-.018-.075.007-.11.021-.036.017-.11.031-.103-.021.006-.051.025-.082.006-.119-.018-.036-.006-.06.022-.07.028-.008.141.003.152-.02.01-.025-.027-.056-.103-.07-.074-.016-.11-.056-.071-.09a.245.245 0 0 0 .068-.072c.017-.031.025-.087.092-.058.067.027.053.094.125.115.07.021.237-.01.272-.028.035-.018.15-.094.188-.113.039-.017.202-.127.202-.127s-.095-.06-.132-.091c-.035-.031-.098-.104-.13-.12a1.23 1.23 0 0 0-.241-.073c-.053-.002-.216-.055-.216-.055s.074-.021.1-.04c.023-.018.08-.064.108-.06l.036.002s-.152-.006-.185-.015c-.031-.009-.124-.061-.16-.061-.034 0-.105.012-.105.012s.096-.054.174-.067c.077-.011.138-.01.138-.01s-.12-.03-.15-.065c-.027-.038-.056-.091-.078-.117-.02-.023-.035-.063-.073-.067-.04-.003-.107.044-.146.04-.039-.003-.068-.025-.072-.076-.002-.053 0-.034-.012-.062-.015-.027-.072-.091-.019-.106.054-.016.167.01.178-.009.01-.018-.06-.074-.106-.095-.047-.021-.12-.058-.082-.088.039-.03.078-.043.1-.07.02-.027.046-.104.092-.08.045.024.11.144.146.135.035-.01.037-.095.03-.131-.007-.037 0-.1.036-.095.035.006.064.049.12.052.057.003.142-.012.135.024a.271.271 0 0 1-.078.121c-.038.041-.056.12-.031.171a.46.46 0 0 0 .145.169c.056.033.163.058.23.097.067.04.224.153.277.165.053.013.107.037.107.037s.06-.024.141-.024c.082 0 .269.011.34-.016.072-.028.164-.073.136-.131-.029-.059-.185-.11-.17-.155.013-.046.07-.05.166-.053.096-.002.226.016.251-.107.025-.12.033-.192-.102-.219-.135-.027-.234-.03-.26-.119-.024-.088-.048-.11-.02-.134.028-.024.077-.037.176-.042.1-.007.214-.007.246-.029.032-.02.038-.078.077-.103a.89.89 0 0 1 .192-.046s.183.08.351.195c.152.102.288.254.288.254" stroke="#000" stroke-width=".39"/><path d="M28.19 27.747s-.1.026-.138.076c-.046.06-.042.122-.042.122s.085-.064.195-.038c.11.028.12.038.167.034.047-.003.16-.04.16-.04s-.093.099-.082.166c.01.066.024.097.021.13-.007.083-.075.184-.075.184s.04-.021.132-.04a.604.604 0 0 0 .22-.092c.048-.033.112-.116.112-.116s-.02.114 0 .162c.022.05.03.19.03.19s.058-.048.106-.07c.024-.013.088-.044.113-.08a.6.6 0 0 0 .04-.121s.014.103.049.153c.035.047.088.198.088.198s.036-.098.075-.138c.039-.04.085-.091.088-.122a.432.432 0 0 0-.01-.097l.049.097m-1.432.07s.06-.095.117-.126c.058-.03.135-.084.157-.091.02-.006.113-.052.113-.052m.124.589s.137-.063.177-.086c.085-.045.145-.127.145-.127" stroke="#000" stroke-width=".39"/><path d="M29.893 27.463s-.043-.055-.053-.074a.589.589 0 0 1-.029-.055" stroke="#000" stroke-width=".26"/><path d="M29.36 29.345s.256.143.248.263c-.007.119-.141.275-.141.275" stroke="#000" stroke-width=".39"/><path d="M28.7 26.931s-.022-.054-.026-.07c-.004-.015-.015-.033-.015-.033s.11 0 .107.03c-.003.031-.035.031-.043.043-.006.012-.024.03-.024.03Z" fill="#000" stroke="#000" stroke-width=".26"/><path d="m29.202 26.773-.008-.05s.097 0 .142.03a.328.328 0 0 1 .114.12c-.012.01-.067-.03-.106-.042 0 0-.03.006-.057.006-.029 0-.043-.013-.046-.024-.004-.014.003-.034.003-.034l-.042-.006Z" fill="#000" stroke="#000" stroke-width=".05"/><path d="m28.702 27.376.041-.06.043.055-.084.005Zm.1-.002.05-.06.055.054-.105.006Zm-.044-.375.102.033-.092.043-.01-.076Zm.125.031.091.02-.074.052-.017-.073Z" fill="#000" stroke="#000" stroke-width=".26"/><path d="M27.3 26.913s.06.039.107.046c.047.005.096.005.103.005.006 0 .021-.061.014-.103-.025-.137-.163-.168-.163-.168s.041.083.021.122a.372.372 0 0 1-.081.098Zm-.289.119s-.054-.088-.167-.077a.334.334 0 0 0-.188.093s.126-.004.157.015c.046.027.06.098.06.098s.068-.037.09-.062a.913.913 0 0 0 .048-.067Zm-.138.357s-.096.012-.149.067c-.054.056-.045.16-.045.16s.063-.062.12-.062c.057 0 .145.018.145.018s-.028-.064-.028-.091a.29.29 0 0 0-.043-.093Zm.321 1.153s-.053-.051-.146-.036c-.092.016-.153.11-.153.11s.08-.02.126-.009c.045.01.078.052.078.052s.042-.034.056-.052a.728.728 0 0 0 .039-.065Zm-.105.338s-.078-.01-.146.038c-.066.05-.07.143-.07.143s.064-.05.114-.042c.05.005.11.03.11.03l.013-.072c.011-.044-.021-.096-.021-.096Zm.182.313s-.006.09.042.146c.05.058.142.067.142.067s-.03-.06-.036-.09c-.007-.046.043-.086.043-.086s-.046-.044-.092-.044a.91.91 0 0 0-.099.007Zm.919.803s-.063-.073-.151-.071c-.09.003-.182.079-.182.079s.11-.008.14.025a.922.922 0 0 1 .056.076s.05-.024.071-.04a.567.567 0 0 0 .067-.07Zm-.272.32s-.116-.016-.174.04c-.056.055-.053.155-.053.155s.07-.07.135-.064c.064.006.135.037.135.037s-.011-.06-.019-.09c-.006-.027-.024-.078-.024-.078Zm.252.339s-.059.073-.016.13c.043.059.132.086.132.086s-.033-.042-.018-.09c.012-.04.084-.092.084-.092l-.183-.034Zm1.557.138s-.102-.022-.16.009c-.056.03-.102.158-.102.158s.093-.07.16-.061c.067.009.117.034.117.034s.01-.053.002-.09a.239.239 0 0 0-.017-.05Zm.052.34s-.078.073-.05.135a.81.81 0 0 0 .077.125s-.002-.09.029-.116c.046-.036.132-.042.132-.042s-.068-.055-.09-.062a1.25 1.25 0 0 1-.098-.04Zm.387.107s-.039.09.035.147c.074.059.14.064.14.064s-.058-.092-.04-.14c.018-.051.067-.082.067-.082s-.093-.028-.106-.025c-.014.002-.096.037-.096.037Z" fill="#DB4446" stroke="#000" stroke-width=".39"/><path d="m29.93 26.529-.036.002a.17.17 0 0 1-.032.04c-.033.029-.082.032-.108.008a.052.052 0 0 1-.018-.047.067.067 0 0 1-.064 0c-.032-.018-.04-.058-.017-.09.003-.008.007-.017.013-.021l-.002-.037-.044.01-.012.021c-.028.029-.068.035-.088.02a.058.058 0 0 1-.017-.031s-.011.01-.021.012c-.068.015-.094-.12-.097-.154l-.02.029s.02.08.01.148c-.01.067-.037.136-.037.136.093.021.233.09.372.188.14.097.249.203.294.275 0 0 .073-.036.148-.058.075-.021.17-.022.17-.022l.028-.024c-.04.005-.198.011-.195-.05 0-.009.008-.02.01-.02a.094.094 0 0 1-.038-.007c-.023-.014-.023-.049.002-.078l.023-.015.001-.039-.042.006-.02.015c-.033.026-.08.028-.107.003a.045.045 0 0 1-.014-.052.079.079 0 0 1-.056-.006c-.033-.017-.04-.06-.014-.091a.16.16 0 0 1 .039-.037l-.01-.034Z" fill="#C8B100" stroke="#000" stroke-width=".26"/><path d="M29.648 26.608c.006-.008.018-.007.028 0 .01.007.013.018.008.024-.006.006-.019.006-.03-.002-.009-.005-.013-.017-.006-.022Zm.118.09-.041-.029c-.008-.004-.009-.013-.005-.018.005-.004.015-.004.023 0l.04.03.042.028c.007.005.01.014.005.018-.005.005-.015.005-.022 0l-.042-.03Zm-.217-.136-.033-.017c-.009-.005-.013-.014-.009-.02.004-.005.014-.006.021-.002l.033.019.033.017c.007.003.011.012.008.018-.003.006-.013.007-.02.002l-.033-.017Zm-.131-.081c.007-.007.02-.007.03 0 .01.008.013.018.007.025-.006.006-.019.006-.03 0-.01-.008-.012-.018-.007-.025Zm.479.3c.006-.006.004-.016-.006-.024-.01-.007-.024-.007-.03 0-.005.006-.003.017.007.024.01.007.023.007.03 0Zm.073.075.027.024c.006.006.016.008.022.004.005-.005.005-.013-.001-.019l-.026-.024-.028-.024c-.006-.005-.017-.008-.022-.003-.007.003-.006.013 0 .018l.027.024Zm.12.093c.006-.007.003-.017-.007-.024-.01-.008-.023-.008-.029-.001-.006.006-.004.017.006.025.01.005.023.006.03 0Z" fill="#000" stroke="#000" stroke-width=".05"/><path d="m29.742 26.261-.074.001-.014.1.008.015h.018l.096-.059-.034-.057Z" fill="#C8B100" stroke="#000" stroke-width=".26"/><path d="m29.742 26.261-.074.001-.014.1.008.015h.018l.096-.059-.034-.057Z" fill="#C8B100" stroke="#000" stroke-width=".26"/><path d="m29.543 26.316-.002.061.115.014.02-.008-.003-.017-.067-.081-.063.03Z" fill="#C8B100" stroke="#000" stroke-width=".26"/><path d="m29.78 26.439-.06.03-.069-.08v-.017l.017-.007.116.012-.003.062Z" fill="#C8B100" stroke="#000" stroke-width=".26"/><path d="M29.631 26.363a.037.037 0 0 1 .049-.01.028.028 0 0 1 .012.041.037.037 0 0 1-.049.01c-.017-.008-.022-.027-.012-.041Zm-.268-.103c-.003.001-.017-.053-.033-.081-.01-.022-.049-.049-.049-.049.004-.006.053-.022.11.01.047.036-.004.1-.004.1s-.012.015-.024.02Z" fill="#C8B100" stroke="#000" stroke-width=".26"/><path d="m29.49 26.295-.052.042-.085-.068.007-.01.004-.016.115-.008.012.06Z" fill="#C8B100" stroke="#000" stroke-width=".26"/><path d="M29.347 26.253c.006-.017.023-.026.035-.023.014.005.02.02.013.038-.006.017-.023.026-.037.023-.013-.005-.018-.02-.01-.038Zm.683.169-.074-.007-.031.097.006.016.019.001.104-.047-.024-.06Z" fill="#C8B100" stroke="#000" stroke-width=".26"/><path d="m29.821 26.451-.013.062.113.026.02-.004v-.016l-.053-.09-.067.023Z" fill="#C8B100" stroke="#000" stroke-width=".26"/><path d="m30.038 26.603-.067.023-.052-.089.001-.017.019-.003.112.026-.013.06Z" fill="#C8B100" stroke="#000" stroke-width=".26"/><path d="M29.901 26.51a.04.04 0 0 1 .05-.005c.017.01.02.03.007.043-.013.014-.035.015-.051.005a.028.028 0 0 1-.006-.043Zm.376.122.014.062-.11.035-.02-.005-.001-.016.045-.092.072.016Z" fill="#C8B100" stroke="#000" stroke-width=".26"/><path d="m30.258 26.813-.07.015-.039-.095.005-.017.02-.002.106.04-.022.059Z" fill="#C8B100" stroke="#000" stroke-width=".26"/><path d="m30.066 26.637-.022.06.106.038.02-.002.004-.016-.037-.094-.07.014Z" fill="#C8B100" stroke="#000" stroke-width=".26"/><path d="M30.184 26.748a.03.03 0 0 0 .002-.045.044.044 0 0 0-.051-.002c-.014.013-.015.032-.001.045a.04.04 0 0 0 .05.002Zm.172.205c0 .001.063.004.1.01a.25.25 0 0 1 .065.031c.007-.004.015-.048-.036-.09-.048-.032-.11.025-.11.025s-.015.014-.019.024Z" fill="#C8B100" stroke="#000" stroke-width=".26"/><path d="m30.29 26.852-.036.052.095.058.011-.009.017-.004-.015-.1-.072.003Z" fill="#C8B100" stroke="#000" stroke-width=".26"/><path d="M30.368 26.965c.017-.009.026-.026.019-.036-.008-.01-.028-.011-.046-.002-.017.009-.025.025-.017.035.006.01.026.012.044.003Z" fill="#C8B100" stroke="#000" stroke-width=".26"/><path d="M25.86 34.121c1.126 0 2.04-.934 2.04-2.086 0-1.152-.914-2.086-2.04-2.086-1.127 0-2.04.934-2.04 2.086 0 1.152.913 2.086 2.04 2.086Z" fill="#AD1519" stroke="#000" stroke-width=".61"/><path d="M25.861 33.56c.793 0 1.435-.684 1.435-1.53 0-.844-.642-1.53-1.435-1.53s-1.435.686-1.435 1.53c0 .846.642 1.53 1.435 1.53Z" fill="#005BBF" stroke="#000" stroke-width=".61"/><path d="M25.182 30.978s-.17.17-.17.326c0 .159.072.29.072.29a.188.188 0 0 0-.177-.107c-.104 0-.188.072-.188.162a.21.21 0 0 0 .03.087l.061.113c.02-.042.068-.065.123-.065.074 0 .136.052.136.116 0 .01-.002.019-.005.028l-.153.001v.118h.136l-.101.183.134-.048.102.104.105-.104.134.048-.1-.183h.135v-.118l-.153-.001c-.002-.01-.002-.018-.002-.029 0-.063.059-.115.133-.115.055 0 .103.023.123.065l.061-.113a.223.223 0 0 0 .03-.087c0-.09-.084-.162-.186-.162-.083 0-.152.044-.177.107 0 0 .071-.131.071-.29 0-.157-.174-.326-.174-.326Z" fill="#C8B100" stroke="#000" stroke-width=".34" stroke-linejoin="round"/><path d="M24.911 32.047h.547v-.118h-.547v.118Z" fill="#C8B100" stroke="#000" stroke-width=".34"/><path d="M26.514 30.978s-.17.17-.17.326c0 .159.072.29.072.29a.189.189 0 0 0-.177-.107c-.104 0-.188.072-.188.162a.21.21 0 0 0 .03.087l.061.113c.02-.042.068-.065.123-.065.074 0 .136.052.136.116 0 .01-.001.019-.005.028l-.153.001v.118h.137l-.102.183.134-.048.102.104.105-.104.134.048-.1-.183h.136v-.118l-.154-.001c-.002-.01-.002-.018-.002-.029 0-.063.059-.115.133-.115.055 0 .103.023.123.065l.061-.113a.223.223 0 0 0 .03-.087c0-.09-.084-.162-.186-.162-.083 0-.152.044-.177.107 0 0 .071-.131.071-.29 0-.157-.174-.326-.174-.326Z" fill="#C8B100" stroke="#000" stroke-width=".34" stroke-linejoin="round"/><path d="M26.243 32.047h.547v-.118h-.547v.118Z" fill="#C8B100" stroke="#000" stroke-width=".34"/><path d="M25.85 32.02s-.17.17-.17.326c0 .159.072.29.072.29a.188.188 0 0 0-.177-.107c-.104 0-.188.072-.188.162a.21.21 0 0 0 .03.087l.061.113c.02-.042.068-.065.123-.065.074 0 .136.052.136.115 0 .01-.002.02-.005.029l-.153.001v.118h.136l-.101.183.134-.048.102.104.105-.104.134.048-.1-.183h.135v-.118l-.153-.001c-.002-.01-.002-.018-.002-.029 0-.063.059-.115.133-.115.055 0 .103.023.123.065l.061-.112a.225.225 0 0 0 .03-.088c0-.09-.084-.162-.186-.162-.083 0-.152.044-.177.107 0 0 .071-.131.071-.29 0-.157-.174-.326-.174-.326Z" fill="#C8B100" stroke="#000" stroke-width=".34" stroke-linejoin="round"/><path d="M25.579 33.089h.547v-.118h-.547v.118Z" fill="#C8B100" stroke="#000" stroke-width=".34"/></g><defs><clipPath id="a"><rect width="82" height="57" rx="28.5" fill="#fff"/></clipPath></defs></svg>