<svg width="116" height="57" fill="none" xmlns="http://www.w3.org/2000/svg"><g clip-path="url(#a)"><path d="M116 0H1v57h115V0Z" fill="#fff"/><path fill-rule="evenodd" clip-rule="evenodd" d="M50.833 0v22.8H1v11.4h49.833V57h15.334V34.2H116V22.8H66.167V0H50.833Z" fill="#DE2910"/><path fill-rule="evenodd" clip-rule="evenodd" d="M80.012 9.601c1.44.272 2.913.451 4.415.522a31.917 31.917 0 0 0-.522-4.414 17.052 17.052 0 0 0 4.214 0 31.901 31.901 0 0 0-.522 4.415 31.904 31.904 0 0 0 4.415-.523c-.087.692-.13 1.394-.13 2.107 0 .714.043 1.415.13 2.108a31.9 31.9 0 0 0-4.415-.523c.07 1.502.25 2.976.522 4.416a16.96 16.96 0 0 0-2.107-.13c-.714 0-1.415.043-2.107.13.272-1.44.45-2.914.522-4.415-1.502.07-2.976.25-4.415.522a17.077 17.077 0 0 0 0-4.215Zm0 34.514c1.44.272 2.913.451 4.415.522a31.916 31.916 0 0 0-.522-4.415c.692.087 1.393.13 2.107.13.713 0 1.415-.043 2.107-.13a31.9 31.9 0 0 0-.522 4.415 31.931 31.931 0 0 0 4.415-.522 16.96 16.96 0 0 0-.13 2.107c0 .714.043 1.415.13 2.107a31.916 31.916 0 0 0-4.415-.522c.07 1.502.25 2.975.522 4.415a16.96 16.96 0 0 0-2.107-.13c-.714 0-1.415.044-2.107.13.272-1.44.45-2.913.522-4.415-1.502.071-2.976.25-4.415.522a17.052 17.052 0 0 0 0-4.214ZM21 43.893c1.44.272 2.913.451 4.415.522A31.902 31.902 0 0 0 24.893 40a17.052 17.052 0 0 0 4.214 0 31.902 31.902 0 0 0-.522 4.415A31.902 31.902 0 0 0 33 43.893a17.052 17.052 0 0 0 0 4.214 31.902 31.902 0 0 0-4.415-.522c.071 1.502.25 2.975.522 4.415A16.962 16.962 0 0 0 27 51.87c-.714 0-1.415.044-2.107.13.272-1.44.451-2.913.522-4.415-1.502.071-2.975.25-4.415.522.087-.692.13-1.393.13-2.107 0-.714-.043-1.415-.13-2.107Zm0-34c1.44.272 2.913.451 4.415.522A31.901 31.901 0 0 0 24.893 6c.692.087 1.393.13 2.107.13.714 0 1.415-.043 2.107-.13a31.901 31.901 0 0 0-.522 4.415A31.901 31.901 0 0 0 33 9.893a17.052 17.052 0 0 0 0 4.214 31.902 31.902 0 0 0-4.415-.522A31.9 31.9 0 0 0 29.107 18 16.962 16.962 0 0 0 27 17.87c-.714 0-1.415.043-2.107.13a31.9 31.9 0 0 0 .522-4.415c-1.502.071-2.975.25-4.415.522.087-.692.13-1.393.13-2.107 0-.714-.043-1.415-.13-2.107Z" fill="#DE2910"/></g><defs><clipPath id="a"><rect x=".5" width="115" height="57" rx="28.5" fill="#fff"/></clipPath></defs></svg>