<svg width="82" height="57" fill="none" xmlns="http://www.w3.org/2000/svg"><g clip-path="url(#a)"><path d="M82 0H0v57h82V0Z" fill="#C60B1E"/><path d="M82 14.25H0v28.5h82v-28.5Z" fill="#FFC400"/><path d="M18.324 25.335s-.056 0-.087-.018c-.03-.018-.123-.11-.123-.11l-.075-.055-.068-.097s-.08-.135-.044-.238a.29.29 0 0 1 .156-.171 1.45 1.45 0 0 1 .173-.068s.093-.042.124-.048c.03-.006.142-.036.142-.036s.031-.018.062-.03c.032-.013.074-.013.1-.02.023-.006.086-.026.123-.029.057-.002.15.012.18.012s.136.005.18.005c.042 0 .197-.012.24-.012.043 0 .075-.006.125 0a.727.727 0 0 1 .16.049c.026.012.174.067.23.085.055.019.191.043.254.073.061.031.1.082.13.126.03.042.037.089.05.12a.227.227 0 0 1 0 .126c-.013.03-.056.092-.056.092l-.068.117-.087.073s-.062.061-.112.054c-.049-.004-.55-.098-.873-.098-.322 0-.837.098-.837.098h.001Z" fill="#AD1519" stroke="#000" stroke-width=".26" stroke-linejoin="round"/><path d="M19.165 24.872c.083 0 .151-.127.151-.285 0-.157-.068-.285-.151-.285-.084 0-.151.128-.151.285 0 .158.067.285.15.285Z" fill="#C8B100" stroke="#000" stroke-width=".26"/><path d="M19.168 24.85c.038 0 .07-.118.07-.263 0-.144-.032-.262-.07-.262-.039 0-.07.118-.07.262 0 .145.031.263.07.263Z" fill="#C8B100" stroke="#000" stroke-width=".26"/><path d="M19.168 24.385a.1.1 0 0 0 .102-.099.1.1 0 0 0-.102-.099.1.1 0 0 0-.102.1.1.1 0 0 0 .102.098Z" fill="#C8B100"/><path d="M19.308 24.252v.066h-.277v-.066h.103v-.15h-.068v-.065h.068v-.065h.066v.065h.068v.065H19.2v.15h.108Z" fill="#C8B100" stroke="#000" stroke-width=".3"/><path d="M19.196 24.19a.103.103 0 0 1 .057.041.097.097 0 0 1-.018.13.103.103 0 0 1-.134 0 .097.097 0 0 1-.018-.13.103.103 0 0 1 .058-.04" stroke="#000" stroke-width=".26"/><path d="M19.168 25.317h-.527l-.012-.134-.026-.14-.025-.175c-.145-.2-.28-.33-.324-.302.01-.037.024-.064.051-.081.13-.08.396.112.596.426.018.029.035.057.05.086h.436c.015-.029.033-.057.05-.086.2-.314.467-.506.595-.426.029.017.04.044.052.08-.045-.027-.178.103-.325.303l-.025.174-.025.14-.01.135h-.531Z" fill="#C8B100" stroke="#000" stroke-width=".26"/><path d="M18.277 24.56c.1-.06.331.13.519.426m1.265-.426c-.1-.06-.33.13-.518.426" stroke="#000" stroke-width=".26"/><path d="M18.388 25.564c-.022-.065-.064-.123-.064-.123.214-.065.51-.106.84-.107.33.001.63.042.843.107l-.057.104a.79.79 0 0 0-.041.092 2.53 2.53 0 0 0-.745-.093c-.306 0-.599.04-.752.098.002 0-.011-.037-.025-.078Z" fill="#C8B100" stroke="#000" stroke-width=".26"/><path d="M19.166 25.847c.267-.001.56-.043.669-.072.072-.023.115-.056.107-.096a.068.068 0 0 0-.04-.043 2.646 2.646 0 0 0-.736-.091c-.288 0-.577.037-.736.091-.02.01-.036.025-.04.043-.008.04.035.073.107.096.108.029.403.07.67.072Zm.856-.53-.065-.06s-.062.038-.14.027c-.077-.013-.102-.111-.102-.111s-.087.076-.158.07c-.071-.006-.117-.07-.117-.07s-.078.058-.146.053c-.068-.007-.132-.095-.132-.095s-.07.091-.137.098c-.068.006-.124-.062-.124-.062s-.03.068-.117.082c-.087.015-.162-.07-.162-.07s-.049.083-.108.105c-.06.02-.136-.031-.136-.031l-.022.049c-.009.018-.034.021-.034.021l.02.054c.212-.064.5-.104.825-.104.325 0 .621.04.834.105l.022-.061h-.001Z" fill="#C8B100" stroke="#000" stroke-width=".26"/><path d="m19.168 25.021.03.006a.113.113 0 0 0-.006.043c0 .067.054.12.122.12.054 0 .1-.035.116-.083.002.001.012-.043.017-.043.003 0 .003.046.005.046.008.06.06.102.12.102a.12.12 0 0 0 .123-.121c0-.005 0-.01-.002-.014l.039-.04.02.05a.118.118 0 0 0-.01.053c0 .064.051.115.116.115.04 0 .075-.02.096-.051l.025-.033v.04c0 .04.016.076.054.082 0 0 .042.003.1-.043.057-.047.087-.086.087-.086l.004.048s-.056.096-.107.125c-.027.017-.07.036-.104.029-.035-.006-.06-.036-.073-.07a.164.164 0 0 1-.088.025.168.168 0 0 1-.155-.098.168.168 0 0 1-.127.057.177.177 0 0 1-.139-.066.168.168 0 0 1-.119.05.176.176 0 0 1-.146-.08.178.178 0 0 1-.146.08.168.168 0 0 1-.12-.05.177.177 0 0 1-.137.066.169.169 0 0 1-.128-.057.168.168 0 0 1-.242.073c-.013.034-.039.064-.075.07-.033.007-.075-.012-.103-.029a.476.476 0 0 1-.111-.125l.007-.048a.7.7 0 0 0 .089.085c.057.047.1.044.1.044.037-.006.053-.042.053-.081v-.041l.024.033a.116.116 0 0 0 .213-.064.106.106 0 0 0-.01-.052l.02-.05.038.04v.013c0 .067.053.12.12.12a.12.12 0 0 0 .122-.1c.002 0 .002-.047.005-.047.005 0 .015.044.017.043a.121.121 0 0 0 .116.083.12.12 0 0 0 .122-.12c0-.015 0-.03-.005-.043l.031-.006h.002Z" fill="#C8B100" stroke="#000" stroke-width=".26"/><path d="M19.165 25.334a3.04 3.04 0 0 0-.84.107c-.015.005-.032-.007-.037-.02a.03.03 0 0 1 .02-.036 2.95 2.95 0 0 1 .857-.112c.338 0 .644.044.858.112a.03.03 0 0 1 .02.037c-.005.012-.023.024-.037.019a3.06 3.06 0 0 0-.841-.107Z" fill="#C8B100" stroke="#000" stroke-width=".26" stroke-linejoin="round"/><path d="M18.044 25.194s-.041-.055-.071-.083a.257.257 0 0 0-.075-.038c0-.01.031-.032.064-.032a.06.06 0 0 1 .05.023l.004-.023s.026.006.038.037c.013.033.006.082.006.082s-.006.022-.016.034Zm.207-.089-.012.075-.154.017-.023-.014.005-.026.116-.099.068.047Z" fill="#C8B100" stroke="#000" stroke-width=".26"/><path d="M18.046 25.165c.013-.014.04-.01.058.007.02.017.026.043.013.057-.013.015-.04.011-.058-.007-.02-.017-.026-.043-.013-.057Zm.281.015c-.007-.02 0-.042.014-.048.015-.003.033.01.04.031.007.022 0 .043-.015.048-.014.005-.032-.01-.04-.03Zm.073-.096.056.055.134-.075.01-.024-.019-.02-.153-.013-.028.077Z" fill="#C8B100" stroke="#000" stroke-width=".26"/><path d="m18.554 24.824-.073.073.094.13.025.01.018-.02.033-.156-.097-.037Z" fill="#C8B100" stroke="#000" stroke-width=".26"/><path d="m18.803 25-.028.072-.154-.015-.02-.018.012-.026.133-.073.057.06Z" fill="#C8B100" stroke="#000" stroke-width=".26"/><path d="M18.6 25.093a.054.054 0 1 0 0-.107.054.054 0 0 0 0 .107Zm.26-.019c-.003-.023.008-.042.023-.045.015-.002.03.015.033.038.003.022-.008.042-.023.043-.015.003-.03-.014-.033-.036Zm.099-.081.044.065.147-.048.015-.02-.017-.023-.145-.045-.044.071Z" fill="#C8B100" stroke="#000" stroke-width=".26"/><path d="m19.165 24.755-.095.06.07.156.024.016.025-.015.07-.158-.095-.06Z" fill="#C8B100" stroke="#000" stroke-width=".26"/><path d="m19.37 24.993-.042.065-.147-.048-.015-.02.015-.023.147-.045.043.071Z" fill="#C8B100" stroke="#000" stroke-width=".26"/><path d="M19.165 25.043a.054.054 0 1 0 0-.107.054.054 0 0 0 0 .107Zm.312.031c.002-.023-.009-.042-.024-.045-.015-.002-.03.015-.033.038-.002.022.008.042.023.043.016.003.03-.014.034-.036Zm.054-.074.029.072.153-.015.02-.018-.011-.026-.134-.073-.057.06Z" fill="#C8B100" stroke="#000" stroke-width=".26"/><path d="m19.78 24.824.073.073-.095.13-.025.01-.018-.02-.033-.156.097-.037Z" fill="#C8B100" stroke="#000" stroke-width=".26"/><path d="m19.935 25.084-.056.055-.134-.075-.01-.024.02-.02.154-.013.026.077Z" fill="#C8B100" stroke="#000" stroke-width=".26"/><path d="M19.733 25.093a.054.054 0 1 0 0-.107.054.054 0 0 0 0 .107Zm.273.087c.007-.02 0-.042-.014-.048-.015-.003-.033.01-.04.031-.007.022 0 .043.015.048.014.005.032-.01.04-.03Zm.264.014s.04-.055.072-.083c.02-.021.073-.038.073-.038 0-.01-.03-.032-.063-.032a.06.06 0 0 0-.05.023l-.004-.023s-.026.006-.04.037c-.012.033-.003.082-.003.082s.004.022.014.034Zm-.21-.089.013.075.153.017.023-.014-.005-.026-.116-.099-.067.047Z" fill="#C8B100" stroke="#000" stroke-width=".26"/><path d="M20.27 25.165c-.013-.014-.039-.01-.059.007-.02.017-.026.043-.013.057.013.015.04.011.06-.007.02-.017.025-.043.012-.057Z" fill="#C8B100" stroke="#000" stroke-width=".26"/><path d="m18.332 25.57.034-.057.071.014-.041.064-.064-.021Z" fill="#AD1519" stroke="#000" stroke-width=".26"/><path d="m18.639 25.514-.076.012a.037.037 0 0 1-.041-.03.036.036 0 0 1 .03-.04l.076-.01.078-.013c.02-.002.037.01.04.028a.034.034 0 0 1-.03.04l-.077.013Z" fill="#058E6E" stroke="#000" stroke-width=".26"/><path d="M18.896 25.503a.048.048 0 0 0 .048-.047.047.047 0 0 0-.048-.047.047.047 0 0 0-.048.047c0 .026.021.047.048.047Z" fill="#fff" stroke="#000" stroke-width=".26"/><path d="M19.17 25.476h-.105a.036.036 0 0 1-.036-.035c0-.02.016-.035.035-.035h.215c.02 0 .036.016.036.035 0 .02-.016.035-.036.035h-.108Z" fill="#AD1519" stroke="#000" stroke-width=".26"/><path d="M19.439 25.503a.047.047 0 0 0 .048-.047.047.047 0 0 0-.048-.047.047.047 0 0 0-.048.047c0 .026.021.047.048.047Z" fill="#fff" stroke="#000" stroke-width=".26"/><path d="m19.696 25.514.075.012c.02.003.039-.01.042-.03a.035.035 0 0 0-.03-.04l-.076-.01-.078-.013c-.02-.002-.038.01-.04.028-.004.02.01.038.029.04l.078.013Z" fill="#058E6E" stroke="#000" stroke-width=".26"/><path d="m19.997 25.573-.027-.06-.073.006.035.068.065-.014Z" fill="#AD1519" stroke="#000" stroke-width=".26"/><path d="M19.165 25.782a2.78 2.78 0 0 1-.69-.074c.183-.05.424-.079.69-.08.267 0 .51.03.694.08a2.809 2.809 0 0 1-.694.074Z" fill="#AD1519" stroke="#000" stroke-width=".26" stroke-linejoin="round"/><path d="M19.291 25.773v-.133m-.063.137v-.14m-.046.142v-.143" stroke="#000" stroke-width=".01"/><path d="M19.143 25.78v-.144" stroke="#000" stroke-width=".02"/><path d="M19.104 25.78v-.144" stroke="#000" stroke-width=".03"/><path d="M19.068 25.78v-.144m-.035.144v-.144" stroke="#000" stroke-width=".04"/><path d="M19.002 25.78v-.144" stroke="#000" stroke-width=".05"/><path d="M18.942 25.773v-.131m.029.133v-.138" stroke="#000" stroke-width=".06"/><path d="M18.887 25.767v-.12m.028.123v-.128" stroke="#000" stroke-width=".07"/><path d="M18.813 25.76v-.106m.025.108v-.112m.025.116v-.116" stroke="#000" stroke-width=".08"/><path d="M18.787 25.76v-.103" stroke="#000" stroke-width=".09"/><path d="M18.76 25.755v-.097" stroke="#000" stroke-width=".1"/><path d="M18.734 25.751v-.089" stroke="#000" stroke-width=".11"/><path d="M18.68 25.743v-.07m.028.075v-.08m-.054.07v-.063" stroke="#000" stroke-width=".12"/><path d="M18.629 25.733v-.052" stroke="#000" stroke-width=".13"/><path d="M18.602 25.726v-.04" stroke="#000" stroke-width=".14"/><path d="M18.574 25.723v-.031" stroke="#000" stroke-width=".15"/><path d="M18.545 25.716v-.015" stroke="#000" stroke-width=".18"/><path d="M20.876 37.697a.905.905 0 0 1-.43-.099.92.92 0 0 0-.424-.093.944.944 0 0 0-.428.094.917.917 0 0 1-.43.099.9.9 0 0 1-.43-.103.931.931 0 0 0-.415-.09.9.9 0 0 0-.423.092.916.916 0 0 1-.433.1v.275a.93.93 0 0 0 .433-.1.9.9 0 0 1 .423-.093c.159 0 .305.035.415.09.11.061.262.103.43.103a.915.915 0 0 0 .43-.098.93.93 0 0 1 .428-.096.92.92 0 0 1 .423.095c.112.062.26.1.429.1l.002-.276Z" fill="#005BBF" stroke="#000" stroke-width=".39"/><path d="M20.876 37.972a.903.903 0 0 1-.43-.1.92.92 0 0 0-.424-.094.928.928 0 0 0-.428.096.917.917 0 0 1-.43.098.914.914 0 0 1-.43-.102.931.931 0 0 0-.415-.092.9.9 0 0 0-.423.094.93.93 0 0 1-.433.1v.275c.168 0 .32-.04.433-.1a.9.9 0 0 1 .423-.094c.159 0 .305.035.415.091a.9.9 0 0 0 .43.103.93.93 0 0 0 .43-.098.928.928 0 0 1 .428-.096c.165 0 .314.037.423.096.112.06.26.098.429.098l.002-.275Z" fill="#CCC" stroke="#000" stroke-width=".39"/><path d="M20.876 38.247a.918.918 0 0 1-.43-.098.905.905 0 0 0-.424-.096.928.928 0 0 0-.428.096.93.93 0 0 1-.43.098.9.9 0 0 1-.43-.103.931.931 0 0 0-.415-.09.9.9 0 0 0-.423.093.93.93 0 0 1-.433.1v.274a.916.916 0 0 0 .433-.1.915.915 0 0 1 .423-.092c.159 0 .305.034.415.09a.9.9 0 0 0 .43.102.917.917 0 0 0 .43-.097.929.929 0 0 1 .428-.095.92.92 0 0 1 .423.094c.112.062.26.098.429.098l.002-.274Z" fill="#005BBF" stroke="#000" stroke-width=".39"/><path d="M20.874 38.797a.894.894 0 0 1-.429-.1.92.92 0 0 0-.422-.093.929.929 0 0 0-.429.095.931.931 0 0 1-.43.098.914.914 0 0 1-.43-.103.915.915 0 0 0-.415-.09.9.9 0 0 0-.423.092.93.93 0 0 1-.433.1v-.273a.915.915 0 0 0 .433-.103.915.915 0 0 1 .423-.09c.159 0 .305.033.415.09a.9.9 0 0 0 .43.1.917.917 0 0 0 .43-.096.929.929 0 0 1 .428-.095.92.92 0 0 1 .423.094.89.89 0 0 0 .431.098l-.002.276Z" fill="#CCC" stroke="#000" stroke-width=".39"/><path d="M20.874 39.071a.908.908 0 0 1-.429-.098.905.905 0 0 0-.422-.095.928.928 0 0 0-.429.095.931.931 0 0 1-.43.098.914.914 0 0 1-.43-.102.915.915 0 0 0-.415-.091.9.9 0 0 0-.423.093.93.93 0 0 1-.433.1V38.8a.929.929 0 0 0 .433-.103.9.9 0 0 1 .423-.092c.159 0 .305.034.415.09.11.06.262.103.43.103a.93.93 0 0 0 .43-.098.929.929 0 0 1 .428-.095.92.92 0 0 1 .423.093c.112.062.261.1.431.1l-.002.274Z" fill="#005BBF" stroke="#000" stroke-width=".39"/><path d="M18.208 36.568c.005.024.014.046.014.071 0 .166-.14.3-.308.3h2.514a.304.304 0 0 1-.308-.3c0-.024.004-.047.01-.07a.134.134 0 0 1-.049.006h-1.828a.15.15 0 0 1-.045-.007Z" fill="#C8B100" stroke="#000" stroke-width=".39" stroke-linejoin="round"/><path d="M18.252 36.397h1.83c.062 0 .11.04.11.088 0 .05-.048.09-.11.09h-1.83c-.061 0-.111-.04-.111-.09 0-.049.05-.088.111-.088Zm-.334 1.207h2.506v-.665h-2.506v.665Z" fill="#C8B100" stroke="#000" stroke-width=".39"/><path d="M18.275 36.288h1.78V27.21h-1.78v9.078Z" fill="#CCC" stroke="#000" stroke-width=".39"/><path d="M19.547 27.223v9.059m.2-9.059v9.059" stroke="#000" stroke-width=".39"/><path d="M17.951 26.49h2.442v-.666h-2.442v.666Z" fill="#C8B100" stroke="#000" stroke-width=".39"/><path d="M18.208 26.933a.096.096 0 0 1 .045-.008h1.828c.019 0 .035.004.05.01a.16.16 0 0 1-.108-.151c0-.07.05-.13.113-.152a.203.203 0 0 1-.053.01h-1.83a.148.148 0 0 1-.052-.007l.01.002a.15.15 0 0 1 .103.147.158.158 0 0 1-.106.15Z" fill="#C8B100" stroke="#000" stroke-width=".39" stroke-linejoin="round"/><path d="M18.252 26.925h1.83c.062 0 .11.04.11.09 0 .05-.048.09-.11.09h-1.83c-.061 0-.111-.04-.111-.09 0-.05.05-.09.111-.09Zm0-.435h1.83c.063 0 .113.034.113.076 0 .042-.05.076-.113.076h-1.83c-.061 0-.111-.034-.111-.076 0-.042.05-.076.111-.076Z" fill="#C8B100" stroke="#000" stroke-width=".39"/><path d="M17.72 34.042c-.248.149-.416.301-.389.378.013.07.092.122.205.2.177.128.285.357.2.463a.67.67 0 0 0-.017-1.04Z" fill="#AD1519" stroke="#000" stroke-width=".39"/><path d="M21.877 30.605c-.388-.166-1.049-.29-1.807-.317a5.43 5.43 0 0 0-.854.08c-1.065.186-1.877.629-1.812.989l.005.03s-.398-.937-.405-.972c-.071-.4.828-.891 2.01-1.097.372-.065.734-.09 1.048-.086.756 0 1.414.101 1.81.254l.005 1.12Z" fill="#AD1519" stroke="#000" stroke-width=".39" stroke-linejoin="round"/><path d="M18.274 31.745c-.494-.036-.83-.174-.87-.388-.03-.171.137-.362.435-.534.133.016.283.034.438.034l-.003.889Zm1.786-.694c.309.05.54.13.655.227l.011.02c.055.117-.216.367-.67.646l.004-.893Z" fill="#AD1519" stroke="#000" stroke-width=".39"/><path d="M17.167 33.497c-.047-.146.435-.44 1.116-.7.31-.115.567-.236.886-.382.946-.436 1.644-.935 1.558-1.116l-.01-.02c.05.044.13.94.13.94.085.166-.554.659-1.425 1.092-.278.139-.867.365-1.144.466-.497.179-.99.518-.945.643l-.166-.922v-.001Z" fill="#AD1519" stroke="#000" stroke-width=".39" stroke-linejoin="round"/><path d="M35.512 25.127s-.08.09-.14.102c-.058.011-.133-.056-.133-.056s-.052.058-.118.073c-.065.016-.154-.075-.154-.075s-.063.09-.118.113c-.055.02-.123-.028-.123-.028s-.026.045-.072.07c-.02.01-.052-.006-.052-.006l-.066-.043-.075-.082-.067-.028s-.031-.104-.034-.122l-.01-.065c-.013-.074.096-.16.253-.196a.431.431 0 0 1 .226-.002c.062-.055.195-.093.35-.093.142 0 .265.03.333.08a.6.6 0 0 1 .332-.08c.156 0 .287.038.35.093a.436.436 0 0 1 .227.002c.155.037.266.122.252.196l-.01.065c-.002.018-.034.122-.034.122l-.068.028-.075.082-.063.043s-.033.016-.053.006c-.047-.024-.072-.07-.072-.07s-.068.048-.124.028c-.056-.022-.117-.113-.117-.113s-.09.09-.156.075c-.064-.015-.117-.073-.117-.073s-.075.067-.133.056c-.059-.013-.139-.102-.139-.102Z" fill="#AD1519" stroke="#000" stroke-width=".27"/><path d="M35.51 24.87c.084 0 .152-.1.152-.224 0-.123-.068-.223-.151-.223-.084 0-.152.1-.152.223 0 .124.068.224.152.224Z" fill="#C8B100" stroke="#000" stroke-width=".26"/><path d="M35.514 24.853c.038 0 .07-.092.07-.206 0-.114-.032-.207-.07-.207-.038 0-.069.093-.069.207 0 .114.031.206.07.206Z" fill="#C8B100" stroke="#000" stroke-width=".26"/><path d="M35.512 24.49a.101.101 0 0 0 .102-.1.1.1 0 0 0-.102-.1.101.101 0 0 0-.102.1c0 .055.046.1.102.1Z" fill="#C8B100"/><path d="M35.654 24.355v.066h-.277v-.066h.103v-.149h-.068v-.066h.068v-.066h.067v.066h.067v.066h-.067v.149h.107Z" fill="#C8B100" stroke="#000" stroke-width=".3"/><path d="M35.542 24.295a.102.102 0 0 1 .057.043.099.099 0 0 1-.022.13.103.103 0 0 1-.133-.003.1.1 0 0 1-.016-.13.103.103 0 0 1 .058-.041" stroke="#000" stroke-width=".26"/><path d="M34.368 25.078a.35.35 0 0 1-.024-.123c0-.181.138-.328.31-.328.055 0 .105.015.15.042" stroke="#000" stroke-width=".26" stroke-linecap="round"/><path d="M34.924 24.844a.201.201 0 0 1-.031-.096c0-.131.13-.237.289-.237a.34.34 0 0 1 .18.051m.734.285a.21.21 0 0 0 .027-.1c0-.13-.129-.236-.289-.236-.068 0-.13.02-.18.051" stroke="#000" stroke-width=".26"/><path d="M36.646 25.078a.351.351 0 0 0 .023-.123c0-.181-.138-.328-.309-.328a.289.289 0 0 0-.151.042" stroke="#000" stroke-width=".26" stroke-linecap="round"/><path d="M34.276 24.978a.05.05 0 0 0 .05-.05.05.05 0 0 0-.05-.048.05.05 0 1 0 0 .098Zm.019-.18a.05.05 0 0 0 .05-.049.05.05 0 0 0-.05-.049.05.05 0 0 0-.049.05.05.05 0 0 0 .05.048Zm.112-.137a.05.05 0 1 0 0-.098.05.05 0 0 0-.05.049.05.05 0 0 0 .05.049Zm.146-.074a.05.05 0 0 0 .05-.049.05.05 0 0 0-.05-.049.05.05 0 0 0-.05.05.05.05 0 0 0 .05.048Zm.158.007a.05.05 0 0 0 .05-.049.05.05 0 0 0-.05-.049.05.05 0 0 0-.049.05.05.05 0 0 0 .05.048Z" stroke="#000" stroke-width=".21"/><path d="M34.81 24.796a.05.05 0 0 0 .048-.05.05.05 0 0 0-.049-.048.05.05 0 1 0 0 .098Z" fill="#fff" stroke="#000" stroke-width=".21"/><path d="M34.836 24.624a.05.05 0 0 0 .05-.049.05.05 0 0 0-.05-.049.05.05 0 0 0-.049.05.05.05 0 0 0 .05.048Zm.124-.107a.05.05 0 0 0 .049-.049.05.05 0 0 0-.099 0 .05.05 0 0 0 .05.05Zm.156-.051a.05.05 0 0 0 .049-.049.05.05 0 0 0-.05-.049.05.05 0 0 0-.049.05.05.05 0 0 0 .05.048Zm.156.006a.05.05 0 0 0 .05-.049.05.05 0 0 0-.1 0c0 .027.023.05.05.05Zm.468 0a.05.05 0 0 0 .05-.049.05.05 0 0 0-.099 0c0 .027.023.05.05.05Zm.16-.006a.05.05 0 0 0 .05-.049.05.05 0 0 0-.05-.049.05.05 0 1 0 0 .098Zm.155.051a.05.05 0 0 0 .05-.049.05.05 0 0 0-.1 0 .05.05 0 0 0 .05.05Zm.123.107a.05.05 0 0 0 .05-.049.05.05 0 0 0-.05-.049.05.05 0 0 0-.05.05.05.05 0 0 0 .05.048Z" stroke="#000" stroke-width=".21"/><path d="M36.206 24.796a.05.05 0 0 0 .049-.05.05.05 0 0 0-.05-.048.05.05 0 0 0-.049.049.05.05 0 0 0 .05.049Z" fill="#fff" stroke="#000" stroke-width=".21"/><path d="M36.301 24.594a.05.05 0 0 0 .05-.049.05.05 0 0 0-.05-.049.05.05 0 1 0 0 .098Zm.159-.007a.05.05 0 0 0 .049-.049.05.05 0 0 0-.05-.049.05.05 0 1 0 0 .098Zm.15.074a.05.05 0 0 0 .05-.049.05.05 0 0 0-.05-.049.05.05 0 0 0-.05.049.05.05 0 0 0 .05.049Zm.111.137a.05.05 0 0 0 .05-.049.05.05 0 0 0-.05-.049.05.05 0 0 0-.05.05.05.05 0 0 0 .05.048Zm.018.18a.05.05 0 0 0 .05-.05.05.05 0 0 0-.05-.048.05.05 0 1 0 0 .098Z" stroke="#000" stroke-width=".21"/><path d="M34.731 25.564c-.021-.065-.063-.123-.063-.123.214-.065.51-.106.84-.107.33.001.63.042.843.107l-.057.104a.801.801 0 0 0-.042.092 2.53 2.53 0 0 0-.745-.093c-.305 0-.598.04-.751.098a.597.597 0 0 0-.026-.078h.002Z" fill="#C8B100" stroke="#000" stroke-width=".26"/><path d="M35.51 25.847c.266-.001.56-.043.669-.072.072-.023.115-.056.107-.096a.068.068 0 0 0-.04-.043 2.652 2.652 0 0 0-.736-.091c-.288 0-.577.037-.736.091a.068.068 0 0 0-.04.043c-.008.04.034.073.107.096.108.029.403.07.67.072Zm.855-.53-.064-.06s-.063.038-.14.027c-.077-.013-.102-.111-.102-.111s-.087.076-.158.07c-.071-.006-.117-.07-.117-.07s-.078.058-.146.053c-.068-.007-.133-.095-.133-.095s-.069.091-.137.098c-.068.006-.123-.062-.123-.062s-.031.068-.118.082c-.086.015-.16-.07-.16-.07s-.05.083-.11.105c-.058.02-.135-.031-.135-.031l-.022.049c-.009.018-.034.021-.034.021l.02.054c.211-.064.5-.104.825-.104.325 0 .621.04.834.105l.022-.061h-.002Z" fill="#C8B100" stroke="#000" stroke-width=".26"/><path d="m35.511 25.021.03.006a.112.112 0 0 0-.006.043c0 .067.055.12.123.12.054 0 .1-.035.116-.083.001.001.012-.043.017-.043.003 0 .003.046.005.046.008.06.06.102.12.102a.12.12 0 0 0 .122-.121v-.014l.038-.04.02.05a.118.118 0 0 0-.01.053c0 .064.05.115.116.115.04 0 .075-.02.096-.051l.025-.033v.04c0 .04.016.076.054.082 0 0 .041.003.1-.043a.637.637 0 0 0 .087-.086l.004.048s-.056.096-.107.125c-.027.017-.07.036-.104.029-.035-.006-.06-.036-.073-.07a.164.164 0 0 1-.088.025.168.168 0 0 1-.156-.098.168.168 0 0 1-.127.057.177.177 0 0 1-.138-.066.168.168 0 0 1-.12.05.176.176 0 0 1-.145-.08.178.178 0 0 1-.147.08.169.169 0 0 1-.12-.05.176.176 0 0 1-.136.066.169.169 0 0 1-.128-.057.168.168 0 0 1-.242.073c-.014.034-.039.064-.075.07-.033.007-.076-.012-.103-.029a.475.475 0 0 1-.112-.125l.008-.048s.032.039.089.085c.057.047.1.044.1.044.037-.006.053-.042.053-.081v-.041l.024.033c.021.03.056.051.097.051a.115.115 0 0 0 .116-.115.105.105 0 0 0-.011-.052l.02-.05.039.04-.001.013c0 .067.054.12.121.12a.12.12 0 0 0 .122-.1c.001 0 .001-.047.005-.047.005 0 .015.044.017.043a.122.122 0 0 0 .116.083.12.12 0 0 0 .122-.12c0-.015 0-.03-.006-.043l.032-.006h.001Z" fill="#C8B100" stroke="#000" stroke-width=".26"/><path d="M35.508 25.334c-.33.001-.626.042-.84.107-.014.005-.032-.007-.036-.02a.03.03 0 0 1 .02-.036 2.95 2.95 0 0 1 .856-.112c.34 0 .645.044.858.112a.03.03 0 0 1 .02.037c-.004.012-.022.024-.036.019a3.06 3.06 0 0 0-.842-.107Z" fill="#C8B100" stroke="#000" stroke-width=".26" stroke-linejoin="round"/><path d="M34.388 25.194c-.001 0-.042-.055-.071-.083-.022-.021-.075-.038-.075-.038 0-.01.03-.032.064-.032a.06.06 0 0 1 .049.023l.004-.023s.027.006.039.037c.013.033.005.082.005.082s-.005.022-.015.034Zm.207-.089-.012.075-.154.017-.023-.014.005-.026.116-.099.068.047Z" fill="#C8B100" stroke="#000" stroke-width=".26"/><path d="M34.39 25.165c.013-.014.04-.01.058.007.02.017.026.043.013.057-.013.015-.04.011-.058-.007-.02-.017-.026-.043-.013-.057Zm.28.015c-.006-.02 0-.042.015-.048.015-.003.033.01.04.031.007.022 0 .043-.015.048-.014.005-.032-.01-.04-.03Zm.074-.096.056.055.134-.075.01-.024-.02-.02-.152-.013-.028.077Z" fill="#C8B100" stroke="#000" stroke-width=".26"/><path d="m34.898 24.824-.074.073.095.13.025.01.018-.02.033-.156-.097-.037Z" fill="#C8B100" stroke="#000" stroke-width=".26"/><path d="m35.147 25-.029.072-.153-.015-.02-.018.011-.026.134-.073.057.06Z" fill="#C8B100" stroke="#000" stroke-width=".26"/><path d="M34.944 25.093a.054.054 0 1 0 0-.107.054.054 0 0 0 0 .107Zm.26-.019c-.004-.023.007-.042.023-.045.015-.002.03.015.033.038.003.022-.008.042-.023.043-.016.003-.031-.014-.033-.036Zm.099-.081.044.065.146-.048.016-.02-.017-.023-.145-.045-.044.071Z" fill="#C8B100" stroke="#000" stroke-width=".26"/><path d="m35.508 24.755-.094.06.07.156.024.016.024-.015.07-.158-.094-.06Z" fill="#C8B100" stroke="#000" stroke-width=".26"/><path d="m35.715 24.993-.043.065-.147-.048-.015-.02.015-.023.147-.045.043.071Z" fill="#C8B100" stroke="#000" stroke-width=".26"/><path d="M35.509 25.043a.054.054 0 1 0 0-.107.054.054 0 0 0 0 .107Zm.312.031c.002-.023-.009-.042-.024-.045-.015-.002-.03.015-.033.038-.002.022.008.042.023.043.015.003.03-.014.034-.036Zm.054-.074.029.072.153-.015.02-.018-.011-.026-.134-.073-.057.06Z" fill="#C8B100" stroke="#000" stroke-width=".26"/><path d="m36.123 24.824.073.073-.094.13-.025.01-.019-.02-.033-.156.098-.037Z" fill="#C8B100" stroke="#000" stroke-width=".26"/><path d="m36.279 25.084-.056.055-.134-.075-.01-.024.02-.02.153-.013.027.077Z" fill="#C8B100" stroke="#000" stroke-width=".26"/><path d="M36.077 25.093a.054.054 0 1 0 0-.107.054.054 0 0 0 0 .107Zm.273.087c.007-.02 0-.042-.014-.048-.015-.003-.033.01-.04.031-.007.022 0 .043.015.048.014.005.032-.01.04-.03Zm.263.014c.001 0 .042-.055.072-.083a.244.244 0 0 1 .074-.038c0-.01-.03-.032-.064-.032a.06.06 0 0 0-.05.023l-.004-.023s-.026.006-.039.037c-.012.033-.003.082-.003.082s.004.022.014.034Zm-.209-.089.012.075.154.017.023-.014-.006-.026-.115-.099-.068.047Z" fill="#C8B100" stroke="#000" stroke-width=".26"/><path d="M36.613 25.165c-.012-.014-.038-.01-.058.007-.02.017-.026.043-.013.057.013.015.04.011.06-.007.019-.017.024-.043.011-.057Z" fill="#C8B100" stroke="#000" stroke-width=".26"/><path d="m34.676 25.57.034-.057.071.014-.042.064-.063-.021Z" fill="#AD1519" stroke="#000" stroke-width=".26"/><path d="m34.983 25.514-.076.012a.037.037 0 0 1-.041-.03.036.036 0 0 1 .03-.04l.076-.01.078-.013c.02-.002.037.01.04.028.002.02-.01.038-.03.04l-.077.013Z" fill="#058E6E" stroke="#000" stroke-width=".26"/><path d="M35.24 25.503a.048.048 0 0 0 .048-.047.047.047 0 0 0-.048-.047.047.047 0 0 0-.049.047c0 .026.022.047.049.047Z" fill="#fff" stroke="#000" stroke-width=".26"/><path d="M35.514 25.476h-.105a.036.036 0 0 1-.036-.035c0-.02.015-.035.035-.035h.215a.035.035 0 1 1 0 .07h-.109Z" fill="#AD1519" stroke="#000" stroke-width=".26"/><path d="M35.783 25.503a.048.048 0 0 0 .048-.047.047.047 0 0 0-.048-.047.047.047 0 0 0-.049.047c0 .026.022.047.049.047Z" fill="#fff" stroke="#000" stroke-width=".26"/><path d="m36.04 25.514.075.012c.02.003.038-.01.042-.03a.035.035 0 0 0-.03-.04l-.077-.01-.077-.013c-.02-.002-.039.01-.04.028a.033.033 0 0 0 .029.04l.077.013Z" fill="#058E6E" stroke="#000" stroke-width=".26"/><path d="m36.341 25.573-.027-.06-.074.006.035.068.066-.014Z" fill="#AD1519" stroke="#000" stroke-width=".26"/><path d="M35.509 25.782a2.78 2.78 0 0 1-.69-.074c.182-.05.423-.079.69-.08.267 0 .51.03.693.08a2.808 2.808 0 0 1-.693.074Z" fill="#AD1519" stroke="#000" stroke-width=".26" stroke-linejoin="round"/><path d="M35.635 25.773v-.133m-.064.137.002-.14m-.048.142v-.143" stroke="#000" stroke-width=".01"/><path d="M35.486 25.78v-.144" stroke="#000" stroke-width=".02"/><path d="M35.447 25.78v-.144" stroke="#000" stroke-width=".03"/><path d="M35.412 25.78v-.144m-.035.144v-.144" stroke="#000" stroke-width=".04"/><path d="M35.346 25.78v-.144" stroke="#000" stroke-width=".05"/><path d="M35.286 25.773v-.131m.029.133v-.138" stroke="#000" stroke-width=".06"/><path d="M35.23 25.767v-.12m.029.123-.001-.128" stroke="#000" stroke-width=".07"/><path d="M35.156 25.76v-.106m.026.108v-.112m.025.116v-.116" stroke="#000" stroke-width=".08"/><path d="M35.13 25.76v-.103" stroke="#000" stroke-width=".09"/><path d="M35.103 25.755v-.097" stroke="#000" stroke-width=".1"/><path d="M35.078 25.751v-.089" stroke="#000" stroke-width=".11"/><path d="m35.025 25.743-.002-.07m.029.075v-.08m-.054.07v-.063" stroke="#000" stroke-width=".12"/><path d="M34.973 25.733v-.052" stroke="#000" stroke-width=".13"/><path d="M34.945 25.726v-.04" stroke="#000" stroke-width=".14"/><path d="M34.918 25.723v-.031" stroke="#000" stroke-width=".15"/><path d="M34.889 25.716v-.015" stroke="#000" stroke-width=".18"/><path d="M37.22 37.697a.904.904 0 0 1-.43-.099.92.92 0 0 0-.424-.093.945.945 0 0 0-.428.094.916.916 0 0 1-.43.099.899.899 0 0 1-.43-.103.931.931 0 0 0-.416-.09.9.9 0 0 0-.423.092.915.915 0 0 1-.432.1v.275a.93.93 0 0 0 .432-.1.9.9 0 0 1 .423-.093c.16 0 .306.035.416.09.11.061.261.103.43.103a.915.915 0 0 0 .43-.098.93.93 0 0 1 .428-.096.92.92 0 0 1 .423.095c.112.062.26.1.429.1l.002-.276Z" fill="#005BBF" stroke="#000" stroke-width=".39"/><path d="M37.22 37.972a.903.903 0 0 1-.43-.1.92.92 0 0 0-.424-.094.929.929 0 0 0-.428.096.916.916 0 0 1-.43.098.913.913 0 0 1-.43-.102.931.931 0 0 0-.416-.092.9.9 0 0 0-.423.094.93.93 0 0 1-.432.1v.275c.167 0 .32-.04.432-.1a.9.9 0 0 1 .423-.094c.16 0 .306.035.416.091a.9.9 0 0 0 .43.103.93.93 0 0 0 .43-.098.929.929 0 0 1 .428-.096c.165 0 .314.037.423.096.112.06.26.098.429.098l.002-.275Z" fill="#CCC" stroke="#000" stroke-width=".39"/><path d="M37.22 38.247a.917.917 0 0 1-.43-.098.905.905 0 0 0-.424-.096.929.929 0 0 0-.428.096.93.93 0 0 1-.43.098.899.899 0 0 1-.43-.103.931.931 0 0 0-.416-.09.9.9 0 0 0-.423.093.93.93 0 0 1-.432.1v.274a.915.915 0 0 0 .432-.1.915.915 0 0 1 .423-.092c.16 0 .306.034.416.09a.9.9 0 0 0 .43.102.917.917 0 0 0 .43-.097.93.93 0 0 1 .428-.095.92.92 0 0 1 .423.094c.112.062.26.098.429.098l.002-.274Z" fill="#005BBF" stroke="#000" stroke-width=".39"/><path d="M37.218 38.797a.894.894 0 0 1-.429-.1.92.92 0 0 0-.423-.093.93.93 0 0 0-.428.095.931.931 0 0 1-.43.098.913.913 0 0 1-.43-.103.915.915 0 0 0-.416-.09.9.9 0 0 0-.423.092.93.93 0 0 1-.432.1v-.273a.915.915 0 0 0 .432-.103.915.915 0 0 1 .423-.09.92.92 0 0 1 .416.09.9.9 0 0 0 .43.1.917.917 0 0 0 .43-.096.93.93 0 0 1 .428-.095.92.92 0 0 1 .423.094.89.89 0 0 0 .43.098l-.001.276Z" fill="#CCC" stroke="#000" stroke-width=".39"/><path d="M37.218 39.071a.908.908 0 0 1-.429-.098.905.905 0 0 0-.423-.095.929.929 0 0 0-.428.095.931.931 0 0 1-.43.098.913.913 0 0 1-.43-.102.915.915 0 0 0-.416-.091.9.9 0 0 0-.423.093.93.93 0 0 1-.432.1V38.8a.928.928 0 0 0 .432-.103.901.901 0 0 1 .423-.092c.16 0 .306.034.416.09.11.06.261.103.43.103a.93.93 0 0 0 .43-.098.93.93 0 0 1 .428-.095.92.92 0 0 1 .423.093c.112.062.261.1.43.1l-.001.274Z" fill="#005BBF" stroke="#000" stroke-width=".39"/><path d="M34.551 36.568c.006.024.015.046.015.071 0 .166-.14.3-.308.3h2.513a.304.304 0 0 1-.307-.3c0-.024.004-.047.01-.07a.133.133 0 0 1-.049.006h-1.829a.15.15 0 0 1-.044-.007Z" fill="#C8B100" stroke="#000" stroke-width=".39" stroke-linejoin="round"/><path d="M34.596 36.397h1.829c.062 0 .112.04.112.088 0 .05-.05.09-.112.09h-1.829c-.061 0-.112-.04-.112-.09 0-.049.05-.088.112-.088Zm-.334 1.207h2.506v-.665h-2.506v.665Z" fill="#C8B100" stroke="#000" stroke-width=".39"/><path d="M34.62 36.288h1.78V27.21h-1.78v9.078Z" fill="#CCC" stroke="#000" stroke-width=".39"/><path d="M35.89 27.223v9.059m.201-9.059v9.059" stroke="#000" stroke-width=".39"/><path d="M34.295 26.49h2.442v-.666h-2.442v.666Z" fill="#C8B100" stroke="#000" stroke-width=".39"/><path d="M34.551 26.933a.095.095 0 0 1 .045-.008h1.83a.14.14 0 0 1 .05.01.159.159 0 0 1-.109-.151c0-.07.05-.13.113-.152a.203.203 0 0 1-.054.01h-1.83a.15.15 0 0 1-.051-.007l.01.002a.15.15 0 0 1 .103.147.159.159 0 0 1-.107.15Z" fill="#C8B100" stroke="#000" stroke-width=".39" stroke-linejoin="round"/><path d="M34.596 26.925h1.829c.062 0 .112.04.112.09 0 .05-.05.09-.112.09h-1.829c-.061 0-.112-.04-.112-.09 0-.05.05-.09.112-.09Zm0-.435h1.83c.062 0 .113.034.113.076 0 .042-.05.076-.113.076h-1.83c-.061 0-.112-.034-.112-.076 0-.042.05-.076.112-.076Z" fill="#C8B100" stroke="#000" stroke-width=".39"/><path d="M36.965 34.042c.248.149.417.301.39.378-.014.07-.092.122-.205.2-.178.128-.285.357-.2.463a.67.67 0 0 1 .016-1.04Z" fill="#AD1519" stroke="#000" stroke-width=".39"/><path d="M32.809 30.605c.388-.166 1.049-.29 1.807-.317.262.003.552.029.853.08 1.065.186 1.877.629 1.813.989l-.006.03s.399-.937.406-.972c.07-.4-.829-.891-2.011-1.097a5.794 5.794 0 0 0-1.047-.086c-.757 0-1.414.101-1.81.254l-.005 1.12Z" fill="#AD1519" stroke="#000" stroke-width=".39" stroke-linejoin="round"/><path d="M36.412 31.745c.494-.036.83-.174.87-.388.03-.171-.137-.362-.435-.534a3.644 3.644 0 0 1-.439.034l.004.889Zm-1.786-.694c-.31.05-.54.13-.656.227l-.01.02c-.055.117.215.367.669.646l-.003-.893Z" fill="#AD1519" stroke="#000" stroke-width=".39"/><path d="M37.518 33.497c.047-.146-.435-.44-1.115-.7-.311-.115-.568-.236-.887-.382-.945-.436-1.643-.935-1.558-1.116l.01-.02c-.05.044-.13.94-.13.94-.085.166.554.659 1.425 1.092.279.139.867.365 1.144.466.498.179.99.518.946.643l.165-.922v-.001Z" fill="#AD1519" stroke="#000" stroke-width=".39" stroke-linejoin="round"/><path d="M18.153 30.17c.218-.082.36-.18.292-.358-.045-.114-.157-.136-.326-.072l-.297.113.268.687c.03-.013.059-.027.088-.038.031-.012.063-.021.093-.03l-.118-.301v-.001Zm-.13-.332.076-.029c.063-.023.133.012.165.092.023.06.017.129-.055.176a.46.46 0 0 1-.077.038l-.108-.277Zm.827-.288c-.031.01-.062.019-.093.026-.032.006-.065.01-.097.014l.155.715.48-.1c-.006-.013-.014-.03-.016-.043-.003-.016-.003-.032-.004-.047a3.376 3.376 0 0 1-.286.075l-.138-.64Zm.963.618c.09-.26.2-.509.308-.76-.02.003-.04.006-.06.007a.53.53 0 0 1-.058 0c-.058.184-.13.366-.205.547-.09-.172-.19-.34-.266-.514l-.113.014c-.038.002-.077.001-.114.002.138.235.271.469.398.71l.055-.009.055.003Zm1.003-.551c.017-.035.034-.068.053-.101a.385.385 0 0 0-.199-.072c-.196-.02-.308.07-.32.193-.03.257.362.235.343.407-.007.072-.082.102-.162.094-.088-.009-.154-.06-.165-.136L20.342 30a.897.897 0 0 1-.053.131c.058.039.133.06.203.067.2.022.353-.061.367-.198.025-.245-.37-.259-.354-.403.007-.06.051-.1.153-.09a.152.152 0 0 1 .138.108l.02.002Zm13.102.59c.068-.265.155-.522.24-.783a.33.33 0 0 1-.058.013c-.019.003-.04.004-.059.006-.04.186-.096.375-.156.563-.105-.164-.219-.324-.31-.49-.037.008-.074.017-.111.022-.038.006-.076.008-.114.013.158.221.312.443.46.674.017-.005.035-.012.055-.014.017-.002.036-.002.053-.003Zm.676-.777c-.032.001-.065.005-.097.004-.032 0-.065-.005-.097-.007l-.013.73.492.01a.228.228 0 0 1-.007-.047c0-.015.005-.03.008-.046a3.358 3.358 0 0 1-.297.01l.01-.654Zm.773.12c.079.007.154.021.23.035-.001-.015-.004-.03-.003-.047.002-.014.007-.03.011-.044l-.665-.057c.002.016.004.03.003.046-.002.016-.007.03-.011.045a2 2 0 0 1 .242.006l-.058.658c.032 0 .064 0 .096.003.033.002.065.008.097.013l.058-.658Zm.273.72c.032.006.065.01.097.017.03.007.063.018.093.027l.08-.336.008.002.053.135.1.253.114.02c.04.01.077.021.114.033l-.034-.077c-.052-.114-.108-.229-.154-.344.122.005.217-.04.24-.143.017-.071-.01-.127-.074-.175-.048-.035-.14-.053-.2-.068l-.268-.06-.168.716Zm.345-.618c.078.019.174.031.174.122a.305.305 0 0 1-.007.055c-.025.107-.103.144-.233.104l.066-.28Zm.923.838c-.006.079-.02.156-.034.24.032.016.066.03.098.05a.933.933 0 0 1 .094.06l.066-.825a.318.318 0 0 1-.085-.049l-.7.462c.02.009.039.018.056.028.02.01.035.022.052.032.06-.051.12-.093.19-.148l.263.15Zm-.199-.189.234-.156-.028.273-.206-.117Z" fill="#C8B100"/><path d="M27.273 20.83c.728 0 1.377.113 1.799.286.24.114.565.197.92.248.27.037.527.044.75.027.3-.007.731.084 1.164.283.357.165.656.366.855.56l-.172.159-.05.451-.47.561-.236.209-.558.464-.285.024-.086.256-3.607-.44-3.617.44-.087-.256-.286-.024-.557-.464-.235-.209-.471-.56-.049-.452-.173-.16c.2-.193.498-.394.855-.56.433-.198.864-.289 1.164-.282.223.017.48.01.75-.027.355-.05.68-.134.92-.248.424-.173 1.035-.286 1.762-.286Z" fill="#AD1519" stroke="#000" stroke-width=".26"/><path d="m24.61 21.822.15.126.229-.387a.886.886 0 0 1-.41-.846c.023-.495.603-.903 1.337-.903.381 0 .726.108.968.282a3.86 3.86 0 0 1 .023-.212 1.924 1.924 0 0 0-.991-.26c-.845 0-1.506.501-1.538 1.091a1.071 1.071 0 0 0 .352.902l-.12.207Z" fill="#C8B100" stroke="#000" stroke-width=".39"/><path d="M24.62 21.826c-.288-.224-.468-.529-.468-.864 0-.385.244-.73.612-.959a1.021 1.021 0 0 0-.39.816c0 .314.138.6.357.796l-.11.211Z" fill="#C8B100" stroke="#000" stroke-width=".39"/><path d="M22.075 22.218a1.067 1.067 0 0 1-.16-1.148c.233-.5.966-.864 1.836-.864a2.9 2.9 0 0 1 .672.077c-.046.052-.082.11-.118.169a2.797 2.797 0 0 0-.554-.055c-.797 0-1.464.323-1.657.758a.878.878 0 0 0 .226 1.028l-.289.49-.154-.127.198-.328Z" fill="#C8B100" stroke="#000" stroke-width=".39"/><path d="M22.37 20.575c-.21.138-.368.306-.456.495a1.066 1.066 0 0 0 .161 1.147l-.175.296a1.269 1.269 0 0 1-.265-.764c0-.479.292-.897.735-1.174Zm4.948-1.051c.192 0 .359.133.398.312.026.157.042.336.045.526.002.02 0 .04 0 .06 0 .022.004.046.005.07.006.4.061.754.139.97l-.587.586-.595-.586c.079-.216.133-.57.141-.97 0-.024.004-.048.004-.07v-.06c.003-.19.019-.369.044-.526a.414.414 0 0 1 .406-.312Z" fill="#C8B100" stroke="#000" stroke-width=".39"/><path d="M27.317 19.715c.1 0 .184.066.205.158.025.15.04.32.044.5l-.001.054c0 .023.003.045.004.068.005.378.058.712.133.917l-.388.382-.388-.382c.073-.205.126-.539.132-.917 0-.023.005-.045.005-.068l-.001-.054c.003-.18.018-.35.043-.5.02-.092.112-.158.212-.158Zm2.701 2.107-.153.126-.228-.387a.884.884 0 0 0 .411-.846c-.023-.495-.602-.903-1.336-.903-.383 0-.727.108-.97.282a3.003 3.003 0 0 0-.023-.212c.267-.161.613-.26.992-.26.845 0 1.506.501 1.538 1.091a1.072 1.072 0 0 1-.353.902l.122.207Z" fill="#C8B100" stroke="#000" stroke-width=".39"/><path d="M30.009 21.826c.288-.224.468-.529.468-.864 0-.385-.244-.73-.612-.959a1.022 1.022 0 0 1 .39.816c0 .314-.139.6-.358.796l.112.211Z" fill="#C8B100" stroke="#000" stroke-width=".39"/><path d="M32.554 22.218a1.072 1.072 0 0 0 .161-1.148c-.234-.5-.966-.864-1.836-.864-.237 0-.463.027-.674.077.047.052.083.11.12.169.173-.036.36-.055.554-.055.796 0 1.463.323 1.656.758a.878.878 0 0 1-.226 1.028l.288.49.156-.127-.199-.328Z" fill="#C8B100" stroke="#000" stroke-width=".39"/><path d="M32.258 20.575c.21.138.368.306.456.495a1.066 1.066 0 0 1-.161 1.147l.175.296c.167-.224.264-.486.264-.764 0-.479-.293-.897-.734-1.174Z" fill="#C8B100" stroke="#000" stroke-width=".39"/><path d="M27.317 19.55a.482.482 0 0 0 .486-.478.482.482 0 0 0-.486-.479.482.482 0 0 0-.485.48c0 .264.217.478.485.478Z" fill="#005BBF" stroke="#000" stroke-width=".26"/><path d="M27.19 17.731v.258h-.265v.262h.265v.754h-.334c-.003.024-.024.042-.024.067 0 .066.013.13.038.187 0 .002.003.002.004.003h.89s.002 0 .003-.003a.482.482 0 0 0 .038-.187c0-.025-.02-.043-.024-.067h-.324v-.754h.265v-.262h-.265v-.258h-.267Z" fill="#C8B100" stroke="#000" stroke-width=".26"/><path d="M27.313 21.744c.115 0 .21-.091.21-.205a.207.207 0 0 0-.21-.205.207.207 0 0 0-.21.205c0 .113.094.205.21.205Z" fill="#fff" stroke="#000" stroke-width=".39"/><path d="M27.313 21.34c.115 0 .21-.091.21-.205a.207.207 0 0 0-.21-.205.207.207 0 0 0-.21.205c0 .114.094.206.21.206Zm0-.474a.165.165 0 0 0 .167-.164.165.165 0 0 0-.167-.164.165.165 0 0 0-.166.164c0 .09.074.164.166.164Zm.003-.435a.12.12 0 0 0 .12-.119.12.12 0 0 0-.12-.118.12.12 0 0 0-.12.118.12.12 0 0 0 .12.119Zm-.001-.366a.096.096 0 0 0 .097-.094.096.096 0 0 0-.097-.095.095.095 0 0 0-.096.095c0 .052.043.094.096.094Zm-5.601 2.702a.12.12 0 0 0 .12-.119.12.12 0 0 0-.12-.118.12.12 0 0 0-.12.118.12.12 0 0 0 .12.119Zm-.164-.302a.12.12 0 0 0 .12-.119.12.12 0 0 0-.12-.119.12.12 0 0 0-.12.12.12.12 0 0 0 .12.118Zm-.11-.351a.12.12 0 0 0 .121-.119.12.12 0 0 0-.12-.119.12.12 0 0 0-.12.119.12.12 0 0 0 .12.119Zm-.013-.376a.12.12 0 0 0 .12-.119.12.12 0 0 0-.12-.119.12.12 0 0 0-.12.119.12.12 0 0 0 .12.119Zm.088-.37a.12.12 0 0 0 .12-.119.12.12 0 0 0-.12-.118.12.12 0 0 0-.12.118.12.12 0 0 0 .12.119Zm.185-.336a.12.12 0 0 0 .121-.119.12.12 0 0 0-.12-.118.12.12 0 0 0-.12.118.12.12 0 0 0 .12.119Zm.249-.277a.12.12 0 0 0 .12-.119.12.12 0 0 0-.12-.118.12.12 0 0 0-.12.118.12.12 0 0 0 .12.119Zm.287-.229a.12.12 0 0 0 .12-.119.12.12 0 0 0-.12-.118.12.12 0 0 0-.12.118.12.12 0 0 0 .12.119Zm.34-.188a.12.12 0 0 0 .12-.119.12.12 0 0 0-.12-.118.12.12 0 0 0-.12.118.12.12 0 0 0 .12.119Zm.357-.134a.12.12 0 0 0 .12-.119.12.12 0 0 0-.12-.118.12.12 0 0 0-.12.118.12.12 0 0 0 .12.119Zm.395-.074a.12.12 0 0 0 .12-.118.12.12 0 0 0-.12-.119.12.12 0 0 0-.121.119.12.12 0 0 0 .12.118Zm.378-.02a.12.12 0 0 0 .121-.119.12.12 0 0 0-.12-.118.12.12 0 0 0-.121.118.12.12 0 0 0 .12.119Zm.368.013a.12.12 0 0 0 .12-.118.12.12 0 0 0-.12-.119.12.12 0 0 0-.12.119.12.12 0 0 0 .12.118Zm.41 1.692a.12.12 0 0 0 .12-.118.12.12 0 0 0-.12-.119.12.12 0 0 0-.12.119.12.12 0 0 0 .12.118Zm-.205-.305a.12.12 0 0 0 .12-.118.12.12 0 0 0-.12-.119.12.12 0 0 0-.12.119.12.12 0 0 0 .12.119Zm-.108-.33a.12.12 0 0 0 .12-.119.12.12 0 0 0-.12-.118.12.12 0 0 0-.12.118.12.12 0 0 0 .12.119Zm.012-.363a.12.12 0 0 0 .12-.118.12.12 0 0 0-.12-.119.12.12 0 0 0-.12.119.12.12 0 0 0 .12.118Zm.077-.364a.12.12 0 0 0 .12-.119.12.12 0 0 0-.12-.118.12.12 0 0 0-.121.118.12.12 0 0 0 .12.119Zm.183-.33a.12.12 0 0 0 .12-.118.12.12 0 0 0-.12-.119.12.12 0 0 0-.12.119.12.12 0 0 0 .12.118Zm.281-.229a.12.12 0 0 0 .12-.118.12.12 0 0 0-.12-.119.12.12 0 0 0-.12.119.12.12 0 0 0 .12.118Zm.328-.189a.12.12 0 0 0 .12-.119.12.12 0 0 0-.12-.118.12.12 0 0 0-.12.118.12.12 0 0 0 .12.119Zm.361-.113a.12.12 0 0 0 .121-.118.12.12 0 0 0-.12-.119.12.12 0 0 0-.121.119.12.12 0 0 0 .12.118Zm.377-.067a.12.12 0 0 0 .121-.119.12.12 0 0 0-.12-.118.12.12 0 0 0-.121.118.12.12 0 0 0 .12.119Zm.37.005a.12.12 0 0 0 .12-.118.12.12 0 0 0-.12-.118.12.12 0 0 0-.12.118.12.12 0 0 0 .12.119Zm.382.068a.12.12 0 0 0 .12-.12.12.12 0 0 0-.12-.118.12.12 0 0 0-.12.119.12.12 0 0 0 .12.119Zm.354.127a.12.12 0 0 0 .12-.118.12.12 0 0 0-.12-.119.12.12 0 0 0-.12.119.12.12 0 0 0 .12.118Zm.83 0a.12.12 0 0 0 .12-.118.12.12 0 0 0-.12-.119.12.12 0 0 0-.12.119.12.12 0 0 0 .12.118Zm.355-.127a.12.12 0 0 0 .121-.12.12.12 0 0 0-.12-.118.12.12 0 0 0-.121.119.12.12 0 0 0 .12.119Zm.385-.068a.12.12 0 0 0 .12-.118.12.12 0 0 0-.12-.118.12.12 0 0 0-.12.118.12.12 0 0 0 .12.119Zm.367-.005a.12.12 0 0 0 .12-.119.12.12 0 0 0-.12-.118.12.12 0 0 0-.12.118.12.12 0 0 0 .12.119Zm.377.067a.12.12 0 0 0 .12-.118.12.12 0 0 0-.12-.119.12.12 0 0 0-.12.119.12.12 0 0 0 .12.118Zm.362.113a.12.12 0 0 0 .12-.119.12.12 0 0 0-.12-.118.12.12 0 0 0-.12.118.12.12 0 0 0 .12.119Zm.328.189a.12.12 0 0 0 .12-.118.12.12 0 0 0-.12-.119.12.12 0 0 0-.12.119.12.12 0 0 0 .12.118Zm.281.229a.12.12 0 0 0 .12-.118.12.12 0 0 0-.12-.119.12.12 0 0 0-.12.119.12.12 0 0 0 .12.118Zm.184.33a.12.12 0 0 0 .12-.119.12.12 0 0 0-.12-.118.12.12 0 0 0-.12.118.12.12 0 0 0 .12.119Zm.075.364a.12.12 0 0 0 .121-.118.12.12 0 0 0-.12-.119.12.12 0 0 0-.12.119.12.12 0 0 0 .12.118Zm.014.363a.12.12 0 0 0 .121-.119.12.12 0 0 0-.12-.118.12.12 0 0 0-.121.118.12.12 0 0 0 .12.119Zm-.109.33a.12.12 0 0 0 .12-.118.12.12 0 0 0-.12-.119.12.12 0 0 0-.12.119.12.12 0 0 0 .12.119Zm-.205.305a.12.12 0 0 0 .12-.118.12.12 0 0 0-.12-.119.12.12 0 0 0-.12.119.12.12 0 0 0 .12.118Zm.41-1.692a.12.12 0 0 0 .12-.118.12.12 0 0 0-.12-.119.12.12 0 0 0-.12.119.12.12 0 0 0 .12.118Zm.37-.013a.12.12 0 0 0 .12-.119.12.12 0 0 0-.12-.118.12.12 0 0 0-.121.118.12.12 0 0 0 .12.119Zm.376.02a.12.12 0 0 0 .12-.118.12.12 0 0 0-.12-.119.12.12 0 0 0-.12.119.12.12 0 0 0 .12.118Zm.397.074a.12.12 0 0 0 .12-.119.12.12 0 0 0-.12-.118.12.12 0 0 0-.12.118.12.12 0 0 0 .12.119Zm.355.134a.12.12 0 0 0 .12-.119.12.12 0 0 0-.12-.118.12.12 0 0 0-.12.118.12.12 0 0 0 .12.119Zm.342.188a.12.12 0 0 0 .12-.119.12.12 0 0 0-.12-.118.12.12 0 0 0-.12.118.12.12 0 0 0 .12.119Zm.287.229a.12.12 0 0 0 .12-.119.12.12 0 0 0-.12-.118.12.12 0 0 0-.12.118.12.12 0 0 0 .12.119Zm.246.277a.12.12 0 0 0 .12-.119.12.12 0 0 0-.12-.118.12.12 0 0 0-.12.118.12.12 0 0 0 .12.119Zm.184.336a.12.12 0 0 0 .12-.119.12.12 0 0 0-.12-.118.12.12 0 0 0-.12.118.12.12 0 0 0 .12.119Zm.09.37a.12.12 0 0 0 .12-.119.12.12 0 0 0-.12-.119.12.12 0 0 0-.12.119.12.12 0 0 0 .12.119Zm-.014.376a.12.12 0 0 0 .12-.119.12.12 0 0 0-.12-.119.12.12 0 0 0-.12.119.12.12 0 0 0 .12.119Zm-.109.351a.12.12 0 0 0 .12-.119.12.12 0 0 0-.12-.119.12.12 0 0 0-.12.12.12.12 0 0 0 .12.118Zm-.164.302a.12.12 0 0 0 .12-.119.12.12 0 0 0-.12-.118.12.12 0 0 0-.12.118.12.12 0 0 0 .12.119Z" fill="#fff" stroke="#000" stroke-width=".39"/><path d="M27.325 25.784c-1.343-.002-2.547-.168-3.407-.437a.138.138 0 0 1-.092-.142.133.133 0 0 1 .092-.134c.86-.269 2.064-.434 3.407-.436 1.344.002 2.547.167 3.407.436.06.02.092.074.09.134a.138.138 0 0 1-.09.142c-.86.27-2.063.435-3.407.437Z" fill="#C8B100" stroke="#000" stroke-width=".39"/><path d="M27.318 24.634c-1.36.003-2.58.18-3.44.456.071-.035.065-.128-.024-.365-.107-.288-.274-.276-.274-.276.949-.292 2.272-.474 3.743-.476 1.473.002 2.805.184 3.755.476 0 0-.168-.012-.275.276-.089.237-.095.33-.023.365-.859-.276-2.103-.453-3.462-.456Z" fill="#C8B100" stroke="#000" stroke-width=".39"/><path d="M27.324 23.974c-1.471.002-2.794.184-3.743.476-.063.02-.13-.006-.151-.068a.122.122 0 0 1 .077-.154c.954-.305 2.31-.496 3.817-.5 1.509.004 2.87.195 3.824.5.064.02.098.091.077.154-.021.062-.088.087-.151.068-.95-.292-2.277-.474-3.75-.476Z" fill="#C8B100" stroke="#000" stroke-width=".39"/><path d="m27.333 22.774.135.025a.538.538 0 0 0-.026.186c0 .293.242.53.539.53a.537.537 0 0 0 .511-.366c.009.006.052-.191.075-.189.018.002.016.205.024.202.034.267.27.448.534.448a.534.534 0 0 0 .533-.595l.169-.173.09.22a.496.496 0 0 0-.05.232c0 .28.23.506.514.506a.514.514 0 0 0 .428-.224l.108-.143-.001.175c0 .177.072.334.237.362 0 0 .19.012.441-.194.251-.205.39-.375.39-.375l.021.206s-.208.336-.435.473c-.125.075-.313.154-.463.129-.158-.028-.272-.16-.33-.313a.741.741 0 0 1-.39.11.741.741 0 0 1-.692-.44.747.747 0 0 1-.57.257.783.783 0 0 1-.61-.292.78.78 0 0 1-1.186-.135.78.78 0 0 1-1.184.135.785.785 0 0 1-.611.292.745.745 0 0 1-.569-.256.744.744 0 0 1-.692.44.738.738 0 0 1-.39-.11c-.058.152-.171.284-.33.312-.15.025-.338-.054-.463-.13-.227-.136-.436-.472-.436-.472l.022-.206s.14.17.39.375c.251.207.44.194.44.194.166-.028.237-.185.237-.362v-.175l.108.143c.092.136.25.224.427.224a.51.51 0 0 0 .514-.506.496.496 0 0 0-.05-.231l.09-.221.17.173a.534.534 0 0 0 .534.595.526.526 0 0 0 .534-.448c.006.003.005-.2.024-.202.022-.002.066.195.073.19.07.212.273.365.513.365a.534.534 0 0 0 .538-.53.49.49 0 0 0-.026-.186l.141-.025Z" fill="#C8B100" stroke="#000" stroke-width=".39"/><path d="M22.749 23.52a.257.257 0 0 0-.08-.121c-.086-.078-.2-.09-.258-.029a.113.113 0 0 0-.018.029s-.122-.237-.265-.317c-.14-.08-.382-.06-.382-.06 0-.182.143-.329.328-.329a.34.34 0 0 1 .271.127l.026-.122s.149.03.217.207c.067.177-.007.434-.007.434s.037-.11.093-.184c.056-.073.198-.153.273-.19.073-.035.15-.09.15-.09s.003.021.006.07c.003.058-.002.095-.002.095a.862.862 0 0 1 .42.055.55.55 0 0 1-.287.262s.048.04.091.085c.037.04.048.056.048.056l-.139.022c-.047.006-.202.032-.295.025a1.653 1.653 0 0 1-.19-.025Z" fill="#C8B100" stroke="#000" stroke-width=".39"/><path d="M22.413 23.37c.056-.061.172-.048.258.03.088.076.112.188.056.249s-.172.048-.259-.029c-.086-.077-.111-.189-.055-.25Z" fill="#AD1519" stroke="#000" stroke-width=".39"/><path d="M23.628 23.473c-.03-.094-.003-.188.062-.208.066-.022.145.037.176.132.03.095.003.188-.063.21-.066.02-.143-.039-.175-.134Z" fill="#fff" stroke="#000" stroke-width=".39"/><path d="M24.694 23.012a.211.211 0 0 1-.074-.123.206.206 0 0 1 .025-.14s-.096-.05-.2-.08a1.222 1.222 0 0 0-.26-.022l-.126-.003a.747.747 0 0 0 .085.148.571.571 0 0 0-.331.238.589.589 0 0 0 .394.11s-.013.04-.022.099c-.006.049-.006.07-.006.07l.117-.045c.038-.015.168-.063.235-.11.088-.061.163-.142.163-.142Z" fill="#C8B100" stroke="#000" stroke-width=".39"/><path d="M24.646 21.848a.606.606 0 0 1 .252.345s.014-.028.078-.067c.064-.038.12-.037.12-.037l-.028.15c-.01.04-.01.158-.035.265a.989.989 0 0 1-.07.192.211.211 0 0 0-.172-.047.205.205 0 0 0-.145.103s-.073-.066-.133-.158c-.06-.092-.102-.203-.124-.237-.023-.034-.078-.13-.078-.13s.051-.021.125-.007c.073.014.096.037.096.037a.595.595 0 0 1 .114-.41Z" fill="#C8B100" stroke="#000" stroke-width=".39"/><path d="M25.007 22.957a.205.205 0 0 0 .026-.14.198.198 0 0 0-.072-.122s.073-.08.161-.144c.066-.046.197-.093.236-.108l.117-.046s0 .021-.007.07c-.009.06-.022.1-.022.1a.58.58 0 0 1 .396.11.576.576 0 0 1-.333.238s.025.032.055.084c.023.045.03.064.03.064l-.126-.003c-.041 0-.18-.001-.26-.023a1.192 1.192 0 0 1-.201-.079" fill="#C8B100"/><path d="M25.007 22.957a.205.205 0 0 0 .026-.14.198.198 0 0 0-.072-.122s.073-.08.161-.144c.066-.046.197-.093.236-.108l.117-.046s0 .021-.007.07c-.009.06-.022.1-.022.1a.58.58 0 0 1 .396.11.576.576 0 0 1-.333.238s.025.032.055.084c.023.045.03.064.03.064l-.126-.003c-.041 0-.18-.001-.26-.023a1.192 1.192 0 0 1-.201-.079" stroke="#000" stroke-width=".39"/><path d="M24.83 23.086a.236.236 0 0 0 .237-.235.236.236 0 0 0-.237-.235.236.236 0 0 0-.238.235c0 .13.106.235.238.235Z" fill="#AD1519" stroke="#000" stroke-width=".39"/><path d="M25.969 23.002c-.012-.1.034-.186.102-.194.069-.008.134.065.146.164.013.098-.032.186-.101.194-.068.008-.134-.065-.147-.165Z" fill="#fff" stroke="#000" stroke-width=".39"/><path d="M27.146 22.78a.228.228 0 0 1-.002-.302s-.097-.076-.207-.128c-.084-.04-.239-.067-.285-.076l-.14-.027a.736.736 0 0 0 .066.182.65.65 0 0 0-.418.2.66.66 0 0 0 .418.2s-.022.041-.044.106a.566.566 0 0 0-.022.077l.14-.028c.046-.009.2-.036.285-.076.11-.053.21-.127.21-.127" fill="#C8B100"/><path d="M27.146 22.78a.228.228 0 0 1-.002-.302s-.097-.076-.207-.128c-.084-.04-.239-.067-.285-.076l-.14-.027a.736.736 0 0 0 .066.182.65.65 0 0 0-.418.2.66.66 0 0 0 .418.2s-.022.041-.044.106a.566.566 0 0 0-.022.077l.14-.028c.046-.009.2-.036.285-.076.11-.053.21-.127.21-.127" stroke="#000" stroke-width=".39"/><path d="M27.323 21.473a.68.68 0 0 1 .214.435s.02-.03.1-.06.14-.018.14-.018-.043.12-.06.161c-.02.043-.043.175-.092.289-.049.114-.116.2-.116.2a.24.24 0 0 0-.366 0s-.066-.086-.115-.2c-.049-.114-.073-.247-.092-.289-.018-.042-.061-.162-.061-.162s.061-.01.14.019c.08.03.101.06.101.06a.684.684 0 0 1 .207-.435Z" fill="#C8B100" stroke="#000" stroke-width=".39"/><path d="M27.502 22.78a.228.228 0 0 0 .002-.302s.098-.076.208-.128c.084-.04.238-.067.285-.076l.138-.027s-.002.022-.02.076a.84.84 0 0 1-.044.106c.16.01.313.092.417.2a.655.655 0 0 1-.417.2.78.78 0 0 0 .064.183l-.138-.028c-.047-.009-.201-.036-.285-.076a1.437 1.437 0 0 1-.21-.127" fill="#C8B100"/><path d="M27.502 22.78a.228.228 0 0 0 .002-.302s.098-.076.208-.128c.084-.04.238-.067.285-.076l.138-.027s-.002.022-.02.076a.84.84 0 0 1-.044.106c.16.01.313.092.417.2a.655.655 0 0 1-.417.2.78.78 0 0 0 .064.183l-.138-.028c-.047-.009-.201-.036-.285-.076a1.437 1.437 0 0 1-.21-.127" stroke="#000" stroke-width=".39"/><path d="M27.326 22.863a.236.236 0 0 0 .237-.235.236.236 0 0 0-.237-.234.236.236 0 0 0-.238.234c0 .13.106.235.238.235Z" fill="#AD1519" stroke="#000" stroke-width=".39"/><path d="M28.688 23.002c.012-.1-.033-.186-.102-.194-.069-.008-.134.065-.147.164-.012.098.034.186.102.194.07.008.135-.065.147-.165Z" fill="#fff" stroke="#000" stroke-width=".39"/><path d="M29.653 22.957a.211.211 0 0 1-.027-.14.205.205 0 0 1 .073-.122s-.073-.08-.16-.144c-.068-.046-.198-.093-.237-.108l-.117-.046s0 .021.007.07c.009.06.02.1.02.1a.578.578 0 0 0-.394.11.574.574 0 0 0 .332.238s-.025.032-.053.084a.605.605 0 0 0-.031.064l.125-.003c.042 0 .182-.001.26-.023.104-.028.201-.079.201-.079" fill="#C8B100"/><path d="M29.653 22.957a.211.211 0 0 1-.027-.14.205.205 0 0 1 .073-.122s-.073-.08-.16-.144c-.068-.046-.198-.093-.237-.108l-.117-.046s0 .021.007.07c.009.06.02.1.02.1a.578.578 0 0 0-.394.11.574.574 0 0 0 .332.238s-.025.032-.053.084a.605.605 0 0 0-.031.064l.125-.003c.042 0 .182-.001.26-.023.104-.028.201-.079.201-.079" stroke="#000" stroke-width=".39"/><path d="M30.015 21.848a.612.612 0 0 0-.253.345s-.014-.028-.078-.067c-.064-.038-.12-.037-.12-.037s.02.11.029.15c.01.04.01.158.034.265.025.106.07.192.07.192a.21.21 0 0 1 .318.056s.072-.066.132-.158c.06-.092.101-.203.123-.237.023-.034.079-.13.079-.13s-.052-.021-.125-.007c-.073.014-.096.037-.096.037a.594.594 0 0 0-.113-.41Z" fill="#C8B100" stroke="#000" stroke-width=".39"/><path d="M29.963 23.012a.201.201 0 0 0 .073-.123.2.2 0 0 0-.024-.14s.097-.05.2-.08c.08-.02.219-.022.26-.022l.125-.003s-.006.019-.03.062a.733.733 0 0 1-.054.086.578.578 0 0 1 .332.238.59.59 0 0 1-.394.11.728.728 0 0 0 .027.168l-.116-.044c-.04-.015-.17-.063-.237-.11-.087-.061-.162-.142-.162-.142Z" fill="#C8B100" stroke="#000" stroke-width=".39"/><path d="M29.83 23.086a.236.236 0 0 0 .237-.235.236.236 0 0 0-.237-.235.236.236 0 0 0-.238.235c0 .13.106.235.238.235Z" fill="#AD1519" stroke="#000" stroke-width=".39"/><path d="M31.03 23.473c.031-.094.004-.188-.062-.208-.066-.022-.144.037-.176.132-.03.095-.003.188.062.21.066.02.145-.039.177-.134Z" fill="#fff" stroke="#000" stroke-width=".39"/><path d="M31.908 23.52a.265.265 0 0 1 .079-.121c.087-.078.203-.09.259-.029.007.008.015.02.02.029 0 0 .12-.237.262-.317.143-.08.384-.06.384-.06a.326.326 0 0 0-.329-.329.338.338 0 0 0-.27.127l-.026-.122s-.149.03-.217.207.006.434.006.434-.036-.11-.092-.184c-.056-.073-.199-.153-.273-.19-.075-.035-.15-.09-.15-.09l-.007.07a.664.664 0 0 0 .002.095.859.859 0 0 0-.42.055c.053.108.154.21.287.262 0 0-.047.04-.091.085a.48.48 0 0 0-.047.056l.139.022c.047.006.201.032.293.025a1.62 1.62 0 0 0 .191-.025Z" fill="#C8B100" stroke="#000" stroke-width=".39"/><path d="M32.247 23.37c-.056-.061-.172-.048-.259.03-.087.076-.112.188-.056.249s.172.048.259-.029c.086-.077.111-.189.056-.25Z" fill="#AD1519" stroke="#000" stroke-width=".39"/><path d="M27.324 25.601c-1.212-.001-2.309-.147-3.142-.372.834-.224 1.93-.361 3.142-.363 1.213.002 2.315.139 3.15.363-.835.225-1.937.37-3.15.372Z" fill="#AD1519" stroke="#000" stroke-width=".39" stroke-linejoin="round"/><path d="M28.191 25.568v-.685m-.33.708.004-.727m-.246.736v-.74" stroke="#000" stroke-width=".05"/><path d="M27.414 25.609v-.75" stroke="#000" stroke-width=".09"/><path d="M27.219 25.609v-.75" stroke="#000" stroke-width=".14"/><path d="M27.035 25.609v-.75" stroke="#000" stroke-width=".18"/><path d="M26.852 25.609v-.75" stroke="#000" stroke-width=".23"/><path d="M26.688 25.609v-.75" stroke="#000" stroke-width=".28"/><path d="m26.377 25.568-.004-.68m.152.689v-.713" stroke="#000" stroke-width=".33"/><path d="M26.09 25.537v-.627m.146.645-.005-.668" stroke="#000" stroke-width=".37"/><path d="M25.705 25.502v-.552m.126.56v-.578m.13.597v-.602" stroke="#000" stroke-width=".42"/><path d="M25.57 25.497v-.533" stroke="#000" stroke-width=".46"/><path d="M25.445 25.47v-.497" stroke="#000" stroke-width=".51"/><path d="M25.31 25.457v-.462" stroke="#000" stroke-width=".56"/><path d="m25.034 25.416-.005-.367m.146.386v-.413" stroke="#000" stroke-width=".6"/><path d="M24.893 25.385v-.324" stroke="#000" stroke-width=".63"/><path d="M24.762 25.36v-.27" stroke="#000" stroke-width=".68"/><path d="M24.621 25.323v-.211" stroke="#000" stroke-width=".73"/><path d="M24.475 25.306v-.158" stroke="#000" stroke-width=".77"/><path d="M24.322 25.27v-.077" stroke="#000" stroke-width=".91"/><path d="M24.035 25.27c.85-.25 2.004-.402 3.287-.404 1.285.002 2.445.155 3.294.403" stroke="#000" stroke-width=".39"/><path d="m23.664 24.756.134-.18.369.048-.295.224-.208-.091Z" fill="#AD1519" stroke="#000" stroke-width=".39"/><path d="M24.465 24.542c0-.066.053-.119.12-.119s.12.053.12.119a.12.12 0 0 1-.12.118.12.12 0 0 1-.12-.118Z" fill="#fff" stroke="#000" stroke-width=".39"/><path d="m25.519 24.518-.259.03a.12.12 0 0 1-.136-.102.117.117 0 0 1 .105-.131l.26-.032.265-.032a.119.119 0 0 1 .134.102.12.12 0 0 1-.105.133l-.264.032Z" fill="#058E6E" stroke="#000" stroke-width=".39"/><path d="M26.273 24.322a.12.12 0 0 1 .121-.119.12.12 0 0 1 .12.119.12.12 0 0 1-.12.118.12.12 0 0 1-.12-.118Z" fill="#fff" stroke="#000" stroke-width=".39"/><path d="M27.328 24.414h-.36a.12.12 0 0 1-.122-.117c0-.066.053-.119.12-.119h.728c.067 0 .12.053.12.119a.12.12 0 0 1-.121.117h-.365Z" fill="#AD1519" stroke="#000" stroke-width=".39"/><path d="M28.139 24.322a.12.12 0 0 1 .12-.119c.067 0 .12.053.12.119a.12.12 0 0 1-.12.118.12.12 0 0 1-.12-.118Z" fill="#fff" stroke="#000" stroke-width=".39"/><path d="m29.136 24.518.259.03a.121.121 0 0 0 .135-.102.118.118 0 0 0-.105-.131l-.26-.032-.265-.032a.118.118 0 1 0-.028.235l.264.032Z" fill="#058E6E" stroke="#000" stroke-width=".39"/><path d="M29.947 24.542a.12.12 0 0 1 .12-.119.12.12 0 0 1 .121.119.12.12 0 0 1-.12.118.12.12 0 0 1-.12-.118Z" fill="#fff" stroke="#000" stroke-width=".39"/><path d="m30.99 24.756-.132-.18-.37.048.295.224.207-.091Z" fill="#AD1519" stroke="#000" stroke-width=".39"/><path d="M27.366 39.254a9.042 9.042 0 0 1-4.049-.974 2.707 2.707 0 0 1-1.463-2.415v-3.797h11.003v3.797a2.705 2.705 0 0 1-1.464 2.415 8.946 8.946 0 0 1-4.027.974Z" fill="#CCC" stroke="#000" stroke-width=".52"/><path d="M27.632 37.569c.23.072.345.25.345.457 0 .271-.252.477-.58.477-.328 0-.594-.206-.594-.477 0-.204.11-.433.337-.449 0 0-.006-.022-.026-.057a11.71 11.71 0 0 0-.07-.075s.086-.017.137.002c.05.02.084.054.084.054s.023-.05.057-.087c.033-.038.077-.06.077-.06s.05.043.067.072c.016.031.027.068.027.068s.046-.04.087-.056a.72.72 0 0 1 .092-.03s-.015.053-.024.079a.452.452 0 0 0-.016.082Z" fill="#FFD691" stroke="#000" stroke-width=".52"/><path d="M27.348 38.797s-.437-.306-.625-.347c-.242-.053-.514-.01-.631-.017.003.003.141.106.201.169.06.062.262.188.376.217.353.093.678-.022.678-.022Zm.125.027s.278-.303.57-.344c.346-.05.573.03.706.066.003 0-.11.056-.17.1-.061.041-.217.178-.454.18-.24.004-.502-.026-.545-.019l-.107.017Z" fill="#058E6E" stroke="#000" stroke-width=".52"/><path d="M27.388 38.45a.588.588 0 0 1-.177-.424c0-.167.068-.317.179-.423a.59.59 0 0 1 .176.423.587.587 0 0 1-.178.424Z" fill="#AD1519" stroke="#000" stroke-width=".52"/><path d="M27.277 39.069s.067-.173.074-.323a1.198 1.198 0 0 0-.017-.247h.088s.043.132.043.247c0 .117-.02.27-.02.27s-.06.01-.08.02c-.02.01-.088.033-.088.033Z" fill="#058E6E" stroke="#000" stroke-width=".52"/><path d="M27.348 35.861c0 1.5-1.223 2.716-2.745 2.716s-2.755-1.215-2.755-2.715V32.06h5.5v3.801Z" fill="#AD1519" stroke="#000" stroke-width=".52"/><path d="M21.838 35.81c.016.8.323 1.396.628 1.786v-5.64h-.62l-.008 3.854Zm1.211 2.292c.172.095.407.254.66.316l-.016-6.493h-.644v6.177Zm1.228.458c.252.027.44.022.643 0v-6.635h-.643v6.636Zm1.209-.142c.252-.052.537-.215.661-.3v-6.193h-.644l-.017 6.493Zm1.258-.884c.268-.249.52-.812.612-1.455l.016-4.154h-.643l.015 5.609Z" fill="#C8B100" stroke="#000" stroke-width=".52"/><path d="M32.86 32.06v3.801c0 1.5-1.235 2.716-2.758 2.716s-2.756-1.216-2.756-2.716v-3.802h5.514Z" fill="#AD1519" stroke="#000" stroke-width=".52"/><path d="M29.8 34.9a.342.342 0 0 1 .021-.046l-.466-.54-.183.082-.336-.386.11-.167-.585-.683c-.008.003-.022.003-.03.005l.003.458.192.057v.508l-.192.055-.003.465c.092.03.162.1.19.19l.352.002.056-.19h.518l.054.19h.3Zm-.764-2.11v.184h.302v-.183h-.302Zm-.8 2.323c.07 0 .127-.056.127-.125a.127.127 0 0 0-.127-.127.127.127 0 0 0-.128.127c0 .07.056.125.128.125Zm1.752-1.11-.193-.054v-.508l.193-.057-.001-.22a.298.298 0 0 1-.196-.19h-.294l-.056.19h-.516l-.056-.19h-.338a.357.357 0 0 1-.032.07l.59.68.182-.082.335.388-.11.165.459.53.03-.014.003-.707Zm-.795-.158-.14.119.193.226.141-.12-.194-.225Zm.877 4.126a.297.297 0 0 1-.275-.23 1.92 1.92 0 0 1-.518-.148l.092-.164c.141.063.291.104.447.127a.294.294 0 0 1 .173-.16l.001-.64-.193-.056v-.509l.193-.054v-.871a.094.094 0 0 1-.022-.01l-.436.503.11.164-.336.388-.183-.08-.361.418a.288.288 0 0 1-.012.325c.103.12.222.225.355.313l-.092.164a1.94 1.94 0 0 1-.416-.367.3.3 0 0 1-.285-.057.29.29 0 0 1-.032-.415l.015-.018a1.874 1.874 0 0 1-.145-.57l.188.001c.015.171.056.334.12.487a.331.331 0 0 1 .16.018l.363-.42-.11-.165.336-.387.183.082.437-.505a.256.256 0 0 1-.023-.053l-.303.001-.055.19h-.517l-.055-.19h-.355a.298.298 0 0 1-.186.184v.46h-.188v-.458a.297.297 0 0 1-.21-.281.3.3 0 0 1 .21-.283l.002-.462-.193-.055v-.508l.193-.057v-.462a.295.295 0 0 1-.202-.279c0-.163.134-.294.3-.294a.3.3 0 0 1 .285.203h.34l.055-.19h.516l.056.19h.294a.298.298 0 0 1 .28-.203l.008.954h-.093v.298h.092l-.002 2.46h-.086v.298h.085l-.005 1.373Zm-.648-2.087-.14-.119-.196.226.141.118.195-.225Zm-1.09-2.102h-.186l-.001.297h.186v-.297Zm1.003 1.3V34.9h-.313v.182h.313Zm-1.162 1.105-.192-.045-.028-.507.192-.066v.292c0 .113.01.219.028.326Zm.16-.63.192.047s.01.328.006.253c-.005-.084.02.256.02.256l-.192.066a1.693 1.693 0 0 1-.027-.318l.001-.303Zm1.185 1.93.043-.193a1.545 1.545 0 0 1-.457-.238l-.138.126c.162.131.35.237.552.306Zm-.093.165-.143.139a2.079 2.079 0 0 1-.451-.24l.041-.203c.165.13.352.232.553.304Z" fill="#C8B100" stroke="#C8B100" stroke-width=".26"/><path d="M30.348 34.9c-.005-.016-.013-.031-.02-.046l.466-.54.183.082.335-.386-.11-.167.586-.683c.007.003.022.003.03.005l-.004.458-.192.057v.508l.192.055.003.465a.292.292 0 0 0-.19.19l-.352.002-.056-.19h-.517l-.055.19h-.299Zm.765-2.11v.184h-.303v-.183h.303Zm.8 2.323a.126.126 0 1 1 0-.252.126.126 0 1 1 0 .252Zm-1.752-1.11.192-.054v-.508l-.192-.057v-.22a.298.298 0 0 0 .197-.19h.293l.056.19h.517l.055-.19h.339a.363.363 0 0 0 .032.07l-.59.68-.183-.082-.335.388.11.165-.459.53-.03-.014-.002-.707Zm.794-.158.141.119-.194.226-.14-.12.193-.225Zm-.877 4.126a.297.297 0 0 0 .276-.23c.182-.026.356-.075.518-.148l-.092-.164a1.71 1.71 0 0 1-.447.127.294.294 0 0 0-.173-.16l-.002-.64.193-.056v-.509l-.193-.054v-.871a.092.092 0 0 0 .022-.01l.436.503-.11.164.336.388.183-.08.362.418a.286.286 0 0 0 .012.325 1.73 1.73 0 0 1-.355.313l.092.164c.155-.101.296-.227.415-.367a.3.3 0 0 0 .285-.057.29.29 0 0 0 .033-.415l-.015-.018c.075-.178.127-.37.144-.57l-.187.001a1.647 1.647 0 0 1-.12.487.33.33 0 0 0-.16.018l-.363-.42.11-.165-.336-.387-.183.082-.437-.505a.25.25 0 0 0 .023-.053l.302.001.055.19h.517l.056-.19h.355c.03.086.099.154.185.184l.001.46h.188v-.458a.297.297 0 0 0 .209-.281.3.3 0 0 0-.21-.283L32 34.243l.193-.055v-.508L32 33.623v-.462a.295.295 0 0 0 .202-.279.296.296 0 0 0-.3-.294.3.3 0 0 0-.285.203h-.339l-.055-.19h-.517l-.056.19h-.293a.297.297 0 0 0-.28-.203l-.008.954h.093v.298h-.093l.003 2.46h.085v.298h-.085l.005 1.373Zm.648-2.087.141-.119.195.226-.141.118-.195-.225Zm1.091-2.102h.185l.002.297h-.187v-.297Zm-1.003 1.3V34.9h.312v.182h-.312Zm1.161 1.105.193-.045.027-.507-.191-.066v.292c0 .113-.01.219-.029.326Zm-.16-.63-.192.047s-.01.328-.005.253c.004-.084-.02.256-.02.256l.192.066c.02-.103.026-.21.026-.318v-.303Zm-1.184 1.93-.043-.193c.166-.055.321-.135.457-.238l.138.126c-.162.131-.35.237-.552.306Zm.093.165.142.139c.161-.062.314-.144.452-.24l-.042-.203a1.978 1.978 0 0 1-.552.304Z" fill="#C8B100" stroke="#C8B100" stroke-width=".26"/><path d="M29.787 34.991c0-.164.135-.296.3-.296.166 0 .3.132.3.296a.296.296 0 0 1-.3.294.297.297 0 0 1-.3-.294Z" fill="#058E6E"/><path d="M21.848 32.063h5.498V25.71h-5.498v6.352Z" fill="#AD1519" stroke="#000" stroke-width=".52"/><path d="M23.735 27.179h-.101v-.105h-.178v.42h.178v.291h-.38v.843h.202v1.686h-.405v.87h3.114v-.87h-.404v-1.686h.202v-.843h-.38v-.29h.178v-.42h-.178v.104h-.102v-.105h-.176v.105h-.127v-.105H25v.42h.178v.291h-.38v-.922H25v-.422h-.202v.106h-.101v-.106h-.178v.106h-.1v-.106h-.204v.422h.203v.922h-.38v-.29h.177v-.42h-.177v.104h-.1v-.105h-.203v.105Zm-.684 4.005h3.114-3.114Zm0-.211h3.114-3.114Zm0-.211h3.114-3.114Zm0-.21h3.114-3.114Zm0-.238h3.114-3.114Zm.405-.185h2.305-2.305Zm0-.21h2.305-2.305Zm0-.238h2.305-2.305Zm0-.21h2.305-2.305Zm0-.21h2.305-2.305Zm0-.211h2.305-2.305Zm0-.211h2.305-2.305Zm-.203-.211h2.71-2.71Zm0-.211h2.71-2.71Zm0-.21h2.71-2.71Zm0-.21h2.71-2.71Zm.38-.212h1.95-1.95Zm.785-.21h.38-.38Zm0-.211h.38-.38Zm0-.211h.38-.38Zm0-.211h.38-.38Zm-.203-.264H25h-.785Zm-.581.897h.404-.404Zm-.178-.264h.76-.76Zm0 3.873v-.211.21Zm0-.422v-.21.21Zm-.203 0v.21-.21Zm.38.21v-.21.21Zm.202.212v-.211.21Zm0-.422v-.21.21Zm0-.448v-.185.185Zm0-.396v-.237.237Zm-.201.633v-.237.237Zm-.38 0v-.237.237Zm.784-.237v.237-.237Zm.177 0v-.185.185Zm-.581-.396v.211-.21Zm.404 0v.211-.21Zm.38 0v.211-.21Zm-.203 0v-.237.237Zm.203-.447v.21-.21Zm0-.421v.21-.21Zm-.203-.211v.21-.21Zm.203-.211v.21-.21Zm-.38 0v.21-.21Zm-.404 0v.21-.21Zm-.178-.211v.21-.21Zm.38 0v.21-.21Zm.38 0v.21-.21Zm.202-.21v.21-.21Zm-.38 0v.21-.21Zm-.404 0v.21-.21Zm-.178-.21v.21-.21Zm.76 0v.21-.21Zm-.38-.422v.21-.21Zm1.747 0h-.405.405Zm.178-.264H25h.76Zm0 3.873v-.211.21Zm0-.422v-.21.21Zm.202 0v.21-.21Zm-.38.21v-.21.21Zm-.203.212v-.211.21Zm0-.422v-.21.21Zm0-.448v-.185.185Zm0-.396v-.237.237Zm.203.633v-.237.237Zm.38 0v-.237.237Zm-.785-.237v.237-.237Zm-.178 0v-.185.185Zm.583-.396v.211-.21Zm-.405 0v.211-.21Zm-.38 0v.211-.21Zm.202 0v-.237.237Zm-.202-.447v.21-.21Zm0-.421v.21-.21Zm.202-.211v.21-.21Zm-.202-.211v.21-.21Zm.38 0v.21-.21Zm.405 0v.21-.21Zm.178-.211v.21-.21Zm-.38 0v.21-.21Zm-.38 0v.21-.21Zm-.203-.21v.21-.21Zm.38 0v.21-.21Zm.405 0v.21-.21Zm.178-.21v.21-.21Zm-.76 0v.21-.21Zm.38-.422v.21-.21Zm-.785 2.343v-.237.237Zm0-.868v-.211.21Zm0 .421v-.21.21Zm0-.843v-.211.21Zm0-.422v-.21.21Zm0-.631v-.211.21Zm0-.422v-.211.21Zm-.962.342h.404-.404Zm.784-.632h.38-.38Zm.76.632h.405-.405Z" fill="#C8B100"/><path d="M23.634 27.495h-.178v-.42h.178v.104h.1v-.105h.203v.105h.101v-.105h.177v.42h-.177m-.404 0v.291m0-.29h.404m-.404.29h-.38v.843m.38-.843h1.949m-2.33.843h.203m-.203 0h2.71m-2.507 0v1.686h-.405m.405-1.686v-.211m-.405 1.897v.87h3.114v-.87m-3.114 0h3.114m0 0h-.404v-1.686m0 0h.202m-.203 0v-.211m.203.21v-.841h-.38m0 0v-.291m0 0h.178v-.42h-.178v.104h-.102v-.105h-.176v.105h-.127v-.105H25v.42h.178m.405 0h-.405m0 0v.291h-.38v-.922m0 0H25v-.422h-.202v.106h-.101v-.106h-.178v.106h-.1v-.106h-.204v.422h.203m.38 0h-.38m0 0v.922h-.38v-.29m-.987 3.478h3.114m-3.114-.211h3.114m-3.114-.21h3.114m-2.709-.423h2.305m-2.305-.21h2.305m-2.305-.238h2.305m-2.305-.21h2.305m-2.305-.21h2.305m-2.305-.211h2.305m-2.305-.211h2.305m-2.508-.422h2.71m-2.71-.21h2.71m-2.71-.21h2.71m-1.545-.422h.38m-.38-.211h.38m-.38-.211h.38m-.38-.211h.38m-.582-.264H25m-1.366.897h.404m-.582-.264h.76m-.76 3.873v-.211m0-.211v-.21m-.203.21v.21m.38 0v-.21m.202.422v-.211m0-.211v-.21m0-.238v-.185m0-.21v-.238m-.201.87v-.237m-.38.237v-.237m.784 0v.237m.177-.237v-.185m-.581-.21v.21m.404-.21v.21m.38-.21v.21m-.203-.21v-.238m.203-.21v.21m0-.631v.21m-.203-.421v.21m.203-.421v.21m-.38-.21v.21m-.404-.21v.21m.201-.421v.21m.38-.21v.21m.203-.42v.21m-.38-.21v.21m-.404-.21v.21m-.178-.42v.21m.76-.21v.21m-.38-.632v.21m1.747-.21h-.405m.582-.264H25m.76 3.873v-.211m0-.211v-.21m.203.21v.21m-.38 0v-.21m-.203.422v-.211m0-.211v-.21m0-.238v-.185m0-.21v-.238m.203.87v-.237m.38.237v-.237m-.785 0v.237M25 30.314v-.185m.583-.21v.21m-.405-.21v.21m-.38-.21v.21m.202-.21v-.238m-.202-.21v.21m0-.631v.21m.202-.42v.21m-.202-.421v.21m.38-.21v.21m.405-.21v.21m-.203-.421v.21m-.38-.21v.21m-.202-.42v.21m.38-.21v.21m.405-.21v.21m.178-.42v.21m-.76-.21v.21m.38-.632v.21m-.785 2.133v-.237m0-.631v-.211m0 .633v-.211m0-.633v-.211m0-.21v-.21m0-.422v-.211m0-.211v-.211" stroke="#000" stroke-width=".46"/><path d="M25.125 31.184v-.554c0-.105-.05-.422-.53-.422-.457 0-.507.317-.507.422v.554h1.037Z" fill="#C8B100" stroke="#000" stroke-width=".46"/><path d="m24.265 30.655-.253-.026c0-.105.025-.263.102-.316l.227.185c-.025.026-.076.105-.076.157Zm.431-.262.127-.238a.587.587 0 0 0-.228-.052.578.578 0 0 0-.202.052l.126.238h.177Zm.253.262.253-.026c0-.105-.025-.263-.101-.316l-.228.185c.025.026.076.105.076.157Zm-.734-.92v-.58c0-.158-.101-.29-.279-.29-.177 0-.278.132-.278.29v.58h.557Zm.787 0v-.58c0-.158.102-.29.28-.29.176 0 .278.132.278.29v.58h-.558Zm-.964-1.423.025-.527h-.481l.052.527h.404Zm.762 0 .05-.527h-.48l.024.527h.406Zm.377 0-.05-.527h.506l-.05.527h-.406Z" fill="#C8B100" stroke="#000" stroke-width=".46"/><path d="M24.951 31.183v-.474c0-.08-.05-.317-.354-.317-.278 0-.33.237-.33.317v.474h.684Zm-.784-1.503v-.5c0-.13-.076-.263-.228-.263-.152 0-.228.132-.228.263v.5h.456Zm.886 0v-.5c0-.13.075-.263.228-.263.15 0 .228.132.228.263v.5h-.456Z" fill="#0039F0"/><path d="M27.342 32.063h5.513V25.71h-5.513v6.352Z" fill="#CCC" stroke="#000" stroke-width=".52"/><path d="m30.153 27.276.005-.071.01-.039s-.177.015-.27-.012a.668.668 0 0 1-.263-.143c-.086-.078-.12-.125-.183-.134-.149-.026-.263.045-.263.045a.5.5 0 0 0 .195.15.54.54 0 0 0 .214.174c.065.02.292.006.353.008.062.003.202.021.202.021Z" fill="#DB4446" stroke="#000" stroke-width=".39"/><path d="M30.977 27.018s0 .082.009.16c.006.076-.024.141-.012.183.012.042.017.075.032.106.016.03.023.107.023.107l-.08-.061c-.039-.031-.066-.05-.066-.05l.01.117a.326.326 0 0 0 .056.141c.032.038.096.102.115.152.02.051.016.164.016.164s-.05-.085-.095-.101c-.043-.016-.139-.071-.139-.071s.087.09.087.177a.634.634 0 0 1-.035.182s-.04-.077-.091-.128c-.051-.05-.124-.102-.124-.102s.057.133.057.222c0 .09-.016.282-.016.282s-.043-.073-.087-.11c-.044-.035-.095-.066-.112-.089-.015-.024.053.073.06.133.007.058.035.268.21.534.103.156.262.43.603.34.34-.089.214-.567.142-.789a2.075 2.075 0 0 1-.103-.555c.004-.086.064-.339.056-.386a.998.998 0 0 1 .015-.374c.044-.152.08-.211.104-.274.023-.063.043-.098.05-.153.008-.054.008-.156.008-.156s.064.12.08.164a.835.835 0 0 1 .016.171s.012-.128.107-.19c.095-.063.206-.129.233-.164a.27.27 0 0 0 .037-.059s-.01.22-.068.305c-.04.056-.194.238-.194.238s.08-.032.135-.034a.544.544 0 0 1 .095 0s-.068.055-.155.187-.051.144-.115.253c-.063.11-.115.114-.195.18-.118.1-.055.495-.04.554.017.058.223.543.228.66.003.118.023.38-.176.547-.127.109-.336.11-.384.14-.047.032-.142.13-.142.332 0 .204.07.235.126.287.056.05.128.022.143.062.016.039.024.062.048.086.023.022.04.05.032.093-.009.043-.1.14-.132.211-.031.07-.095.254-.095.282 0 .027-.008.113.02.156 0 0 .1.12.032.144-.044.015-.086-.029-.107-.023-.059.016-.09.053-.107.051-.04-.008-.04-.028-.044-.087-.003-.058-.001-.082-.019-.082-.024 0-.036.02-.04.052-.005.03-.005.101-.032.101s-.067-.051-.09-.063c-.025-.011-.092-.022-.096-.054-.003-.031.04-.097.083-.11.044-.011.083-.034.056-.058-.029-.023-.056-.023-.083 0-.028.024-.087.005-.084-.03.005-.036.013-.08.008-.099-.003-.02-.051-.058.011-.093.065-.036.092.03.156.02.063-.012.094-.036.118-.075.024-.039.02-.12-.024-.171-.043-.051-.087-.06-.103-.091-.015-.031-.04-.105-.04-.105s.012.137.005.156c-.008.02-.005.102-.005.102s-.042-.052-.078-.09c-.035-.04-.072-.157-.072-.157l-.003.153c0 .042.047.082.032.098-.017.015-.091-.082-.112-.098-.02-.016-.083-.066-.11-.12a.849.849 0 0 1-.056-.162c-.008-.027-.021-.149-.008-.18.02-.045.051-.128.051-.128h-.154c-.083 0-.143-.027-.174.032-.032.058-.017.175.023.328.04.151.063.226.052.253a.36.36 0 0 1-.083.101c-.02.013-.076.008-.1-.003a.28.28 0 0 0-.138-.03c-.075 0-.122.003-.15-.004-.028-.008-.096-.044-.128-.036s-.087.037-.071.083c.024.069-.023.085-.056.081-.032-.004-.058-.015-.099-.027-.04-.012-.098 0-.09-.048.007-.046.023-.05.043-.084.02-.037.027-.06.004-.062-.027-.002-.055-.005-.076.013-.022.018-.056.058-.083.043-.029-.016-.05-.049-.05-.123 0-.073-.075-.137-.006-.133.067.003.154.055.17.015.015-.04.006-.059-.031-.09-.037-.03-.083-.048-.034-.087.05-.04.061-.04.08-.062.02-.02.046-.09.08-.073.069.035.003.084.072.162.068.079.11.107.226.095.114-.013.146-.027.146-.062 0-.033-.01-.093-.014-.118-.002-.024.017-.113.017-.113s-.053.034-.07.067a1.493 1.493 0 0 1-.045.091s-.012-.068-.009-.124c.002-.033.013-.09.012-.101-.003-.031-.025-.108-.025-.108s-.018.084-.03.108a.579.579 0 0 0-.018.122s-.074-.066-.053-.177c.014-.086-.013-.198.012-.235.024-.038.082-.187.226-.193.142-.005.253.006.303.004.05-.004.226-.038.226-.038s-.325-.173-.399-.226a1.116 1.116 0 0 1-.227-.246c-.037-.061-.07-.18-.07-.18s-.059.002-.113.033a.565.565 0 0 0-.136.113c-.03.037-.08.12-.08.12s.01-.107.01-.14c0-.034-.007-.098-.007-.098s-.036.145-.11.2a3.42 3.42 0 0 0-.162.131s.009-.08.009-.1c0-.018.018-.113.018-.113s-.052.082-.132.098c-.081.015-.198.013-.208.064-.01.051.021.122.003.158a.184.184 0 0 1-.06.062s-.045-.04-.086-.043c-.04-.004-.078.018-.078.018s-.034-.046-.02-.077c.012-.03.073-.075.059-.094-.017-.018-.066.007-.097.021-.03.017-.096.031-.09-.021.006-.051.022-.082.006-.119-.015-.036-.006-.06.02-.07.024-.008.122.003.132-.02.009-.025-.024-.056-.09-.07-.064-.016-.096-.056-.062-.09a.234.234 0 0 0 .06-.072c.014-.031.021-.087.08-.058.058.027.046.094.109.115a.449.449 0 0 0 .237-.028c.031-.018.13-.094.165-.113.034-.017.176-.127.176-.127s-.083-.06-.115-.091c-.03-.031-.085-.104-.114-.12a.976.976 0 0 0-.21-.073c-.046-.002-.189-.055-.189-.055s.065-.021.087-.04c.02-.018.07-.064.095-.06l.03.002s-.132-.006-.16-.015c-.027-.009-.109-.061-.14-.061a.654.654 0 0 0-.091.012s.083-.054.15-.067c.069-.011.121-.01.121-.01s-.105-.03-.13-.065c-.024-.038-.05-.091-.068-.117-.019-.023-.03-.063-.065-.067-.034-.003-.093.044-.127.04-.034-.003-.059-.025-.062-.076-.002-.053 0-.034-.011-.062-.013-.027-.063-.091-.017-.106.048-.016.146.01.156-.009.009-.018-.052-.074-.093-.095-.04-.021-.105-.058-.071-.088.034-.03.068-.043.086-.07.019-.027.04-.104.081-.08.04.024.096.144.127.135.031-.01.033-.095.028-.131-.007-.037 0-.1.03-.095.031.006.056.049.106.052.049.003.123-.012.117.024a.279.279 0 0 1-.068.121.19.19 0 0 0-.027.171.449.449 0 0 0 .127.169c.049.033.142.058.201.097.058.04.195.153.241.165a.577.577 0 0 1 .093.037s.053-.024.124-.024c.072 0 .235.011.297-.016.063-.028.143-.073.119-.131-.026-.059-.161-.11-.15-.155.013-.046.063-.05.146-.053.084-.002.198.016.22-.107.021-.12.028-.192-.09-.219-.118-.027-.204-.03-.226-.119-.022-.088-.043-.11-.019-.134.026-.024.068-.037.155-.042.087-.007.186-.007.214-.029.028-.02.033-.078.067-.103.034-.024.168-.046.168-.046s.16.08.307.195c.132.102.252.254.252.254" fill="#ED72AA"/><path d="M30.977 27.018s0 .082.009.16c.006.076-.024.141-.012.183.012.042.017.075.032.106.016.03.023.107.023.107l-.08-.061c-.039-.031-.066-.05-.066-.05l.01.117a.326.326 0 0 0 .056.141c.032.038.096.102.115.152.02.051.016.164.016.164s-.05-.085-.095-.101c-.043-.016-.139-.071-.139-.071s.087.09.087.177a.634.634 0 0 1-.035.182s-.04-.077-.091-.128c-.051-.05-.124-.102-.124-.102s.057.133.057.222c0 .09-.016.282-.016.282s-.043-.073-.087-.11c-.044-.035-.095-.066-.112-.089-.015-.024.053.073.06.133.007.058.035.268.21.534.103.156.262.43.603.34.34-.089.214-.567.142-.789a2.075 2.075 0 0 1-.103-.555c.004-.086.064-.339.056-.386a.998.998 0 0 1 .015-.374c.044-.152.08-.211.104-.274.023-.063.043-.098.05-.153.008-.054.008-.156.008-.156s.064.12.08.164a.835.835 0 0 1 .016.171s.012-.128.107-.19c.095-.063.206-.129.233-.164a.27.27 0 0 0 .037-.059s-.01.22-.068.305c-.04.056-.194.238-.194.238s.08-.032.135-.034a.544.544 0 0 1 .095 0s-.068.055-.155.187-.051.144-.115.253c-.063.11-.115.114-.195.18-.118.1-.055.495-.04.554.017.058.223.543.228.66.003.118.023.38-.176.547-.127.109-.336.11-.384.14-.047.032-.142.13-.142.332 0 .204.07.235.126.287.056.05.128.022.143.062.016.039.024.062.048.086.023.022.04.05.032.093-.009.043-.1.14-.132.211-.031.07-.095.254-.095.282 0 .027-.008.113.02.156 0 0 .1.12.032.144-.044.015-.086-.029-.107-.023-.059.016-.09.053-.107.051-.04-.008-.04-.028-.044-.087-.003-.058-.001-.082-.019-.082-.024 0-.036.02-.04.052-.005.03-.005.101-.032.101s-.067-.051-.09-.063c-.025-.011-.092-.022-.096-.054-.003-.031.04-.097.083-.11.044-.011.083-.034.056-.058-.029-.023-.056-.023-.083 0-.028.024-.087.005-.084-.03.005-.036.013-.08.008-.099-.003-.02-.051-.058.011-.093.065-.036.092.03.156.02.063-.012.094-.036.118-.075.024-.039.02-.12-.024-.171-.043-.051-.087-.06-.103-.091-.015-.031-.04-.105-.04-.105s.012.137.005.156c-.008.02-.005.102-.005.102s-.042-.052-.078-.09c-.035-.04-.072-.157-.072-.157l-.003.153c0 .042.047.082.032.098-.017.015-.091-.082-.112-.098-.02-.016-.083-.066-.11-.12a.849.849 0 0 1-.056-.162c-.008-.027-.021-.149-.008-.18.02-.045.051-.128.051-.128h-.154c-.083 0-.143-.027-.174.032-.032.058-.017.175.023.328.04.151.063.226.052.253a.36.36 0 0 1-.083.101c-.02.013-.076.008-.1-.003a.28.28 0 0 0-.138-.03c-.075 0-.122.003-.15-.004-.028-.008-.096-.044-.128-.036s-.087.037-.071.083c.024.069-.023.085-.056.081-.032-.004-.058-.015-.099-.027-.04-.012-.098 0-.09-.048.007-.046.023-.05.043-.084.02-.037.027-.06.004-.062-.027-.002-.055-.005-.076.013-.022.018-.056.058-.083.043-.029-.016-.05-.049-.05-.123 0-.073-.075-.137-.006-.133.067.003.154.055.17.015.015-.04.006-.059-.031-.09-.037-.03-.083-.048-.034-.087.05-.04.061-.04.08-.062.02-.02.046-.09.08-.073.069.035.003.084.072.162.068.079.11.107.226.095.114-.013.146-.027.146-.062 0-.033-.01-.093-.014-.118-.002-.024.017-.113.017-.113s-.053.034-.07.067a1.493 1.493 0 0 1-.045.091s-.012-.068-.009-.124c.002-.033.013-.09.012-.101-.003-.031-.025-.108-.025-.108s-.018.084-.03.108a.579.579 0 0 0-.018.122s-.074-.066-.053-.177c.014-.086-.013-.198.012-.235.024-.038.082-.187.226-.193.142-.005.253.006.303.004.05-.004.226-.038.226-.038s-.325-.173-.399-.226a1.116 1.116 0 0 1-.227-.246c-.037-.061-.07-.18-.07-.18s-.059.002-.113.033a.565.565 0 0 0-.136.113c-.03.037-.08.12-.08.12s.01-.107.01-.14c0-.034-.007-.098-.007-.098s-.036.145-.11.2a3.42 3.42 0 0 0-.162.131s.009-.08.009-.1c0-.018.018-.113.018-.113s-.052.082-.132.098c-.081.015-.198.013-.208.064-.01.051.021.122.003.158a.184.184 0 0 1-.06.062s-.045-.04-.086-.043c-.04-.004-.078.018-.078.018s-.034-.046-.02-.077c.012-.03.073-.075.059-.094-.017-.018-.066.007-.097.021-.03.017-.096.031-.09-.021.006-.051.022-.082.006-.119-.015-.036-.006-.06.02-.07.024-.008.122.003.132-.02.009-.025-.024-.056-.09-.07-.064-.016-.096-.056-.062-.09a.234.234 0 0 0 .06-.072c.014-.031.021-.087.08-.058.058.027.046.094.109.115a.449.449 0 0 0 .237-.028c.031-.018.13-.094.165-.113.034-.017.176-.127.176-.127s-.083-.06-.115-.091c-.03-.031-.085-.104-.114-.12a.976.976 0 0 0-.21-.073c-.046-.002-.189-.055-.189-.055s.065-.021.087-.04c.02-.018.07-.064.095-.06l.03.002s-.132-.006-.16-.015c-.027-.009-.109-.061-.14-.061a.654.654 0 0 0-.091.012s.083-.054.15-.067c.069-.011.121-.01.121-.01s-.105-.03-.13-.065c-.024-.038-.05-.091-.068-.117-.019-.023-.03-.063-.065-.067-.034-.003-.093.044-.127.04-.034-.003-.059-.025-.062-.076-.002-.053 0-.034-.011-.062-.013-.027-.063-.091-.017-.106.048-.016.146.01.156-.009.009-.018-.052-.074-.093-.095-.04-.021-.105-.058-.071-.088.034-.03.068-.043.086-.07.019-.027.04-.104.081-.08.04.024.096.144.127.135.031-.01.033-.095.028-.131-.007-.037 0-.1.03-.095.031.006.056.049.106.052.049.003.123-.012.117.024a.279.279 0 0 1-.068.121.19.19 0 0 0-.027.171.449.449 0 0 0 .127.169c.049.033.142.058.201.097.058.04.195.153.241.165a.577.577 0 0 1 .093.037s.053-.024.124-.024c.072 0 .235.011.297-.016.063-.028.143-.073.119-.131-.026-.059-.161-.11-.15-.155.013-.046.063-.05.146-.053.084-.002.198.016.22-.107.021-.12.028-.192-.09-.219-.118-.027-.204-.03-.226-.119-.022-.088-.043-.11-.019-.134.026-.024.068-.037.155-.042.087-.007.186-.007.214-.029.028-.02.033-.078.067-.103.034-.024.168-.046.168-.046s.16.08.307.195c.132.102.252.254.252.254" stroke="#000" stroke-width=".39"/><path d="M29.392 27.747s-.087.026-.12.076c-.04.06-.038.122-.038.122s.075-.064.171-.038c.096.028.106.038.146.035a.85.85 0 0 0 .14-.04s-.082.098-.072.165c.009.066.02.097.019.131-.007.082-.066.184-.066.184s.034-.022.115-.04a.496.496 0 0 0 .192-.093c.043-.033.098-.116.098-.116s-.017.114 0 .162c.019.05.026.19.026.19s.051-.048.093-.07c.02-.013.076-.044.098-.08a.666.666 0 0 0 .035-.121s.012.103.043.153c.03.048.077.198.077.198s.032-.098.066-.138c.034-.04.074-.091.076-.122a.495.495 0 0 0-.008-.097l.042.097m-1.25.07s.053-.095.102-.126c.05-.03.118-.084.137-.09.017-.007.099-.053.099-.053m.108.59s.12-.064.154-.086a.464.464 0 0 0 .128-.128" stroke="#000" stroke-width=".39"/><path d="M30.88 27.463s-.037-.055-.046-.074c-.01-.017-.025-.055-.025-.055" stroke="#000" stroke-width=".26"/><path d="M30.414 29.345s.224.143.217.263c-.007.119-.124.275-.124.275" stroke="#000" stroke-width=".39"/><path d="M29.838 26.931s-.019-.054-.022-.07c-.003-.015-.013-.033-.013-.033s.096 0 .093.03c-.002.031-.03.031-.037.043a.211.211 0 0 1-.021.03Z" fill="#000" stroke="#000" stroke-width=".26"/><path d="m30.276 26.773-.006-.05s.084 0 .123.03a.319.319 0 0 1 .1.12c-.01.01-.06-.03-.093-.042 0 0-.025.006-.05.006s-.037-.013-.04-.024c-.003-.014.003-.035.003-.035l-.037-.005Z" fill="#000" stroke="#000" stroke-width=".05"/><path d="m29.84 27.376.036-.06.037.055-.073.005Zm.088-.002.044-.06.047.054-.091.006Zm-.039-.376.09.034-.082.043-.008-.076Zm.109.032.08.02-.065.052-.015-.073Z" fill="#000" stroke="#000" stroke-width=".26"/><path d="M28.615 26.913s.053.04.093.046c.04.006.084.006.09.006.006 0 .019-.062.012-.104a.206.206 0 0 0-.142-.168s.036.084.018.122c-.025.055-.07.098-.07.098Zm-.252.119s-.047-.088-.146-.076c-.098.012-.164.092-.164.092s.11-.003.137.015c.04.027.052.098.052.098s.06-.037.078-.062c.018-.024.043-.067.043-.067Zm-.12.357s-.085.012-.13.067c-.048.056-.04.16-.04.16s.055-.062.104-.062c.05 0 .127.018.127.018s-.024-.064-.024-.091a.314.314 0 0 0-.037-.092Zm.28 1.154s-.046-.052-.128-.037c-.08.016-.133.11-.133.11s.069-.019.11-.008c.039.009.067.05.067.05s.038-.032.05-.05c.012-.019.034-.065.034-.065Zm-.093.338s-.067-.011-.127.038c-.058.049-.06.142-.06.142s.055-.049.099-.042c.043.006.095.03.095.03l.012-.072c.01-.044-.018-.096-.018-.096Zm.16.312s-.005.09.036.146c.044.058.124.068.124.068s-.026-.06-.03-.092c-.007-.045.037-.085.037-.085s-.04-.044-.08-.044-.087.007-.087.007Zm.803.803s-.056-.073-.133-.07c-.077.003-.158.078-.158.078s.096-.008.121.025a.92.92 0 0 1 .05.076s.043-.024.062-.04a.55.55 0 0 0 .058-.069Zm-.238.321s-.102-.016-.152.04c-.05.054-.046.155-.046.155s.061-.07.117-.064c.056.005.119.036.119.036s-.01-.06-.017-.089c-.005-.027-.02-.078-.02-.078Zm.22.338s-.05.073-.014.13a.254.254 0 0 0 .115.086s-.028-.042-.015-.09c.01-.04.074-.092.074-.092l-.16-.034Zm1.36.138s-.089-.022-.14.009c-.049.03-.09.158-.09.158s.082-.07.141-.061a.33.33 0 0 1 .102.034s.009-.053.002-.09a.29.29 0 0 0-.015-.05Zm.045.341s-.069.073-.044.134a.828.828 0 0 0 .068.126s-.003-.091.025-.117c.04-.036.115-.042.115-.042s-.06-.055-.078-.061a1.13 1.13 0 0 1-.087-.04Zm.338.106s-.034.09.031.147c.065.06.122.065.122.065s-.05-.093-.036-.14c.017-.052.06-.082.06-.082s-.081-.029-.093-.026a.993.993 0 0 0-.084.037Z" fill="#DB4446" stroke="#000" stroke-width=".39"/><path d="m30.913 26.529-.032.002a.17.17 0 0 1-.029.04c-.028.029-.07.032-.094.008a.056.056 0 0 1-.015-.047.052.052 0 0 1-.056 0c-.029-.018-.035-.058-.015-.09.003-.008.006-.017.012-.021l-.003-.037-.038.01-.01.021c-.025.029-.06.035-.078.02a.06.06 0 0 1-.014-.031.04.04 0 0 1-.018.012c-.06.015-.083-.12-.085-.154l-.018.029s.017.08.008.148c-.009.067-.032.136-.032.136.082.021.204.09.326.188.121.097.217.203.256.275 0 0 .064-.036.13-.058.065-.021.149-.022.149-.022l.024-.024c-.035.005-.173.011-.171-.05 0-.009.008-.02.009-.02a.073.073 0 0 1-.033-.007c-.02-.014-.02-.049.002-.078l.02-.015v-.039l-.037.006-.016.015c-.03.026-.071.028-.094.003a.049.049 0 0 1-.012-.052.06.06 0 0 1-.05-.006c-.028-.017-.034-.06-.012-.091a.148.148 0 0 1 .034-.037l-.007-.034h-.001Z" fill="#C8B100" stroke="#000" stroke-width=".26"/><path d="M30.665 26.608c.005-.008.016-.007.025 0 .009.006.011.018.007.024-.006.006-.017.006-.027-.002-.007-.005-.01-.017-.005-.022Zm.104.09-.036-.029c-.007-.004-.008-.014-.005-.018.005-.005.013-.005.02 0l.036.03.036.028c.006.005.01.014.005.018-.005.005-.013.005-.02 0l-.036-.03Zm-.191-.136-.028-.017c-.008-.005-.011-.014-.008-.02.004-.005.012-.006.019-.002l.028.019.029.017c.007.003.01.012.008.018-.004.006-.013.007-.02.002l-.028-.017Zm-.113-.081c.006-.007.018-.007.026 0 .01.008.011.018.006.025-.006.006-.017.006-.025 0-.01-.008-.011-.018-.007-.025Zm.419.3c.005-.006.003-.016-.006-.024-.009-.007-.02-.007-.026 0-.005.006-.002.017.006.024.01.007.02.007.026 0Zm.062.075.024.024c.005.006.014.008.02.004.004-.005.004-.013-.002-.019l-.023-.024-.024-.024c-.005-.005-.015-.008-.02-.003-.005.003-.004.012.002.018l.023.024Zm.105.092c.006-.006.004-.017-.005-.023-.009-.008-.02-.008-.025-.002-.006.007-.004.018.005.026.009.005.02.006.025 0Z" fill="#000" stroke="#000" stroke-width=".05"/><path d="m30.749 26.261-.065.001-.012.1.006.016.017-.002.083-.058-.03-.057Z" fill="#C8B100" stroke="#000" stroke-width=".26"/><path d="m30.749 26.261-.065.001-.012.1.006.016.017-.002.083-.058-.03-.057Z" fill="#C8B100" stroke="#000" stroke-width=".26"/><path d="m30.575 26.316-.003.062.101.013.017-.008-.003-.017-.058-.08-.055.03Z" fill="#C8B100" stroke="#000" stroke-width=".26"/><path d="m30.782 26.44-.054.03-.059-.08-.001-.018.015-.007.102.013-.003.061Z" fill="#C8B100" stroke="#000" stroke-width=".26"/><path d="M30.651 26.363a.03.03 0 0 1 .043-.01c.015.007.02.027.01.041a.03.03 0 0 1-.042.01.03.03 0 0 1-.011-.041Zm-.234-.103c-.002.001-.014-.052-.029-.08-.008-.023-.042-.05-.042-.05.003-.006.046-.021.095.01.042.036-.003.1-.003.1s-.01.016-.021.02Z" fill="#C8B100" stroke="#000" stroke-width=".26"/><path d="m30.529 26.295-.046.042-.075-.068.007-.01.003-.016.1-.008.01.06Z" fill="#C8B100" stroke="#000" stroke-width=".26"/><path d="M30.403 26.253c.006-.017.02-.026.031-.023.012.005.017.02.011.038-.005.017-.02.026-.032.023-.012-.005-.016-.02-.01-.038Zm.597.169-.064-.007-.028.097.006.016.016.001.091-.047-.02-.06Z" fill="#C8B100" stroke="#000" stroke-width=".26"/><path d="m30.818 26.451-.011.062.098.026.017-.004v-.016l-.046-.09-.058.023Z" fill="#C8B100" stroke="#000" stroke-width=".26"/><path d="m31.006 26.603-.058.023-.046-.089.001-.017.017-.003.097.026-.01.06Z" fill="#C8B100" stroke="#000" stroke-width=".26"/><path d="M30.888 26.51a.031.031 0 0 1 .044-.005.03.03 0 0 1 .005.044c-.01.013-.03.015-.045.004a.03.03 0 0 1-.004-.043Zm.327.122.012.062-.095.035-.018-.005v-.016l.039-.092.062.016Z" fill="#C8B100" stroke="#000" stroke-width=".26"/><path d="m31.199 26.813-.062.015-.034-.095.005-.017.016-.002.094.04-.02.059Z" fill="#C8B100" stroke="#000" stroke-width=".26"/><path d="m31.031 26.637-.02.06.094.038.017-.002.004-.016-.033-.094-.062.014Z" fill="#C8B100" stroke="#000" stroke-width=".26"/><path d="M31.134 26.748a.032.032 0 0 0 .003-.044.034.034 0 0 0-.045-.003.032.032 0 0 0-.002.045.031.031 0 0 0 .044.002Zm.151.205c0 .001.055.004.087.01a.216.216 0 0 1 .057.031c.006-.004.013-.048-.031-.09-.043-.032-.096.025-.096.025s-.014.014-.017.024Z" fill="#C8B100" stroke="#000" stroke-width=".26"/><path d="m31.227 26.852-.032.052.084.059.01-.01.014-.004-.014-.1-.062.003Z" fill="#C8B100" stroke="#000" stroke-width=".26"/><path d="M31.295 26.965c.015-.008.023-.025.016-.036-.006-.01-.024-.011-.04-.002-.015.01-.021.025-.015.035.006.01.023.012.039.003Z" fill="#C8B100" stroke="#000" stroke-width=".26"/><path d="M27.358 34.122c.984 0 1.781-.934 1.781-2.087 0-1.152-.797-2.086-1.781-2.086-.984 0-1.782.934-1.782 2.086 0 1.153.798 2.087 1.782 2.087Z" fill="#AD1519" stroke="#000" stroke-width=".61"/><path d="M27.359 33.56c.692 0 1.253-.684 1.253-1.53 0-.844-.56-1.529-1.253-1.529-.692 0-1.254.685-1.254 1.53s.562 1.53 1.254 1.53Z" fill="#005BBF" stroke="#000" stroke-width=".61"/><path d="M26.766 30.979s-.148.168-.148.326.062.29.062.29a.164.164 0 0 0-.154-.108.163.163 0 0 0-.165.162.25.25 0 0 0 .027.088l.053.113c.018-.043.06-.066.108-.066.064 0 .118.052.118.116 0 .01-.001.019-.004.028l-.134.001v.118h.12l-.09.183.118-.048.089.104.092-.104.117.048-.088-.183h.119v-.118h-.134c-.002-.01-.002-.02-.002-.03 0-.063.051-.114.116-.114.048 0 .09.022.107.064l.054-.112a.247.247 0 0 0 .026-.088.162.162 0 0 0-.163-.162.162.162 0 0 0-.155.107s.063-.131.063-.29c0-.157-.152-.325-.152-.325Z" fill="#C8B100" stroke="#000" stroke-width=".34" stroke-linejoin="round"/><path d="M26.53 32.047h.477v-.118h-.478v.118Z" fill="#C8B100" stroke="#000" stroke-width=".34"/><path d="M27.93 30.979s-.148.168-.148.326.062.29.062.29a.164.164 0 0 0-.154-.108.163.163 0 0 0-.165.162.25.25 0 0 0 .027.088l.053.113c.018-.043.06-.066.108-.066.064 0 .118.052.118.116 0 .01-.001.019-.004.028l-.134.001v.118h.12l-.09.183.118-.048.089.104.092-.104.117.048-.088-.183h.119v-.118h-.134c-.002-.01-.002-.02-.002-.03 0-.063.051-.114.116-.114.048 0 .09.022.107.064l.054-.112a.245.245 0 0 0 .026-.088.162.162 0 0 0-.163-.162.162.162 0 0 0-.154.107s.062-.131.062-.29c0-.157-.152-.325-.152-.325Z" fill="#C8B100" stroke="#000" stroke-width=".34" stroke-linejoin="round"/><path d="M27.693 32.047h.478v-.118h-.478v.118Z" fill="#C8B100" stroke="#000" stroke-width=".34"/><path d="M27.35 32.02s-.148.17-.148.326c0 .159.062.29.062.29a.164.164 0 0 0-.154-.107.163.163 0 0 0-.165.162.25.25 0 0 0 .027.088l.053.112c.018-.042.06-.064.108-.064.064 0 .118.05.118.115 0 .01-.001.019-.004.028l-.134.001v.118h.12l-.09.183.118-.048.089.104.092-.104.117.048-.088-.183h.119v-.118h-.134c-.002-.01-.002-.02-.002-.03 0-.063.051-.114.116-.114.048 0 .09.022.107.065l.054-.113a.245.245 0 0 0 .026-.088.162.162 0 0 0-.163-.162.162.162 0 0 0-.155.107s.063-.131.063-.29c0-.157-.152-.325-.152-.325Z" fill="#C8B100" stroke="#000" stroke-width=".34" stroke-linejoin="round"/><path d="M27.113 33.089h.478v-.118h-.478v.118Z" fill="#C8B100" stroke="#000" stroke-width=".34"/></g><defs><clipPath id="a"><rect width="82" height="57" rx="28.5" fill="#fff"/></clipPath></defs></svg>