<svg width="543" height="496" fill="none" xmlns="http://www.w3.org/2000/svg"><g clip-path="url(#a)"><path d="M120.15 114.47v205.82m29.26-205.82v205.82m29.26-205.82v205.82M106.141 99.22h86.54M91.11 83.98H207.7M84.61 68.73H214.2m150.111 45.74v205.82m29.259-205.82v205.82m29.26-205.82v205.82M350.301 99.22h86.54M335.28 83.98h116.59M328.78 68.73h129.59M472.15 6H70.82v48.43h401.33V6Z" stroke="#fff" stroke-width="10.27" stroke-miterlimit="10"/><path d="M70.82 38.58h5.9V21.85h17.71v8.37h-8.67v8.36h16.43" stroke="#fff" stroke-width="4.4" stroke-miterlimit="10"/><path d="M92.37 38.58h13.38V21.85h17.71v8.37h-8.67v8.36h16.43" stroke="#fff" stroke-width="4.4" stroke-miterlimit="10"/><path d="M121.41 38.58h13.38V21.85h17.71v8.37h-8.67v8.36h16.43" stroke="#fff" stroke-width="4.4" stroke-miterlimit="10"/><path d="M150.44 38.58h13.38V21.85h17.71v8.37h-8.67v8.36h16.43" stroke="#fff" stroke-width="4.4" stroke-miterlimit="10"/><path d="M179.48 38.58h13.38V21.85h17.71v8.37h-8.67v8.36h16.43" stroke="#fff" stroke-width="4.4" stroke-miterlimit="10"/><path d="M208.511 38.58h13.38V21.85h17.71v8.37h-8.67v8.36h16.43" stroke="#fff" stroke-width="4.4" stroke-miterlimit="10"/><path d="M237.551 38.58h13.38V21.85h17.71v8.37h-8.67v8.36h16.43" stroke="#fff" stroke-width="4.4" stroke-miterlimit="10"/><path d="M266.58 38.58h13.38V21.85h17.71v8.37H289v8.36h16.43" stroke="#fff" stroke-width="4.4" stroke-miterlimit="10"/><path d="M295.62 38.58H309V21.85h17.71v8.37h-8.67v8.36h16.43" stroke="#fff" stroke-width="4.4" stroke-miterlimit="10"/><path d="M324.65 38.58h13.38V21.85h17.71v8.37h-8.67v8.36h16.43" stroke="#fff" stroke-width="4.4" stroke-miterlimit="10"/><path d="M353.69 38.58h13.38V21.85h17.71v8.37h-8.67v8.36h16.43" stroke="#fff" stroke-width="4.4" stroke-miterlimit="10"/><path d="M382.721 38.58h13.38V21.85h17.71v8.37h-8.67v8.36h16.43" stroke="#fff" stroke-width="4.4" stroke-miterlimit="10"/><path d="M411.761 38.58h13.38V21.85h17.71v8.37h-8.67v8.36h16.43" stroke="#fff" stroke-width="4.4" stroke-miterlimit="10"/><path d="M440.79 38.58h13.38V21.85h17.71v8.37h-8.67v8.36h8.95" stroke="#fff" stroke-width="4.4" stroke-miterlimit="10"/><path d="M70.82 14.63h401.06M70.82 45.24h401.06" stroke="#fff" stroke-width="1.47" stroke-miterlimit="10"/><path d="m51.4 433.6 47.69-81.63 37.61 81.63-57.78-40.82m327.36 40.82 47.69-81.63 37.61 81.63-57.78-40.82m-242.35-40.81v90.65m44.75-58.09-44.75 28.59-44.75-28.59 44.75-32.56 44.75 32.56Zm20-32.56v81.63l51.06-81.63v81.63m75.04-81.63v81.63l-51.06-81.63v81.63" stroke="#fff" stroke-width="7" stroke-miterlimit="10"/><path d="M135.669 486.6h-1.056a2.192 2.192 0 0 0-.329-.801 2.185 2.185 0 0 0-.562-.58 2.405 2.405 0 0 0-.729-.358 2.926 2.926 0 0 0-.835-.119c-.528 0-1.007.134-1.436.401-.426.267-.766.66-1.019 1.18-.25.52-.375 1.158-.375 1.913 0 .756.125 1.394.375 1.914.253.52.593.913 1.019 1.18.429.267.908.401 1.436.401.29 0 .568-.04.835-.12a2.44 2.44 0 0 0 .729-.353 2.231 2.231 0 0 0 .891-1.385h1.056a3.509 3.509 0 0 1-.434 1.197 3.264 3.264 0 0 1-1.837 1.458c-.386.127-.8.191-1.24.191-.744 0-1.406-.181-1.986-.545-.579-.364-1.035-.881-1.368-1.551-.332-.671-.498-1.466-.498-2.387 0-.92.166-1.715.498-2.386.333-.67.789-1.187 1.368-1.551.58-.364 1.242-.545 1.986-.545.44 0 .854.063 1.24.191.389.128.74.316 1.053.563.312.244.574.542.784.895.21.349.355.748.434 1.197Zm1.197.392v-.937h5.318v.937h-2.148v5.608h-1.005v-5.608h-2.165Zm6.785 8.063v-9h.972v1.039h.119a9.15 9.15 0 0 1 .307-.434c.133-.179.324-.338.571-.478.25-.142.588-.213 1.014-.213.551 0 1.037.138 1.457.414.421.275.749.666.985 1.172.235.505.353 1.102.353 1.789 0 .694-.118 1.294-.353 1.803-.236.506-.563.898-.98 1.176-.418.276-.9.413-1.445.413-.421 0-.757-.069-1.01-.208a1.878 1.878 0 0 1-.584-.482 6.475 6.475 0 0 1-.315-.452h-.085v3.461h-1.006Zm.989-5.728c0 .495.072.931.217 1.309.145.375.356.669.635.882.278.21.619.315 1.023.315.42 0 .771-.111 1.052-.332.284-.225.497-.526.639-.904a3.54 3.54 0 0 0 .218-1.27c0-.46-.071-.875-.213-1.244a1.93 1.93 0 0 0-.635-.882c-.282-.219-.635-.328-1.061-.328-.41 0-.753.104-1.032.311a1.862 1.862 0 0 0-.63.861c-.142.366-.213.794-.213 1.282Zm8.983 3.409c-.591 0-1.11-.14-1.556-.421a2.872 2.872 0 0 1-1.04-1.181c-.247-.505-.37-1.096-.37-1.773 0-.681.123-1.277.37-1.785.25-.509.597-.903 1.04-1.185.446-.281.965-.422 1.556-.422.59 0 1.107.141 1.551.422.446.282.792.676 1.039 1.185.25.508.375 1.104.375 1.785 0 .677-.125 1.268-.375 1.773a2.828 2.828 0 0 1-1.039 1.181c-.444.281-.961.421-1.551.421Zm0-.903c.448 0 .818-.115 1.107-.345.29-.23.505-.533.644-.908a3.48 3.48 0 0 0 .209-1.219c0-.437-.07-.845-.209-1.223a2.063 2.063 0 0 0-.644-.916c-.289-.233-.659-.349-1.107-.349-.449 0-.819.116-1.108.349-.29.233-.505.539-.644.916a3.518 3.518 0 0 0-.209 1.223c0 .438.07.844.209 1.219.139.375.354.678.644.908.289.23.659.345 1.108.345Zm5.506-.716 3.154-5.062h1.159v6.545h-1.006v-5.062L159.3 492.6h-1.176v-6.545h1.005v5.062Zm9.734.119 2.284-5.181h.955l-2.83 6.545h-.818l-2.778-6.545h.937l2.25 5.181Zm-2.574-5.181v6.545h-1.005v-6.545h1.005Zm5.148 6.545v-6.545h1.006v6.545h-1.006Zm11.08-9 .511.614a1.648 1.648 0 0 1-.69.405 3.906 3.906 0 0 1-.887.14c-.329.017-.696.034-1.099.051-.455.017-.831.128-1.129.333-.299.204-.529.5-.691.886-.162.386-.265.861-.311 1.423h.085a2.08 2.08 0 0 1 .921-.903c.392-.193.812-.29 1.261-.29.512 0 .972.12 1.381.358.409.239.733.592.972 1.061.238.469.358 1.047.358 1.735 0 .684-.123 1.275-.367 1.772a2.703 2.703 0 0 1-1.018 1.151c-.435.267-.945.4-1.53.4-.585 0-1.098-.137-1.539-.413-.44-.278-.782-.69-1.027-1.236-.244-.548-.366-1.226-.366-2.032v-.699c0-1.458.247-2.563.741-3.316.498-.752 1.245-1.142 2.242-1.167.352-.012.666-.014.942-.009a4.25 4.25 0 0 0 .72-.038c.204-.031.378-.107.52-.226Zm-2.233 8.233c.395 0 .734-.099 1.018-.298.287-.199.507-.479.661-.84.153-.363.23-.791.23-1.282 0-.478-.078-.884-.235-1.219a1.7 1.7 0 0 0-.66-.767c-.287-.176-.631-.264-1.031-.264-.293 0-.556.049-.789.149a1.585 1.585 0 0 0-.596.439 2.06 2.06 0 0 0-.384.707 3.322 3.322 0 0 0-.14.955c0 .733.171 1.319.515 1.76.344.44.814.66 1.411.66Zm5.101 3.222c-.171 0-.323-.015-.456-.043a1.19 1.19 0 0 1-.277-.077l.255-.886c.245.062.461.085.648.068a.778.778 0 0 0 .499-.251c.147-.148.282-.388.404-.72l.188-.512-2.421-6.579h1.091l1.807 5.216h.068l1.807-5.216h1.091l-2.778 7.5a2.82 2.82 0 0 1-.465.839 1.732 1.732 0 0 1-.643.499 1.984 1.984 0 0 1-.818.162Zm4.782-.58v-2.812h.545c.134-.14.249-.29.346-.452.096-.162.18-.354.251-.575.074-.225.136-.498.187-.819.052-.323.097-.714.137-1.171l.221-2.591h4.159v5.608h1.006v2.812h-1.006V492.6h-4.84v1.875h-1.006Zm1.687-2.812h3.154v-4.671h-2.216l-.171 1.654a18.602 18.602 0 0 1-.264 1.794c-.105.511-.272.919-.503 1.223Zm7.148 3.392c-.171 0-.323-.015-.456-.043a1.19 1.19 0 0 1-.277-.077l.256-.886c.244.062.46.085.647.068a.778.778 0 0 0 .499-.251c.148-.148.282-.388.405-.72l.187-.512-2.42-6.579h1.091l1.806 5.216h.069l1.806-5.216h1.091l-2.778 7.5a2.82 2.82 0 0 1-.465.839 1.732 1.732 0 0 1-.643.499 1.984 1.984 0 0 1-.818.162Zm14.964-3.392-.12 2.812h-1.04V492.6h-.852v-.937h2.012Zm-8.932-5.608h1.005v5.608h2.472v-5.608h1.006v5.608h2.471v-5.608h1.006v6.545h-7.96v-6.545Zm13.068 6.681c-.63 0-1.174-.139-1.632-.417a2.802 2.802 0 0 1-1.052-1.176c-.245-.506-.367-1.094-.367-1.764 0-.671.122-1.262.367-1.773a2.894 2.894 0 0 1 1.031-1.202c.443-.29.96-.435 1.551-.435.341 0 .678.057 1.01.171.332.114.635.298.908.554.272.253.49.588.652 1.006.162.417.242.931.242 1.542v.426h-5.045v-.869h4.023c0-.369-.074-.699-.222-.989a1.676 1.676 0 0 0-.622-.686 1.746 1.746 0 0 0-.946-.251c-.401 0-.747.099-1.04.298a1.96 1.96 0 0 0-.669.767 2.26 2.26 0 0 0-.234 1.014v.58c0 .494.085.913.255 1.257.174.341.414.601.721.78.306.176.663.264 1.069.264.264 0 .503-.037.716-.111.216-.076.402-.19.558-.341.157-.153.277-.343.363-.571l.971.273c-.102.33-.274.619-.515.869-.242.248-.54.441-.895.58a3.33 3.33 0 0 1-1.198.204Zm6.985 0c-.631 0-1.175-.139-1.632-.417a2.797 2.797 0 0 1-1.053-1.176c-.244-.506-.366-1.094-.366-1.764 0-.671.122-1.262.366-1.773a2.894 2.894 0 0 1 1.031-1.202c.443-.29.96-.435 1.551-.435.341 0 .678.057 1.01.171.333.114.635.298.908.554.273.253.49.588.652 1.006.162.417.243.931.243 1.542v.426h-5.046v-.869h4.023c0-.369-.074-.699-.221-.989a1.679 1.679 0 0 0-.623-.686 1.746 1.746 0 0 0-.946-.251c-.4 0-.747.099-1.039.298a1.96 1.96 0 0 0-.669.767 2.248 2.248 0 0 0-.235 1.014v.58c0 .494.085.913.256 1.257.173.341.413.601.72.78.307.176.663.264 1.07.264.264 0 .502-.037.716-.111.215-.076.402-.19.558-.341a1.54 1.54 0 0 0 .362-.571l.972.273c-.103.33-.275.619-.516.869-.241.248-.54.441-.895.58a3.325 3.325 0 0 1-1.197.204Zm212.103-9.756c35.24-1.37 70.54-1.38 105.78 0-35.24 1.38-70.54 1.37-105.78 0ZM0 482.98c35.24-1.37 70.54-1.38 105.78 0-35.24 1.38-70.54 1.37-105.78 0Zm354.69-258.53c-7.16-1.26-18-1.56-32.4 4.07-1-.2-2.06-.36-3.16-.48-6.03-.64-11.3.32-15.34 1.56 4.94-6.22 13.93-15.58 27.85-20.74 8.03-2.97 14.93-3.53 23.26-4.2 19.9-1.6 24.88 2.21 36.94-.22 6.5-1.31 16.09-4.64 26.85-14.34-4.85 1.11-12.72 2.66-22.53 3.37-25.52 1.85-30.91-4.4-42.71 1.52-5.68 2.84-10.73 7.45-23.18 12.15-2.52.95-4.64 1.64-6.07 2.09 2.31-2.85 4.33-5.67 6.1-8.41 2.42-3.76 4.07-6.89 9.14-15.35 2.11-3.52 3.58-5.94 6.62-7.91 2.12-1.38 4.16-2.03 5.64-2.37.55 1.44 1.7 3.81 4.03 5.82 3.9 3.36 8.5 3.47 11.03 3.5 6.61.07 16.58-2.78 17.87-9.13.57-2.82-.8-5.23-1.15-5.85-3.31-5.83-11.95-6.4-16.64-5.76-8.77 1.2-13.74 7.99-14.78 9.49-.88-.11-2.27-.15-3.86.31-2.75.8-4.35 2.63-4.95 3.39a146.558 146.558 0 0 0 7.42-24.41c7.87-9.25 10.75-17.53 11.9-23.46 1.63-8.34.12-13.44.34-30.08.1-7.69.52-13.99.86-18.13a87.47 87.47 0 0 0-15.17 32.49c-3.95 16.87-1.94 30.94-.3 38.49-2.18 10.09-6.45 24.4-15.55 39.43-3.4 5.61-7.09 10.69-10.95 15.3a66.17 66.17 0 0 0 1.5-6.02c.6-3 .95-5.79 1.13-8.3 4.06-11 8.41-26.6 9.39-45.65.68-13.23-.43-24.77-2-33.98-11.46 18.75-13.36 33.7-12.72 44.28.8 13.32 5.94 24.82 2.01 42.43a66.858 66.858 0 0 1-4.27 12.81c-8.1 8.59-16.68 15.33-24.74 20.73a43.94 43.94 0 0 0 2.57-6.9c.78-2.8 1.19-5.36 1.39-7.54 1.44-1 3.62-2.81 5.29-5.72 3.41-5.95 2.73-13.16-.14-18.28-1.19-2.12-3.45-6.16-7.86-6.96-4.33-.78-7.77 2.09-8.16 2.42-5.46 4.7-3.59 13.55-3.22 15.12 2.11 8.94 10.25 13.08 11.65 13.77-.28 2.18-.79 4.74-1.71 7.5a39.844 39.844 0 0 1-4.87 9.86c-5.88 3.66-11.34 6.61-15.94 9.06-2.98 1.59-5.8 3.04-8.51 4.38a16.47 16.47 0 0 1-.4-7.01 16.43 16.43 0 0 1 2.23-5.99c3.11-4.57 6.23-9.32 9.34-14.25 2.43-3.84 4.76-7.64 7-11.38-3.2-12.01-.12-22.18 5.93-24.93 1.2-.54 3.65-1.32 7.56-.23a76.07 76.07 0 0 0 4.52-16.38c1.78-11.23.71-20.75-.59-27.19-1.72 4.96-4.61 12.62-9.1 21.54-10.58 21.05-18.92 27.11-23.89 42.78-2.02 6.36-4.03 16.03-2.79 29.03-.87 1.13-2.53 3.61-3.07 7.19-.53 3.53.28 6.4.88 7.97-19.13 9.28-31.75 12.78-44.15 17.57-.03-2.05.24-4.75 1.43-7.65.74-1.81 1.65-3.25 2.48-4.35 6.51-5.75 22.34-21.33 28.18-46.81 3.46-15.09 2.11-27.97.59-35.94-1.48 6.86-4.42 16.72-10.88 26.96-6.43 10.19-11.39 12.91-15.94 21.39-3.64 6.79-7.06 17.37-5.2 33.49-1.26 1.73-3.45 5.25-3.85 10.13-.12 1.49-.06 2.84.09 4.01-9.43 3.84-19.05 8.77-31.61 17.9-18.51 13.45-17.94 23.82-21.11 32.87 4.19-10.14 9.65-17 13.37-21.01 5.63-6.07 13.95-15.04 26.65-16.35 4.62-.48 8.48.2 10.95.81-.18 2.67-.16 7.89 2.54 13.48 3.67 7.59 10.99 13.13 19.14 14.52 2.05.35 13.32 1.99 17.89-4.59 1.8-2.59 1.84-5.42 1.85-6.88.02-10.74-11.47-17.86-12.15-18.27-12.38-7.43-26.54-.93-27.99-.24a19.23 19.23 0 0 0-4.2-1.65 20.07 20.07 0 0 0-6.06-.64c4.35-2.57 11.15-5.92 20.03-7.7 2.76-.56 10.32-1.88 21.92-.61 13.34 1.46 22.98 5.37 28.3 7.43 22.74 8.8 41.04 15.89 60.75 16.04 8.93.07 23.5-1.25 41.25-9.82a100.368 100.368 0 0 1-51.56-11.65c-.5 1.43-2.1 5.4-6.05 7.34-4.73 2.33-9.64.19-12.78-1.17-8.42-3.65-12.55-11.07-14.08-14.3a103.757 103.757 0 0 0-42.97 3.96c-2-.53-4.27-1-6.77-1.31-4.68-.58-8.8-.42-12.11-.04 10.21-2.39 17.77-5.8 22.89-8.56 5.22-2.82 11.37-6.83 20.44-9.79 2.7-.88 7.11-2.14 12.61-1.44 2.67.34 4.83 1.05 6.3 1.64-.52 2.17-.96 5.29-.36 8.87 1.78 10.51 11.96 21.35 21.9 19.87 4.34-.65 9.06-3.72 10.69-8.32 2.65-7.46-4.14-15.29-8.48-18.62-9.15-7.02-20.53-4.1-22.22-3.64a47.845 47.845 0 0 0-11.92-2.91c3.38-2.87 8.75-6.77 16.16-9.71 10.45-4.14 19.39-4.14 22.7-4.03 5.63.19 9.93 1.22 21.82 5.16 19.19 6.36 22.81 8.59 28.91 10.32 9.39 2.67 23.65 3.89 43.98-3.81-5.2-.63-13.34-1.92-22.95-4.84-17.87-5.42-23.52-11.22-35.92-13.4l-.02-.01Z" fill="#fff"/></g><defs><clipPath id="a"><path fill="#fff" d="M0 0h543v496H0z"/></clipPath></defs></svg>