<svg width="82" height="57" fill="none" xmlns="http://www.w3.org/2000/svg"><g clip-path="url(#a)"><path d="M82.356 0h-82v57h82V0Z" fill="#fff"/><path fill-rule="evenodd" clip-rule="evenodd" d="M35.89 0v22.8H.357v11.4H35.89V57h10.933V34.2h35.533V22.8H46.823V0H35.89Z" fill="#DE2910"/><path fill-rule="evenodd" clip-rule="evenodd" d="M55 10.569c1.44.249 2.914.413 4.415.478A26.918 26.918 0 0 0 58.893 7a18.544 18.544 0 0 0 4.214 0 26.93 26.93 0 0 0-.522 4.047A34.691 34.691 0 0 0 67 10.568a14.27 14.27 0 0 0-.13 1.932c0 .654.044 1.297.13 1.931a34.691 34.691 0 0 0-4.415-.478c.071 1.376.25 2.727.522 4.047A18.483 18.483 0 0 0 61 17.881c-.714 0-1.415.04-2.107.119.272-1.32.451-2.67.522-4.047a34.69 34.69 0 0 0-4.415.479c.087-.635.13-1.278.13-1.932 0-.654-.043-1.297-.13-1.931Zm0 33c1.44.249 2.914.413 4.415.478A26.918 26.918 0 0 0 58.893 40a18.544 18.544 0 0 0 4.214 0 26.931 26.931 0 0 0-.522 4.047A34.691 34.691 0 0 0 67 43.57a14.27 14.27 0 0 0-.13 1.931c0 .654.044 1.297.13 1.931a34.691 34.691 0 0 0-4.415-.478c.071 1.376.25 2.727.522 4.047a18.483 18.483 0 0 0-2.107-.12c-.714 0-1.415.04-2.107.119.272-1.32.451-2.67.522-4.047A34.69 34.69 0 0 0 55 47.43c.087-.634.13-1.277.13-1.931 0-.654-.043-1.297-.13-1.931Zm-39 0c1.32.249 2.67.413 4.047.478A29.252 29.252 0 0 0 19.57 40a15.623 15.623 0 0 0 3.863 0c-.25 1.32-.414 2.67-.479 4.047A29.252 29.252 0 0 0 27 43.57c-.08.634-.119 1.277-.119 1.931 0 .654.04 1.297.12 1.931a29.291 29.291 0 0 0-4.048-.478c.065 1.376.23 2.727.479 4.047a15.547 15.547 0 0 0-1.932-.119c-.654 0-1.297.04-1.931.119.249-1.32.413-2.67.478-4.047A29.25 29.25 0 0 0 16 47.43a15.594 15.594 0 0 0 0-3.862Zm0-33c1.32.249 2.67.413 4.047.478A29.252 29.252 0 0 0 19.57 7a15.623 15.623 0 0 0 3.863 0c-.25 1.32-.414 2.67-.479 4.047A29.252 29.252 0 0 0 27 10.568a15.43 15.43 0 0 0-.119 1.932c0 .654.04 1.297.12 1.931a29.291 29.291 0 0 0-4.048-.478c.065 1.376.23 2.727.479 4.047a15.547 15.547 0 0 0-1.932-.119c-.654 0-1.297.04-1.931.119.249-1.32.413-2.67.478-4.047a29.25 29.25 0 0 0-4.047.479 15.594 15.594 0 0 0 0-3.863Z" fill="#DE2910"/></g><defs><clipPath id="a"><rect width="82" height="57" rx="28.5" fill="#fff"/></clipPath></defs></svg>