<svg width="16" height="16" fill="none" xmlns="http://www.w3.org/2000/svg"><path d="M6.639 5.963a2.45 2.45 0 0 0-1.042 2.515l1.042-2.515Zm0 0a2.45 2.45 0 0 1 1.36-.413m-1.36.413 1.36-.413m0 0c.65.001 1.273.26 1.732.719L7.999 5.55ZM6.267 9.732a2.45 2.45 0 0 1-.67-1.254l4.134-2.21a2.45 2.45 0 1 1-3.464 3.464Z" stroke="#DADADA" stroke-width="1.5"/><path d="M1.793 1.793A3.56 3.56 0 0 1 4.306.75h7.388a3.56 3.56 0 0 1 3.556 3.555v7.389a3.56 3.56 0 0 1-3.555 3.555v.001h-7.39A3.56 3.56 0 0 1 .75 11.694V4.306a3.56 3.56 0 0 1 1.043-2.513Z" stroke="#DADADA" stroke-width="1.5"/><circle cx="11.829" cy="4.171" r=".857" fill="#D9D9D9"/></svg>