<svg width="113" height="57" fill="none" xmlns="http://www.w3.org/2000/svg"><g clip-path="url(#a)"><path d="M0 0h113v57H0V0Z" fill="#EE1C25"/><path d="m26.602 5.7 5.007 15.467L18.5 11.608h16.204l-13.11 9.56L26.603 5.7Zm15.309-2.623-.474 5.4-2.779-4.648 4.97 2.121-5.263 1.216 3.546-4.089Zm6.609 6.339-2.526 4.792-.764-5.367 3.761 3.891-5.321-.929 4.85-2.387Zm.627 9.557-4.253 3.341 1.484-5.212 1.852 5.092-4.481-3.027 5.398-.194Zm-7.345 4.01-.25 5.415-2.969-4.529 5.054 1.913-5.209 1.434 3.374-4.233Z" fill="#FF0"/></g><defs><clipPath id="a"><rect width="113" height="57" rx="28.5" fill="#fff"/></clipPath></defs></svg>