<svg width="83" height="57" fill="none" xmlns="http://www.w3.org/2000/svg"><g clip-path="url(#a)"><path d="M.5 0h82v57H.5V0Z" fill="#EE1C25"/><path d="m19.5 9 5.253 17L11 15.493h17L14.247 26 19.5 9Zm16.173-2.81-.501 6.056-2.939-5.213 5.256 2.379-5.566 1.364 3.75-4.586Zm6.987 7.109-2.67 5.375-.808-6.02 3.977 4.365-5.627-1.042 5.127-2.678Zm.664 10.719-4.497 3.748 1.569-5.846 1.959 5.711-4.739-3.395 5.708-.218Zm-7.766 4.499-.265 6.073-3.14-5.08 5.345 2.146-5.508 1.608 3.568-4.748Z" fill="#FF0"/></g><defs><clipPath id="a"><rect x=".5" width="82" height="57" rx="28.5" fill="#fff"/></clipPath></defs></svg>